<svg xmlns="http://www.w3.org/2000/svg" xmlns:xlink="http://www.w3.org/1999/xlink" width="500" zoomAndPan="magnify" viewBox="0 0 375 374.999991" height="500" preserveAspectRatio="xMidYMid meet" version="1.0"><path fill="#bdbdbd" d="M 345 295.5 L 375 259.125 L 375 265.125 L 345 301.5 L 313.5 263.25 L 282 301.5 L 250.5 263.25 L 219 301.5 L 187.5 263.25 L 156 301.5 L 124.5 263.25 L 93 301.5 L 61.5 263.25 L 30 301.5 L 0 265.125 L 0 259.125 L 30 295.5 L 61.5 257.25 L 93 295.5 L 124.5 257.25 L 156 295.5 L 187.5 257.25 L 219 295.5 L 250.5 257.25 L 282 295.5 L 313.5 257.25 Z M 313.5 220.5 L 282 258.75 L 250.5 220.5 L 219 258.75 L 187.5 220.5 L 156 258.75 L 124.5 220.5 L 93 258.75 L 61.5 220.5 L 30 258.75 L 0 222.375 L 0 228.375 L 30 264.75 L 61.5 226.5 L 93 264.75 L 124.5 226.5 L 156 264.75 L 187.5 226.5 L 219 264.75 L 250.5 226.5 L 282 264.75 L 313.5 226.5 L 345 264.75 L 375 228.375 L 375 222.375 L 345 258.75 Z M 313.5 294 L 282 332.25 L 250.5 294 L 219 332.25 L 187.5 294 L 156 332.25 L 124.5 294 L 93 332.25 L 61.5 294 L 30 332.25 L 0 295.875 L 0 301.875 L 30 338.25 L 61.5 300 L 93 338.25 L 124.5 300 L 156 338.25 L 187.5 300 L 219 338.25 L 250.5 300 L 282 338.25 L 313.5 300 L 345 338.25 L 375 301.875 L 375 295.875 L 345 332.25 Z M 313.5 183.75 L 282 222 L 250.5 183.75 L 219 222 L 187.5 183.75 L 156 222 L 124.5 183.75 L 93 222 L 61.5 183.75 L 30 222 L 0 185.625 L 0 191.625 L 30 228 L 61.5 189.75 L 93 228 L 124.5 189.75 L 156 228 L 187.5 189.75 L 219 228 L 250.5 189.75 L 282 228 L 313.5 189.75 L 345 228 L 375 191.625 L 375 185.625 L 345 222 Z M 313.5 330.75 L 282 369 L 250.5 330.75 L 219 369 L 187.5 330.75 L 156 369 L 124.5 330.75 L 93 369 L 61.5 330.75 L 30 369 L 0 332.625 L 0 338.625 L 30 375 L 61.5 336.75 L 93 375 L 124.5 336.75 L 156 375 L 187.5 336.75 L 219 375 L 250.5 336.75 L 282 375 L 313.5 336.75 L 345 375 L 375 338.625 L 375 332.625 L 345 369 Z M 313.5 73.5 L 282 111.75 L 250.5 73.5 L 219 111.75 L 187.5 73.5 L 156 111.75 L 124.5 73.5 L 93 111.75 L 61.5 73.5 L 30 111.75 L 0 75.375 L 0 81.375 L 30 117.75 L 61.5 79.5 L 93 117.75 L 124.5 79.5 L 156 117.75 L 187.5 79.5 L 219 117.75 L 250.5 79.5 L 282 117.75 L 313.5 79.5 L 345 117.75 L 375 81.375 L 375 75.375 L 345 111.75 Z M 313.5 147 L 282 185.25 L 250.5 147 L 219 185.25 L 187.5 147 L 156 185.25 L 124.5 147 L 93 185.25 L 61.5 147 L 30 185.25 L 0 148.875 L 0 154.875 L 30 191.25 L 61.5 153 L 93 191.25 L 124.5 153 L 156 191.25 L 187.5 153 L 219 191.25 L 250.5 153 L 282 191.25 L 313.5 153 L 345 191.25 L 375 154.875 L 375 148.875 L 345 185.25 Z M 345 38.25 L 313.5 0 L 282 38.25 L 250.5 0 L 219 38.25 L 187.5 0 L 156 38.25 L 124.5 0 L 93 38.25 L 61.5 0 L 30 38.25 L 0 1.875 L 0 7.875 L 30 44.25 L 61.5 6 L 93 44.25 L 124.5 6 L 156 44.25 L 187.5 6 L 219 44.25 L 250.5 6 L 282 44.25 L 313.5 6 L 345 44.25 L 375 7.875 L 375 1.875 Z M 313.5 36.75 L 282 75 L 250.5 36.75 L 219 75 L 187.5 36.75 L 156 75 L 124.5 36.75 L 93 75 L 61.5 36.75 L 30 75 L 0 38.625 L 0 44.625 L 30 81 L 61.5 42.75 L 93 81 L 124.5 42.75 L 156 81 L 187.5 42.75 L 219 81 L 250.5 42.75 L 282 81 L 313.5 42.75 L 345 81 L 375 44.625 L 375 38.625 L 345 75 Z M 313.5 110.25 L 282 148.5 L 250.5 110.25 L 219 148.5 L 187.5 110.25 L 156 148.5 L 124.5 110.25 L 93 148.5 L 61.5 110.25 L 30 148.5 L 0 112.125 L 0 118.125 L 30 154.5 L 61.5 116.25 L 93 154.5 L 124.5 116.25 L 156 154.5 L 187.5 116.25 L 219 154.5 L 250.5 116.25 L 282 154.5 L 313.5 116.25 L 345 154.5 L 375 118.125 L 375 112.125 L 345 148.5 Z M 313.5 110.25 " fill-opacity="1" fill-rule="nonzero"/></svg>