<svg width="392" height="100" viewBox="0 0 392 100" fill="none" xmlns="http://www.w3.org/2000/svg">
<g clip-path="url(#clip0_100_763)">
<mask id="mask0_100_763" style="mask-type:luminance" maskUnits="userSpaceOnUse" x="0" y="49" width="393" height="51">
<path d="M0.229004 49.3333H392.229V99.0521H0.229004V49.3333Z" fill="white"/>
</mask>
<g mask="url(#mask0_100_763)">
<path d="M342.87 74.5677V74.474C342.87 60.9531 353.828 49.9948 367.344 49.9948C380.865 49.9948 391.823 60.9531 391.823 74.474V74.5677C391.823 88.0885 380.865 99.0469 367.344 99.0469C353.828 99.0469 342.87 88.0885 342.87 74.5677ZM244.953 49.9948H195.995L244.953 99.0469V49.9948ZM147.042 99.0469V49.9948H98.0833V50.0938C98.0833 77.1302 120 99.0469 147.042 99.0469ZM0.171875 99.0469C27.2083 99.0469 49.125 77.1302 49.125 50.0938V49.9948H0.171875V99.0469Z" fill="#2FB7A1"/>
</g>
<mask id="mask1_100_763" style="mask-type:luminance" maskUnits="userSpaceOnUse" x="48" y="1" width="345" height="99">
<path d="M48.6665 1.05208H392.229V99.0521H48.6665V1.05208Z" fill="white"/>
</mask>
<g mask="url(#mask1_100_763)">
<path d="M342.87 99.0469H293.911V49.9948C320.948 49.9948 342.87 71.9167 342.87 98.9531V99.0469ZM391.823 49.9948V0.942703H342.87V1.03645C342.87 28.0781 364.786 49.9948 391.823 49.9948ZM293.906 49.9948V25.4687C280.391 25.4687 269.432 14.5104 269.432 0.989579V0.942703H244.953V1.03645C244.953 28.0729 266.875 49.9948 293.906 49.9948ZM171.521 49.9948C185.036 49.9948 195.995 39.0365 195.995 25.5156V25.4219C195.995 11.901 185.036 0.942703 171.521 0.942703C158 0.942703 147.042 11.901 147.042 25.4219V25.5156C147.042 39.0365 158 49.9948 171.521 49.9948ZM98.0833 49.9948V25.474C84.5625 25.474 73.6042 14.5104 73.6042 0.989579V0.942703H49.125V1.03645C49.125 28.0729 71.0417 49.9948 98.0833 49.9948Z" fill="#D64945"/>
</g>
<mask id="mask2_100_763" style="mask-type:luminance" maskUnits="userSpaceOnUse" x="0" y="1" width="344" height="99">
<path d="M0.229004 1.05208H343.333V99.0521H0.229004V1.05208Z" fill="white"/>
</mask>
<g mask="url(#mask2_100_763)">
<path d="M244.953 99.0469V49.9948L293.911 99.0469H244.953ZM195.995 0.942703V49.9948H244.953L195.995 0.942703ZM147.042 99.0469C174.078 99.0469 195.995 77.1302 195.995 50.0937V49.9948H147.042V99.0469ZM49.125 99.0469C76.1667 99.0469 98.0833 77.1302 98.0833 50.0937V49.9948H49.125V99.0469ZM342.865 1.03645V0.942703H318.391V0.989579C318.391 14.5104 307.427 25.4687 293.906 25.4687V49.9948C320.948 49.9948 342.865 28.0729 342.865 1.03645ZM147.042 0.942703C120 0.942703 98.0833 22.8594 98.0833 49.901V49.9948H147.042V0.942703ZM49.1302 49.9948V25.474C35.6094 25.474 24.6458 14.5104 24.6458 0.989579V0.942703H0.171875V1.03645C0.171875 28.0729 22.0885 49.9948 49.1302 49.9948Z" fill="#FFA327"/>
</g>
</g>
<defs>
<clipPath id="clip0_100_763">
<rect width="392" height="100" fill="white"/>
</clipPath>
</defs>
</svg>
