<svg width="98" height="98" viewBox="0 0 98 98" fill="none" xmlns="http://www.w3.org/2000/svg">
<g clip-path="url(#clip0_100_790)">
<path fill-rule="evenodd" clip-rule="evenodd" d="M92.0261 6.2771C92.0261 30.135 72.6854 49.4747 48.8275 49.4747C48.8275 25.6168 68.1682 6.2771 92.0261 6.2771ZM5.62891 92.6733C5.62891 68.8164 24.9696 49.4747 48.8275 49.4747C48.8275 73.3326 29.4868 92.6733 5.62891 92.6733ZM48.8275 49.4747C24.9696 49.4747 5.62891 30.135 5.62891 6.2771C29.4868 6.2771 48.8275 25.6168 48.8275 49.4747ZM48.8275 49.4747C72.6854 49.4747 92.0261 68.8164 92.0261 92.6733C68.1682 92.6733 48.8275 73.3326 48.8275 49.4747Z" fill="#D64945"/>
<path d="M48.7712 41.8368C49.0172 41.8389 49.2622 41.8531 49.5072 41.8797C49.7522 41.9062 49.9942 41.944 50.2351 41.995C50.476 42.0451 50.7149 42.1063 50.9497 42.1798C51.1845 42.2533 51.4152 42.3391 51.6418 42.435C51.8674 42.531 52.0889 42.6382 52.3054 42.7566C52.5207 42.874 52.731 43.0026 52.9342 43.1414C53.1373 43.2793 53.3344 43.4273 53.5232 43.5855C53.7121 43.7437 53.8917 43.9101 54.0642 44.0857C54.2368 44.2613 54.4001 44.445 54.5553 44.637C54.7094 44.8279 54.8544 45.0269 54.9891 45.2331C55.1239 45.4383 55.2484 45.6506 55.3627 45.8691C55.4761 46.0865 55.5792 46.3101 55.6721 46.5378C55.7639 46.7664 55.8446 46.9981 55.914 47.235C55.9834 47.4708 56.0406 47.7097 56.0865 47.9516C56.1325 48.1935 56.1661 48.4365 56.1886 48.6825C56.21 48.9275 56.2202 49.1725 56.2182 49.4185C56.2162 49.6646 56.2019 49.9106 56.1753 50.1556C56.1488 50.3996 56.111 50.6425 56.061 50.8834C56.01 51.1244 55.9487 51.3622 55.8752 51.597C55.8017 51.8318 55.717 52.0625 55.62 52.2891C55.524 52.5158 55.4169 52.7373 55.2995 52.9537C55.181 53.1691 55.0524 53.3794 54.9146 53.5825C54.7758 53.7857 54.6277 53.9817 54.4695 54.1705C54.3123 54.3594 54.1449 54.5401 53.9693 54.7126C53.7937 54.8851 53.61 55.0484 53.4191 55.2036C53.2272 55.3578 53.0281 55.5027 52.8229 55.6375C52.6167 55.7722 52.4044 55.8968 52.1869 56.0101C51.9685 56.1244 51.7449 56.2275 51.5173 56.3204C51.2886 56.4123 51.0569 56.4929 50.82 56.5623C50.5842 56.6318 50.3454 56.6889 50.1034 56.7349C49.8615 56.7808 49.6185 56.8145 49.3735 56.8369C49.1275 56.8584 48.8825 56.8686 48.6365 56.8665C48.3905 56.8635 48.1444 56.8492 47.9005 56.8237C47.6555 56.7971 47.4125 56.7583 47.1716 56.7083C46.9307 56.6583 46.6928 56.597 46.458 56.5235C46.2232 56.449 45.9925 56.3643 45.7659 56.2683C45.5393 56.1724 45.3177 56.0652 45.1024 55.9468C44.8859 55.8294 44.6767 55.7008 44.4725 55.5619C44.2694 55.4241 44.0734 55.2761 43.8845 55.1179C43.6956 54.9596 43.515 54.7932 43.3424 54.6176C43.1699 54.4421 43.0066 54.2583 42.8524 54.0664C42.6973 53.8755 42.5533 53.6764 42.4176 53.4702C42.2828 53.265 42.1583 53.0527 42.045 52.8343C41.9306 52.6168 41.8275 52.3933 41.7356 52.1656C41.6427 51.9369 41.5621 51.7052 41.4927 51.4684C41.4233 51.2326 41.3661 50.9937 41.3202 50.7518C41.2742 50.5098 41.2405 50.2669 41.2191 50.0208C41.1966 49.7758 41.1864 49.5308 41.1895 49.2848C41.1915 49.0378 41.2058 48.7928 41.2314 48.5478C41.2579 48.3038 41.2967 48.0608 41.3467 47.8199C41.3967 47.579 41.459 47.3411 41.5325 47.1064C41.606 46.8705 41.6907 46.6398 41.7867 46.4142C41.8826 46.1876 41.9898 45.9661 42.1082 45.7497C42.2256 45.5343 42.3543 45.324 42.4931 45.1208C42.6309 44.9177 42.78 44.7217 42.9372 44.5328C43.0954 44.344 43.2618 44.1633 43.4374 43.9908C43.613 43.8183 43.7967 43.6549 43.9886 43.4998C44.1805 43.3456 44.3786 43.2006 44.5848 43.0659C44.791 42.9311 45.0023 42.8066 45.2208 42.6923C45.4382 42.579 45.6618 42.4759 45.8904 42.383C46.1181 42.2911 46.3508 42.2104 46.5866 42.141C46.8225 42.0716 47.0613 42.0144 47.3033 41.9685C47.5452 41.9226 47.7892 41.8889 48.0342 41.8664C48.2792 41.845 48.5252 41.8348 48.7712 41.8368Z" fill="#FFA52C"/>
<mask id="mask0_100_790" style="mask-type:luminance" maskUnits="userSpaceOnUse" x="42" y="2" width="14" height="32">
<path d="M42.3359 2.38875H55.6639V33.1893H42.3359V2.38875Z" fill="white"/>
</mask>
<g mask="url(#mask0_100_790)">
<path d="M48.7375 2.83996L49.1877 2.38875L49.6287 2.82975C57.7382 10.9382 57.583 24.2417 49.2826 32.5421L48.8314 32.9933L48.3904 32.5523C40.2819 24.4439 40.4371 11.1404 48.7375 2.83996Z" fill="#FFA52C"/>
</g>
<path d="M48.3056 65.4773L48.7558 65.0271L49.1968 65.4671C57.3063 73.5766 57.1512 86.8791 48.8508 95.1805L48.3996 95.6307L47.9586 95.1907C39.8491 87.0812 40.0042 73.7787 48.3056 65.4773Z" fill="#FFA52C"/>
<path d="M97.5567 49.4308L98.0059 49.883L97.5639 50.322C89.4299 58.407 76.1274 58.212 67.8525 49.8861L67.4023 49.4339L67.8444 48.9939C75.9784 40.9099 89.2808 41.1049 97.5567 49.4308Z" fill="#FFA52C"/>
<path d="M30.1666 49.4308L30.6157 49.883L30.1737 50.322C22.0407 58.407 8.73825 58.212 0.46235 49.8861L0.0131836 49.4339L0.454183 48.9939C8.58818 40.9099 21.8907 41.1049 30.1666 49.4308Z" fill="#FFA52C"/>
</g>
<defs>
<clipPath id="clip0_100_790">
<rect width="98" height="98" fill="white"/>
</clipPath>
</defs>
</svg>
