<svg xmlns="http://www.w3.org/2000/svg" xmlns:xlink="http://www.w3.org/1999/xlink" width="500" zoomAndPan="magnify" viewBox="0 0 375 374.999991" height="500" preserveAspectRatio="xMidYMid meet" version="1.0"><defs><clipPath id="bfd4d92762"><path d="M 45.492188 72.574219 L 324.25 72.574219 L 324.25 307.316406 L 45.492188 307.316406 Z M 45.492188 72.574219 " clip-rule="nonzero"/></clipPath><clipPath id="276ceb81b9"><path d="M 62.742188 72.574219 L 306.992188 72.574219 C 311.566406 72.574219 315.953125 74.390625 319.1875 77.625 C 322.425781 80.863281 324.242188 85.25 324.242188 89.824219 L 324.242188 290.066406 C 324.242188 294.640625 322.425781 299.027344 319.1875 302.261719 C 315.953125 305.5 311.566406 307.316406 306.992188 307.316406 L 62.742188 307.316406 C 58.167969 307.316406 53.78125 305.5 50.546875 302.261719 C 47.308594 299.027344 45.492188 294.640625 45.492188 290.066406 L 45.492188 89.824219 C 45.492188 85.25 47.308594 80.863281 50.546875 77.625 C 53.78125 74.390625 58.167969 72.574219 62.742188 72.574219 Z M 62.742188 72.574219 " clip-rule="nonzero"/></clipPath><clipPath id="970461c291"><path d="M 0.492188 0.574219 L 279.25 0.574219 L 279.25 235.316406 L 0.492188 235.316406 Z M 0.492188 0.574219 " clip-rule="nonzero"/></clipPath><clipPath id="fe6d754396"><path d="M 17.742188 0.574219 L 261.992188 0.574219 C 266.566406 0.574219 270.953125 2.390625 274.1875 5.625 C 277.425781 8.863281 279.242188 13.25 279.242188 17.824219 L 279.242188 218.066406 C 279.242188 222.640625 277.425781 227.027344 274.1875 230.261719 C 270.953125 233.5 266.566406 235.316406 261.992188 235.316406 L 17.742188 235.316406 C 13.167969 235.316406 8.78125 233.5 5.546875 230.261719 C 2.308594 227.027344 0.492188 222.640625 0.492188 218.066406 L 0.492188 17.824219 C 0.492188 13.25 2.308594 8.863281 5.546875 5.625 C 8.78125 2.390625 13.167969 0.574219 17.742188 0.574219 Z M 17.742188 0.574219 " clip-rule="nonzero"/></clipPath><clipPath id="ceae2be797"><rect x="0" width="280" y="0" height="236"/></clipPath></defs><g clip-path="url(#bfd4d92762)"><g clip-path="url(#276ceb81b9)"><g transform="matrix(1, 0, 0, 1, 45, 72)"><g clip-path="url(#ceae2be797)"><g clip-path="url(#970461c291)"><g clip-path="url(#fe6d754396)"><path fill="#fcfcff" d="M 0.492188 0.574219 L 279.25 0.574219 L 279.25 235.316406 L 0.492188 235.316406 Z M 0.492188 0.574219 " fill-opacity="1" fill-rule="nonzero"/></g></g></g></g></g></g><path fill="#13c625" d="M 187.515625 0 C 83.949219 0 0 83.949219 0 187.515625 C 0 291.082031 83.949219 375.03125 187.515625 375.03125 C 291.082031 375.03125 375.03125 291.082031 375.03125 187.515625 C 375.03125 83.949219 291.074219 0 187.515625 0 Z M 316.464844 120.742188 L 160.210938 291.199219 C 156.394531 295.363281 149.867188 295.488281 145.898438 291.460938 L 58.832031 203.320312 C 55.507812 199.957031 55.539062 194.527344 58.90625 191.195312 L 84.964844 165.457031 C 88.832031 161.640625 95.070312 161.671875 98.898438 165.542969 L 151.707031 219.003906 L 276.195312 83.207031 C 279.164062 79.964844 284.203125 79.742188 287.445312 82.722656 L 315.953125 108.855469 C 319.375 111.996094 319.617188 117.316406 316.472656 120.75 Z M 316.464844 120.742188 " fill-opacity="1" fill-rule="nonzero"/></svg>