<svg xmlns="http://www.w3.org/2000/svg" xmlns:xlink="http://www.w3.org/1999/xlink" width="500" zoomAndPan="magnify" viewBox="0 0 375 374.999991" height="500" preserveAspectRatio="xMidYMid meet" version="1.0"><defs><clipPath id="49c0cf1ea6"><path d="M 52.640625 76.710938 L 320.675781 76.710938 L 320.675781 305.433594 L 52.640625 305.433594 Z M 52.640625 76.710938 " clip-rule="nonzero"/></clipPath><clipPath id="e8f89e3aa1"><path d="M 69.890625 76.710938 L 303.230469 76.710938 C 307.804688 76.710938 312.191406 78.527344 315.429688 81.765625 C 318.664062 85 320.480469 89.386719 320.480469 93.960938 L 320.480469 288.183594 C 320.480469 292.761719 318.664062 297.148438 315.429688 300.382812 C 312.191406 303.617188 307.804688 305.433594 303.230469 305.433594 L 69.890625 305.433594 C 65.3125 305.433594 60.925781 303.617188 57.691406 300.382812 C 54.457031 297.148438 52.640625 292.761719 52.640625 288.183594 L 52.640625 93.960938 C 52.640625 89.386719 54.457031 85 57.691406 81.765625 C 60.925781 78.527344 65.3125 76.710938 69.890625 76.710938 Z M 69.890625 76.710938 " clip-rule="nonzero"/></clipPath><clipPath id="a666182fc9"><path d="M 0.640625 0.710938 L 268.640625 0.710938 L 268.640625 229.433594 L 0.640625 229.433594 Z M 0.640625 0.710938 " clip-rule="nonzero"/></clipPath><clipPath id="761e15c291"><path d="M 17.890625 0.710938 L 251.230469 0.710938 C 255.804688 0.710938 260.191406 2.527344 263.429688 5.765625 C 266.664062 9 268.480469 13.386719 268.480469 17.960938 L 268.480469 212.183594 C 268.480469 216.761719 266.664062 221.148438 263.429688 224.382812 C 260.191406 227.617188 255.804688 229.433594 251.230469 229.433594 L 17.890625 229.433594 C 13.3125 229.433594 8.925781 227.617188 5.691406 224.382812 C 2.457031 221.148438 0.640625 216.761719 0.640625 212.183594 L 0.640625 17.960938 C 0.640625 13.386719 2.457031 9 5.691406 5.765625 C 8.925781 2.527344 13.3125 0.710938 17.890625 0.710938 Z M 17.890625 0.710938 " clip-rule="nonzero"/></clipPath><clipPath id="fca2fd6259"><rect x="0" width="269" y="0" height="230"/></clipPath></defs><g clip-path="url(#49c0cf1ea6)"><g clip-path="url(#e8f89e3aa1)"><g transform="matrix(1, 0, 0, 1, 52, 76)"><g clip-path="url(#fca2fd6259)"><g clip-path="url(#a666182fc9)"><g clip-path="url(#761e15c291)"><path fill="#030530" d="M 0.640625 0.710938 L 268.675781 0.710938 L 268.675781 229.433594 L 0.640625 229.433594 Z M 0.640625 0.710938 " fill-opacity="1" fill-rule="nonzero"/></g></g></g></g></g></g><path fill="#fcfcff" d="M 187.515625 0 C 83.949219 0 0 83.949219 0 187.515625 C 0 291.082031 83.949219 375.03125 187.515625 375.03125 C 291.082031 375.03125 375.03125 291.082031 375.03125 187.515625 C 375.03125 83.949219 291.074219 0 187.515625 0 Z M 316.464844 120.742188 L 160.210938 291.199219 C 156.394531 295.363281 149.867188 295.488281 145.898438 291.460938 L 58.832031 203.320312 C 55.507812 199.957031 55.539062 194.527344 58.90625 191.195312 L 84.964844 165.457031 C 88.832031 161.640625 95.070312 161.671875 98.898438 165.542969 L 151.707031 219.003906 L 276.195312 83.207031 C 279.164062 79.964844 284.203125 79.742188 287.445312 82.722656 L 315.953125 108.855469 C 319.375 111.996094 319.617188 117.316406 316.472656 120.75 Z M 316.464844 120.742188 " fill-opacity="1" fill-rule="nonzero"/></svg>