<svg width="10" height="10" viewBox="0 0 10 10" fill="none" xmlns="http://www.w3.org/2000/svg">
<g clip-path="url(#clip0_10_611)">
<path d="M9.16659 4.61677V5.00011C9.16607 5.89862 8.87513 6.77289 8.33714 7.49253C7.79916 8.21218 7.04295 8.73864 6.18132 8.9934C5.31968 9.24816 4.39878 9.21756 3.55595 8.90618C2.71312 8.5948 1.99352 8.01931 1.50449 7.26555C1.01545 6.51179 0.783165 5.62013 0.842284 4.72357C0.901403 3.82701 1.24875 2.97358 1.83254 2.29055C2.41632 1.60753 3.20525 1.13152 4.08166 0.9335C4.95808 0.735485 5.87503 0.82608 6.69575 1.19177M9.16659 1.66677L4.99992 5.83761L3.74992 4.58761" stroke="#85C7B4" stroke-width="2" stroke-linecap="round" stroke-linejoin="round"/>
</g>
<defs>
<clipPath id="clip0_10_611">
<rect width="10" height="10" fill="white"/>
</clipPath>
</defs>
</svg>
