<svg xmlns="http://www.w3.org/2000/svg" xmlns:xlink="http://www.w3.org/1999/xlink" width="500" zoomAndPan="magnify" viewBox="0 0 375 374.999991" height="500" preserveAspectRatio="xMidYMid meet" version="1.0"><path fill="#030530" d="M 187.515625 0 C 83.949219 0 0 83.949219 0 187.515625 C 0 291.082031 83.949219 375.03125 187.515625 375.03125 C 291.082031 375.03125 375.03125 291.082031 375.03125 187.515625 C 375.03125 83.949219 291.074219 0 187.515625 0 Z M 316.464844 120.742188 L 160.210938 291.199219 C 156.394531 295.363281 149.867188 295.488281 145.898438 291.460938 L 58.832031 203.320312 C 55.507812 199.957031 55.539062 194.527344 58.90625 191.195312 L 84.964844 165.457031 C 88.832031 161.640625 95.070312 161.671875 98.898438 165.542969 L 151.707031 219.003906 L 276.195312 83.207031 C 279.164062 79.964844 284.203125 79.742188 287.445312 82.722656 L 315.953125 108.855469 C 319.375 111.996094 319.617188 117.316406 316.472656 120.75 Z M 316.464844 120.742188 " fill-opacity="1" fill-rule="nonzero"/></svg>