<svg xmlns="http://www.w3.org/2000/svg" xmlns:xlink="http://www.w3.org/1999/xlink" width="50" zoomAndPan="magnify" viewBox="0 0 37.5 37.499999" height="50" preserveAspectRatio="xMidYMid meet" version="1.0"><defs><clipPath id="596483637e"><path d="M 1.851562 0 L 35.15625 0 L 35.15625 36.902344 L 1.851562 36.902344 Z M 1.851562 0 " clip-rule="nonzero"/></clipPath></defs><g clip-path="url(#596483637e)"><path fill="#f6f4f1" d="M 11.191406 35.121094 L 14.363281 35.121094 C 14.851562 35.121094 15.257812 34.71875 15.257812 34.226562 L 15.257812 33.535156 L 21.792969 33.535156 L 21.792969 34.226562 C 21.792969 34.71875 22.199219 35.121094 22.6875 35.121094 L 25.863281 35.121094 C 26.800781 35.121094 27.613281 35.4375 28.296875 36.074219 C 28.433594 36.207031 28.476562 36.394531 28.410156 36.570312 C 28.339844 36.742188 28.171875 36.855469 27.988281 36.855469 L 9.0625 36.855469 C 8.875 36.855469 8.714844 36.742188 8.648438 36.570312 C 8.578125 36.394531 8.621094 36.207031 8.757812 36.074219 C 9.4375 35.4375 10.253906 35.121094 11.191406 35.121094 Z M 21.414062 16.945312 L 20.765625 16.507812 C 20.671875 16.445312 20.640625 16.328125 20.683594 16.226562 L 24.382812 7.851562 L 30.289062 0.847656 C 30.742188 0.222656 31.804688 -0.144531 32.539062 0.347656 C 33.273438 0.839844 33.339844 1.964844 32.933594 2.617188 L 28.699219 10.746094 L 22.359375 17.347656 C 22.28125 17.429688 22.160156 17.441406 22.066406 17.378906 Z M 13.65625 20.457031 C 14.023438 20.46875 14.628906 20.441406 14.882812 20.378906 C 16.457031 19.964844 16.121094 18 19.152344 17.375 C 19.417969 17.320312 19.664062 17.3125 19.894531 17.457031 L 21.285156 18.347656 C 21.5625 18.519531 21.847656 18.828125 21.757812 19.140625 C 19.527344 26.804688 11.972656 21.703125 12.644531 20.394531 C 12.75 20.191406 13.113281 20.433594 13.65625 20.457031 Z M 34.027344 7.957031 C 34.671875 7.957031 35.199219 8.488281 35.199219 9.132812 L 35.199219 30.898438 C 35.199219 31.542969 34.671875 32.074219 34.027344 32.074219 L 3.027344 32.074219 C 2.382812 32.074219 1.851562 31.542969 1.851562 30.898438 L 1.851562 9.132812 C 1.851562 8.488281 2.382812 7.957031 3.027344 7.957031 L 22.765625 7.957031 L 21.988281 9.71875 L 4.355469 9.71875 C 3.894531 9.71875 3.519531 10.089844 3.519531 10.546875 L 3.519531 26.234375 C 3.519531 26.488281 3.734375 26.703125 3.988281 26.703125 L 33.066406 26.703125 C 33.320312 26.703125 33.527344 26.488281 33.527344 26.234375 L 33.527344 10.1875 C 33.527344 9.925781 33.320312 9.71875 33.066406 9.71875 L 30.851562 9.71875 L 31.769531 7.957031 Z M 18.527344 29.183594 C 18.9375 29.183594 19.269531 29.515625 19.269531 29.925781 C 19.269531 30.332031 18.9375 30.667969 18.527344 30.667969 C 18.117188 30.667969 17.785156 30.332031 17.785156 29.925781 C 17.785156 29.515625 18.117188 29.183594 18.527344 29.183594 Z M 18.527344 29.183594 " fill-opacity="1" fill-rule="evenodd"/></g></svg>