<svg xmlns="http://www.w3.org/2000/svg" xmlns:xlink="http://www.w3.org/1999/xlink" width="50" zoomAndPan="magnify" viewBox="0 0 37.5 37.499999" height="50" preserveAspectRatio="xMidYMid meet" version="1.0"><defs><clipPath id="8cf55b2785"><path d="M 14 7 L 37.007812 7 L 37.007812 35.75 L 14 35.75 Z M 14 7 " clip-rule="nonzero"/></clipPath><clipPath id="f9b58b40b8"><path d="M 0 0.964844 L 26 0.964844 L 26 9 L 0 9 Z M 0 0.964844 " clip-rule="nonzero"/></clipPath></defs><path fill="#f6f4f1" d="M 12.433594 26.667969 L 12.433594 24.820312 C 12.433594 24.800781 12.433594 24.78125 12.433594 24.757812 C 12.433594 24.734375 12.433594 24.707031 12.433594 24.683594 L 12.433594 18.992188 L 1.238281 18.992188 C 0.554688 18.992188 0 19.542969 0 20.230469 L 0 26.417969 C 0 26.554688 0.113281 26.667969 0.25 26.667969 Z M 7.253906 21.550781 C 7.957031 21.550781 8.523438 22.117188 8.523438 22.816406 C 8.523438 23.515625 7.953125 24.082031 7.253906 24.082031 C 6.554688 24.082031 5.988281 23.515625 5.988281 22.816406 C 5.988281 22.117188 6.554688 21.550781 7.253906 21.550781 Z M 3.578125 21.550781 C 4.277344 21.550781 4.84375 22.117188 4.84375 22.816406 C 4.84375 23.515625 4.277344 24.082031 3.578125 24.082031 C 2.878906 24.082031 2.3125 23.515625 2.3125 22.816406 C 2.3125 22.117188 2.878906 21.550781 3.578125 21.550781 Z M 3.578125 21.550781 " fill-opacity="1" fill-rule="nonzero"/><path fill="#f6f4f1" d="M 1.238281 9.976562 C 0.554688 9.976562 0 10.53125 0 11.214844 L 0 17.40625 C 0 17.542969 0.113281 17.652344 0.25 17.652344 L 12.433594 17.652344 L 12.433594 12.34375 C 12.433594 12.324219 12.433594 12.300781 12.433594 12.28125 C 12.433594 12.253906 12.433594 12.230469 12.433594 12.207031 C 12.433594 11.433594 12.640625 10.675781 13.035156 9.976562 Z M 3.578125 15.070312 C 2.878906 15.070312 2.3125 14.503906 2.3125 13.804688 C 2.3125 13.101562 2.878906 12.535156 3.578125 12.535156 C 4.277344 12.535156 4.84375 13.101562 4.84375 13.804688 C 4.84375 14.503906 4.277344 15.070312 3.578125 15.070312 Z M 7.253906 15.070312 C 6.554688 15.070312 5.988281 14.503906 5.988281 13.804688 C 5.988281 13.101562 6.554688 12.535156 7.253906 12.535156 C 7.953125 12.535156 8.523438 13.101562 8.523438 13.804688 C 8.523438 14.503906 7.953125 15.070312 7.253906 15.070312 Z M 7.253906 15.070312 " fill-opacity="1" fill-rule="nonzero"/><g clip-path="url(#8cf55b2785)"><path fill="#f6f4f1" d="M 15.453125 33.375 C 16.0625 33.925781 16.914062 34.410156 17.976562 34.816406 C 20.046875 35.605469 22.773438 36.039062 25.664062 36.039062 C 28.554688 36.039062 31.285156 35.605469 33.351562 34.816406 C 34.417969 34.410156 35.265625 33.925781 35.875 33.375 C 36.808594 32.53125 37.007812 31.6875 37.007812 31.128906 L 37.007812 24.820312 C 37.007812 24.804688 37.003906 24.785156 37.003906 24.769531 C 37.003906 24.738281 37.007812 24.710938 37.007812 24.683594 L 37.007812 12.34375 C 37.007812 12.324219 37.003906 12.308594 37.003906 12.289062 C 37.003906 12.261719 37.007812 12.234375 37.007812 12.207031 C 37.007812 11.648438 36.808594 10.804688 35.875 9.960938 C 35.265625 9.410156 34.417969 8.925781 33.351562 8.519531 C 31.285156 7.730469 28.554688 7.296875 25.664062 7.296875 C 22.773438 7.296875 20.046875 7.730469 17.976562 8.519531 C 16.914062 8.925781 16.0625 9.410156 15.453125 9.960938 C 14.519531 10.804688 14.324219 11.648438 14.324219 12.207031 C 14.324219 12.234375 14.324219 12.261719 14.324219 12.289062 C 14.324219 12.308594 14.324219 12.324219 14.324219 12.34375 L 14.324219 24.683594 C 14.324219 24.710938 14.324219 24.738281 14.324219 24.769531 C 14.324219 24.785156 14.324219 24.804688 14.324219 24.820312 L 14.324219 31.128906 C 14.324219 31.6875 14.519531 32.53125 15.453125 33.375 Z M 18.652344 10.285156 C 20.507812 9.578125 23 9.1875 25.664062 9.1875 C 28.328125 9.1875 30.820312 9.578125 32.679688 10.285156 C 34.160156 10.851562 35.117188 11.605469 35.117188 12.207031 C 35.117188 12.808594 34.160156 13.5625 32.679688 14.128906 C 30.820312 14.835938 28.328125 15.226562 25.664062 15.226562 C 23 15.226562 20.507812 14.835938 18.652344 14.128906 C 17.171875 13.5625 16.214844 12.808594 16.214844 12.207031 C 16.214844 11.605469 17.171875 10.851562 18.652344 10.285156 Z M 16.214844 18.378906 L 16.214844 15.027344 C 16.710938 15.347656 17.300781 15.636719 17.976562 15.894531 C 20.046875 16.683594 22.773438 17.117188 25.664062 17.117188 C 28.554688 17.117188 31.285156 16.683594 33.351562 15.894531 C 34.03125 15.636719 34.617188 15.347656 35.117188 15.027344 L 35.117188 18.652344 C 35.117188 19.253906 34.160156 20.007812 32.679688 20.570312 C 30.820312 21.28125 28.328125 21.671875 25.664062 21.671875 C 23 21.671875 20.507812 21.28125 18.648438 20.570312 C 17.171875 20.007812 16.214844 19.253906 16.214844 18.652344 Z M 16.214844 21.472656 C 16.710938 21.789062 17.300781 22.078125 17.976562 22.339844 C 20.046875 23.128906 22.773438 23.5625 25.664062 23.5625 C 28.554688 23.5625 31.285156 23.128906 33.351562 22.339844 C 34.03125 22.078125 34.617188 21.789062 35.117188 21.472656 L 35.117188 24.683594 C 35.117188 25.285156 34.160156 26.039062 32.679688 26.605469 C 30.820312 27.3125 28.328125 27.703125 25.664062 27.703125 C 23 27.703125 20.507812 27.3125 18.648438 26.605469 C 17.171875 26.039062 16.214844 25.285156 16.214844 24.683594 Z M 16.214844 27.503906 C 16.710938 27.824219 17.300781 28.113281 17.976562 28.371094 C 20.046875 29.160156 22.773438 29.59375 25.664062 29.59375 C 28.554688 29.59375 31.285156 29.160156 33.351562 28.371094 C 34.03125 28.113281 34.617188 27.824219 35.117188 27.503906 L 35.117188 31.128906 C 35.117188 31.730469 34.160156 32.484375 32.679688 33.050781 C 30.820312 33.757812 28.328125 34.148438 25.664062 34.148438 C 23 34.148438 20.507812 33.757812 18.648438 33.050781 C 17.171875 32.484375 16.214844 31.730469 16.214844 31.128906 Z M 16.214844 27.503906 " fill-opacity="1" fill-rule="nonzero"/></g><g clip-path="url(#f9b58b40b8)"><path fill="#f6f4f1" d="M 14.933594 7.296875 C 14.792969 7.296875 14.683594 7.1875 14.683594 7.050781 L 14.683594 2.976562 C 14.683594 2.839844 14.792969 2.726562 14.933594 2.726562 L 23.976562 2.726562 C 24.113281 2.726562 24.222656 2.839844 24.222656 2.976562 L 24.222656 5.441406 C 24.699219 5.417969 25.179688 5.40625 25.664062 5.40625 L 25.664062 2.203125 C 25.664062 1.519531 25.109375 0.964844 24.425781 0.964844 L 1.238281 0.964844 C 0.554688 0.964844 0 1.519531 0 2.203125 L 0 8.390625 C 0 8.527344 0.113281 8.640625 0.25 8.640625 L 14.097656 8.640625 C 14.125 8.613281 14.15625 8.585938 14.1875 8.558594 C 14.703125 8.09375 15.332031 7.671875 16.066406 7.296875 Z M 3.578125 6.054688 C 2.878906 6.054688 2.3125 5.488281 2.3125 4.789062 C 2.3125 4.089844 2.878906 3.523438 3.578125 3.523438 C 4.277344 3.523438 4.84375 4.089844 4.84375 4.789062 C 4.84375 5.488281 4.277344 6.054688 3.578125 6.054688 Z M 7.253906 6.054688 C 6.554688 6.054688 5.988281 5.488281 5.988281 4.789062 C 5.988281 4.089844 6.554688 3.523438 7.253906 3.523438 C 7.953125 3.523438 8.523438 4.089844 8.523438 4.789062 C 8.523438 5.488281 7.953125 6.054688 7.253906 6.054688 Z M 7.253906 6.054688 " fill-opacity="1" fill-rule="nonzero"/></g></svg>