<svg xmlns="http://www.w3.org/2000/svg" xmlns:xlink="http://www.w3.org/1999/xlink" width="50" zoomAndPan="magnify" viewBox="0 0 37.5 37.499999" height="50" preserveAspectRatio="xMidYMid meet" version="1.0"><defs><clipPath id="7ca91810ac"><path d="M 0 1.648438 L 37 1.648438 L 37 35.695312 L 0 35.695312 Z M 0 1.648438 " clip-rule="nonzero"/></clipPath></defs><g clip-path="url(#7ca91810ac)"><path fill="#f6f4f1" d="M 36.003906 35.347656 L 1.003906 35.347656 C 0.457031 35.347656 0.0117188 34.90625 0.0117188 34.359375 L 0.0117188 2.636719 C 0.0117188 2.089844 0.457031 1.648438 1.003906 1.648438 L 36.003906 1.648438 C 36.550781 1.648438 36.992188 2.09375 36.992188 2.636719 L 36.992188 34.359375 C 36.992188 34.90625 36.550781 35.347656 36.003906 35.347656 Z M 1.992188 33.367188 L 35.011719 33.367188 L 35.011719 3.628906 L 1.992188 3.628906 Z M 1.992188 33.367188 " fill-opacity="1" fill-rule="nonzero"/></g><path fill="#f6f4f1" d="M 33.222656 9.59375 L 3.785156 9.59375 C 3.238281 9.59375 2.792969 9.152344 2.792969 8.605469 C 2.792969 8.058594 3.238281 7.613281 3.785156 7.613281 L 33.222656 7.613281 C 33.769531 7.613281 34.214844 8.058594 34.214844 8.605469 C 34.214844 9.152344 33.769531 9.59375 33.222656 9.59375 Z M 33.222656 9.59375 " fill-opacity="1" fill-rule="nonzero"/><path fill="#f6f4f1" d="M 33.222656 6.714844 L 28.707031 6.714844 C 28.160156 6.714844 27.714844 6.269531 27.714844 5.722656 C 27.714844 5.175781 28.160156 4.734375 28.707031 4.734375 L 33.222656 4.734375 C 33.769531 4.734375 34.214844 5.175781 34.214844 5.722656 C 34.214844 6.269531 33.769531 6.714844 33.222656 6.714844 Z M 33.222656 6.714844 " fill-opacity="1" fill-rule="nonzero"/><path fill="#f6f4f1" d="M 6.160156 6.714844 L 3.785156 6.714844 C 3.238281 6.714844 2.792969 6.269531 2.792969 5.722656 C 2.792969 5.175781 3.238281 4.734375 3.785156 4.734375 L 6.160156 4.734375 C 6.707031 4.734375 7.148438 5.175781 7.148438 5.722656 C 7.148438 6.269531 6.707031 6.714844 6.160156 6.714844 Z M 6.160156 6.714844 " fill-opacity="1" fill-rule="nonzero"/><path fill="#f6f4f1" d="M 12.691406 27.378906 C 12.441406 27.378906 12.1875 27.28125 11.992188 27.089844 L 6.917969 22.011719 C 6.53125 21.625 6.53125 21 6.917969 20.613281 L 11.992188 15.535156 C 12.378906 15.148438 13.007812 15.148438 13.394531 15.535156 C 13.78125 15.921875 13.78125 16.550781 13.394531 16.9375 L 9.015625 21.3125 L 13.394531 25.6875 C 13.78125 26.074219 13.78125 26.703125 13.394531 27.089844 C 13.199219 27.28125 12.945312 27.378906 12.691406 27.378906 Z M 12.691406 27.378906 " fill-opacity="1" fill-rule="nonzero"/><path fill="#f6f4f1" d="M 24.3125 27.714844 C 24.058594 27.714844 23.804688 27.621094 23.613281 27.425781 C 23.226562 27.039062 23.226562 26.414062 23.613281 26.027344 L 27.988281 21.648438 L 23.613281 17.273438 C 23.226562 16.886719 23.226562 16.257812 23.613281 15.871094 C 24 15.484375 24.625 15.484375 25.015625 15.871094 L 30.089844 20.949219 C 30.476562 21.335938 30.476562 21.964844 30.089844 22.351562 L 25.015625 27.425781 C 24.820312 27.621094 24.566406 27.714844 24.3125 27.714844 Z M 24.3125 27.714844 " fill-opacity="1" fill-rule="nonzero"/><path fill="#f6f4f1" d="M 16.136719 28.96875 C 16.027344 28.96875 15.910156 28.949219 15.800781 28.910156 C 15.285156 28.722656 15.019531 28.152344 15.207031 27.640625 L 19.9375 14.644531 C 20.125 14.128906 20.691406 13.867188 21.207031 14.050781 C 21.722656 14.238281 21.984375 14.808594 21.800781 15.320312 L 17.070312 28.316406 C 16.921875 28.71875 16.542969 28.96875 16.136719 28.96875 Z M 16.136719 28.96875 " fill-opacity="1" fill-rule="nonzero"/></svg>