<svg xmlns="http://www.w3.org/2000/svg" xmlns:xlink="http://www.w3.org/1999/xlink" width="50" zoomAndPan="magnify" viewBox="0 0 37.5 37.499999" height="50" preserveAspectRatio="xMidYMid meet" version="1.0"><defs><clipPath id="f26a2d720c"><path d="M 24 24 L 37 24 L 37 36.289062 L 24 36.289062 Z M 24 24 " clip-rule="nonzero"/></clipPath><clipPath id="df9c0ef69a"><path d="M 1 0.761719 L 29 0.761719 L 29 29 L 1 29 Z M 1 0.761719 " clip-rule="nonzero"/></clipPath></defs><path fill="#f6f4f1" d="M 7.859375 13.964844 L 8.996094 13.964844 C 9.390625 13.964844 9.710938 14.285156 9.710938 14.679688 L 9.710938 22.195312 C 8.679688 21.460938 7.800781 20.507812 7.144531 19.386719 L 7.144531 14.679688 C 7.144531 14.285156 7.46875 13.964844 7.859375 13.964844 Z M 7.859375 13.964844 " fill-opacity="1" fill-rule="evenodd"/><path fill="#f6f4f1" d="M 11.839844 10.898438 L 12.976562 10.894531 C 13.371094 10.894531 13.691406 11.21875 13.691406 11.609375 L 13.691406 23.808594 C 12.792969 23.671875 11.929688 23.40625 11.125 23.027344 L 11.125 11.613281 C 11.125 11.21875 11.445312 10.898438 11.839844 10.898438 Z M 11.839844 10.898438 " fill-opacity="1" fill-rule="evenodd"/><path fill="#f6f4f1" d="M 15.820312 12.238281 L 16.957031 12.238281 C 17.351562 12.238281 17.671875 12.5625 17.671875 12.953125 L 17.671875 23.523438 C 17 23.722656 16.304688 23.851562 15.59375 23.894531 L 15.105469 23.90625 L 15.105469 12.953125 C 15.105469 12.5625 15.425781 12.238281 15.820312 12.238281 Z M 15.820312 12.238281 " fill-opacity="1" fill-rule="evenodd"/><path fill="#f6f4f1" d="M 19.804688 9.007812 L 20.941406 9.007812 C 21.332031 9.007812 21.65625 9.332031 21.65625 9.722656 L 21.65625 21.078125 L 21.515625 21.222656 C 20.804688 21.9375 19.980469 22.523438 19.085938 22.964844 L 19.085938 9.722656 C 19.085938 9.328125 19.410156 9.007812 19.804688 9.007812 Z M 19.804688 9.007812 " fill-opacity="1" fill-rule="evenodd"/><path fill="#f6f4f1" d="M 27.972656 24.578125 L 26.460938 23.066406 C 26.4375 23.101562 26.414062 23.136719 26.386719 23.167969 C 26 23.699219 25.546875 24.226562 25.042969 24.730469 C 24.578125 25.199219 24.113281 25.605469 23.636719 25.960938 C 23.605469 25.992188 23.578125 26.011719 23.542969 26.035156 L 25.027344 27.53125 Z M 27.972656 24.578125 " fill-opacity="1" fill-rule="nonzero"/><g clip-path="url(#f26a2d720c)"><path fill="#f6f4f1" d="M 35.5 29.933594 L 29.957031 24.375 C 29.636719 24.054688 29.082031 24.054688 28.765625 24.375 L 24.824219 28.328125 C 24.496094 28.65625 24.492188 29.191406 24.824219 29.523438 L 30.460938 35.175781 C 31.148438 35.863281 32.058594 36.242188 33.03125 36.242188 C 33.046875 36.242188 33.0625 36.242188 33.082031 36.242188 C 34.070312 36.230469 34.988281 35.824219 35.671875 35.101562 C 37.007812 33.6875 36.929688 31.367188 35.5 29.933594 Z M 35.5 29.933594 Z M 32.308594 31.875 C 32.78125 31.402344 33.550781 31.402344 34.023438 31.875 C 34.5 32.347656 34.5 33.117188 34.023438 33.589844 C 33.550781 34.0625 32.78125 34.0625 32.308594 33.589844 C 31.835938 33.117188 31.835938 32.347656 32.308594 31.875 Z M 32.308594 31.875 " fill-opacity="1" fill-rule="nonzero"/></g><g clip-path="url(#df9c0ef69a)"><path fill="#f6f4f1" d="M 24.75 4.996094 C 21.988281 2.226562 18.152344 0.765625 14.234375 0.992188 C 10.886719 1.183594 7.734375 2.605469 5.351562 4.992188 C 0.00390625 10.355469 0.00390625 19.082031 5.351562 24.445312 C 9.363281 28.46875 15.441406 29.589844 20.589844 27.296875 C 29.332031 23.378906 31.570312 11.863281 24.75 4.996094 Z M 5.585938 18.90625 C 3.875 15.03125 4.734375 10.402344 7.726562 7.390625 C 9.804688 5.300781 12.695312 4.203125 15.652344 4.371094 C 18.171875 4.515625 20.550781 5.585938 22.347656 7.386719 C 26.378906 11.429688 26.378906 18.007812 22.347656 22.050781 C 20.5625 23.839844 18.191406 24.910156 15.664062 25.066406 C 15.457031 25.078125 15.253906 25.085938 15.050781 25.085938 C 10.949219 25.085938 7.214844 22.644531 5.585938 18.90625 Z M 5.585938 18.90625 " fill-opacity="1" fill-rule="nonzero"/></g></svg>