<svg xmlns="http://www.w3.org/2000/svg" xmlns:xlink="http://www.w3.org/1999/xlink" width="50" zoomAndPan="magnify" viewBox="0 0 37.5 37.499999" height="50" preserveAspectRatio="xMidYMid meet" version="1.0"><defs><clipPath id="f9fdc915ac"><path d="M 1.851562 0 L 35.15625 0 L 35.15625 37.007812 L 1.851562 37.007812 Z M 1.851562 0 " clip-rule="nonzero"/></clipPath></defs><g clip-path="url(#f9fdc915ac)"><path fill="#f6f4f1" d="M 7.976562 0.0078125 L 29.039062 0.0078125 C 29.335938 0.0078125 29.578125 0.25 29.578125 0.542969 L 29.578125 1.824219 L 7.441406 1.824219 L 7.441406 0.542969 C 7.441406 0.25 7.683594 0.0078125 7.976562 0.0078125 Z M 35.160156 12.382812 L 30.550781 12.382812 L 30.550781 15.15625 C 30.550781 16.421875 31.589844 17.460938 32.855469 17.460938 C 34.121094 17.460938 35.160156 16.421875 35.160156 15.15625 Z M 29.421875 12.382812 L 24.8125 12.382812 L 24.8125 15.15625 C 24.8125 16.421875 25.847656 17.460938 27.117188 17.460938 C 28.382812 17.460938 29.421875 16.421875 29.421875 15.15625 Z M 23.683594 12.382812 L 19.070312 12.382812 L 19.070312 15.15625 C 19.070312 16.421875 20.109375 17.460938 21.378906 17.460938 C 22.644531 17.460938 23.683594 16.421875 23.683594 15.15625 Z M 17.945312 12.382812 L 13.332031 12.382812 L 13.332031 15.15625 C 13.332031 16.421875 14.371094 17.460938 15.636719 17.460938 C 16.90625 17.460938 17.945312 16.421875 17.945312 15.15625 Z M 12.207031 12.382812 L 7.59375 12.382812 L 7.59375 15.15625 C 7.59375 16.421875 8.632812 17.460938 9.898438 17.460938 C 11.167969 17.460938 12.207031 16.421875 12.207031 15.15625 Z M 6.46875 12.382812 L 1.851562 12.382812 L 1.855469 15.15625 C 1.855469 16.421875 2.894531 17.460938 4.160156 17.460938 C 5.429688 17.460938 6.464844 16.421875 6.464844 15.15625 L 6.464844 12.382812 Z M 2.230469 11.257812 L 6.632812 11.257812 L 9.597656 2.949219 L 7.066406 2.949219 C 6.8125 2.949219 6.609375 3.070312 6.492188 3.289062 Z M 7.828125 11.257812 L 10.792969 2.949219 L 13.78125 2.949219 L 12.296875 11.257812 Z M 13.441406 11.257812 L 17.945312 11.257812 L 17.945312 2.949219 L 14.921875 2.949219 Z M 19.070312 11.257812 L 23.574219 11.257812 L 22.09375 2.949219 L 19.070312 2.949219 Z M 24.71875 11.257812 L 23.238281 2.949219 L 26.222656 2.949219 L 29.1875 11.257812 Z M 30.382812 11.257812 L 34.785156 11.257812 L 30.523438 3.289062 C 30.40625 3.070312 30.203125 2.949219 29.953125 2.949219 L 27.417969 2.949219 Z M 32.5625 18.574219 L 32.5625 35.878906 C 32.5625 36.605469 31.972656 37.195312 31.246094 37.195312 L 5.769531 37.195312 C 5.042969 37.195312 4.453125 36.605469 4.453125 35.878906 L 4.453125 18.574219 C 5.519531 18.484375 6.460938 17.898438 7.03125 17.035156 C 8.390625 19.101562 11.40625 19.101562 12.769531 17.035156 C 14.128906 19.101562 17.148438 19.101562 18.507812 17.035156 C 19.871094 19.101562 22.886719 19.101562 24.246094 17.035156 C 25.609375 19.101562 28.625 19.101562 29.984375 17.035156 C 30.554688 17.898438 31.496094 18.484375 32.5625 18.574219 Z M 18.507812 22.171875 C 17.054688 22.171875 15.875 23.335938 15.875 24.773438 C 15.875 26.207031 17.054688 27.371094 18.507812 27.371094 C 19.960938 27.371094 21.140625 26.207031 21.140625 24.773438 C 21.140625 23.335938 19.960938 22.171875 18.507812 22.171875 Z M 27.464844 32.4375 C 21.464844 32.4375 15.550781 32.4375 9.550781 32.4375 C 9.386719 32.4375 9.25 32.574219 9.25 32.738281 L 9.25 34.238281 C 9.25 34.402344 9.386719 34.539062 9.550781 34.539062 L 27.464844 34.539062 C 27.632812 34.539062 27.765625 34.402344 27.765625 34.238281 L 27.765625 32.738281 C 27.765625 32.574219 27.632812 32.4375 27.464844 32.4375 Z M 22.855469 30.28125 L 27.464844 30.28125 C 27.632812 30.28125 27.765625 30.148438 27.765625 29.980469 L 27.765625 20.152344 C 27.765625 19.984375 27.632812 19.851562 27.464844 19.851562 L 9.550781 19.851562 C 9.386719 19.851562 9.25 19.984375 9.25 20.152344 L 9.25 29.980469 C 9.25 30.144531 9.386719 30.28125 9.550781 30.28125 L 14.164062 30.28125 C 14.296875 29.105469 14.984375 28.089844 15.957031 27.507812 C 17.398438 28.828125 19.617188 28.828125 21.058594 27.507812 C 22.03125 28.089844 22.71875 29.105469 22.855469 30.28125 Z M 22.855469 30.28125 " fill-opacity="1" fill-rule="evenodd"/></g></svg>