<svg xmlns="http://www.w3.org/2000/svg" xmlns:xlink="http://www.w3.org/1999/xlink" width="50" zoomAndPan="magnify" viewBox="0 0 37.5 37.499999" height="50" preserveAspectRatio="xMidYMid meet" version="1.0"><defs><clipPath id="d7f7a501e9"><path d="M 0 0.421875 L 37 0.421875 L 37 20 L 0 20 Z M 0 0.421875 " clip-rule="nonzero"/></clipPath><clipPath id="6832a986c7"><path d="M 0 17 L 37 17 L 37 35.945312 L 0 35.945312 Z M 0 17 " clip-rule="nonzero"/></clipPath></defs><g clip-path="url(#d7f7a501e9)"><path fill="#f6f4f1" d="M 0.714844 18.007812 C 0.820312 8.289062 8.757812 0.417969 18.5 0.417969 C 23.328125 0.417969 27.710938 2.355469 30.921875 5.488281 L 32.9375 3.472656 C 33.066406 3.34375 33.242188 3.265625 33.441406 3.265625 C 33.765625 3.265625 34.039062 3.480469 34.125 3.78125 L 36.96875 13.742188 C 36.988281 13.800781 36.996094 13.867188 36.996094 13.9375 C 36.996094 14.328125 36.679688 14.648438 36.285156 14.648438 C 36.21875 14.648438 36.152344 14.636719 36.089844 14.621094 L 26.128906 11.773438 C 25.832031 11.691406 25.613281 11.417969 25.613281 11.089844 C 25.613281 10.894531 25.691406 10.714844 25.820312 10.585938 L 27.890625 8.519531 C 25.457031 6.15625 22.152344 4.6875 18.5 4.6875 C 11.046875 4.6875 4.984375 10.753906 4.984375 18.203125 C 4.984375 18.558594 4.996094 18.90625 5.023438 19.253906 Z M 0.714844 18.007812 " fill-opacity="1" fill-rule="nonzero"/></g><g clip-path="url(#6832a986c7)"><path fill="#f6f4f1" d="M 36.285156 18.402344 C 36.179688 28.117188 28.242188 35.988281 18.5 35.988281 C 13.671875 35.988281 9.289062 34.054688 6.082031 30.917969 L 4.0625 32.933594 C 3.933594 33.0625 3.757812 33.144531 3.558594 33.144531 C 3.234375 33.144531 2.960938 32.925781 2.875 32.628906 L 0.03125 22.667969 C 0.0117188 22.605469 0.00390625 22.539062 0.00390625 22.472656 C 0.00390625 22.078125 0.324219 21.761719 0.714844 21.761719 C 0.785156 21.761719 0.847656 21.769531 0.910156 21.789062 L 10.871094 24.632812 C 11.167969 24.71875 11.386719 24.992188 11.386719 25.316406 C 11.386719 25.515625 11.308594 25.691406 11.179688 25.820312 L 9.109375 27.890625 C 11.542969 30.253906 14.851562 31.71875 18.5 31.71875 C 25.953125 31.71875 32.019531 25.65625 32.019531 18.203125 C 32.019531 17.851562 32.003906 17.5 31.976562 17.15625 Z M 36.285156 18.402344 " fill-opacity="1" fill-rule="nonzero"/></g><path fill="#f6f4f1" d="M 17.078125 25.195312 L 10.734375 18.855469 L 12.746094 16.84375 L 17.078125 21.171875 L 24.253906 13.996094 L 26.265625 16.007812 Z M 17.078125 25.195312 " fill-opacity="1" fill-rule="nonzero"/></svg>