<svg xmlns="http://www.w3.org/2000/svg" xmlns:xlink="http://www.w3.org/1999/xlink" width="500" zoomAndPan="magnify" viewBox="0 0 375 374.999991" height="500" preserveAspectRatio="xMidYMid meet" version="1.0"><path fill="#000000" d="M 327.65625 308.503906 L 47.34375 308.503906 C 45.792969 308.5 44.246094 308.421875 42.703125 308.269531 C 41.160156 308.113281 39.625 307.882812 38.105469 307.578125 C 36.585938 307.273438 35.082031 306.894531 33.597656 306.441406 C 32.113281 305.988281 30.65625 305.464844 29.222656 304.871094 C 27.792969 304.273438 26.390625 303.609375 25.023438 302.878906 C 23.65625 302.144531 22.328125 301.347656 21.039062 300.484375 C 19.75 299.621094 18.507812 298.699219 17.308594 297.710938 C 16.113281 296.726562 14.964844 295.6875 13.867188 294.589844 C 12.773438 293.492188 11.734375 292.34375 10.75 291.140625 C 9.765625 289.941406 8.84375 288.699219 7.984375 287.40625 C 7.121094 286.117188 6.324219 284.789062 5.59375 283.421875 C 4.863281 282.050781 4.203125 280.652344 3.609375 279.21875 C 3.015625 277.785156 2.492188 276.328125 2.042969 274.84375 C 1.59375 273.359375 1.214844 271.855469 0.914062 270.332031 C 0.609375 268.8125 0.382812 267.28125 0.230469 265.734375 C 0.078125 264.191406 0 262.644531 0 261.09375 L 0 103.324219 C 0 101.777344 0.078125 100.230469 0.234375 98.6875 C 0.386719 97.144531 0.613281 95.613281 0.917969 94.09375 C 1.222656 92.574219 1.597656 91.070312 2.050781 89.589844 C 2.5 88.105469 3.023438 86.648438 3.617188 85.214844 C 4.210938 83.785156 4.875 82.386719 5.605469 81.019531 C 6.335938 79.652344 7.132812 78.324219 7.996094 77.035156 C 8.855469 75.746094 9.777344 74.503906 10.761719 73.304688 C 11.746094 72.105469 12.785156 70.960938 13.882812 69.863281 C 14.976562 68.769531 16.125 67.726562 17.324219 66.746094 C 18.519531 65.761719 19.765625 64.839844 21.054688 63.976562 C 22.339844 63.113281 23.667969 62.320312 25.035156 61.585938 C 26.402344 60.855469 27.800781 60.195312 29.234375 59.597656 C 30.664062 59.003906 32.125 58.484375 33.605469 58.03125 C 35.089844 57.582031 36.589844 57.203125 38.109375 56.898438 C 39.632812 56.597656 41.164062 56.367188 42.703125 56.214844 C 44.246094 56.0625 45.792969 55.984375 47.34375 55.980469 L 113.972656 55.980469 C 114.414062 55.980469 114.847656 56.023438 115.28125 56.109375 C 115.710938 56.195312 116.128906 56.324219 116.535156 56.492188 C 116.941406 56.660156 117.328125 56.867188 117.695312 57.109375 C 118.058594 57.355469 118.398438 57.632812 118.707031 57.945312 C 119.019531 58.253906 119.296875 58.59375 119.542969 58.957031 C 119.785156 59.324219 119.992188 59.710938 120.160156 60.117188 C 120.328125 60.523438 120.457031 60.941406 120.539062 61.371094 C 120.625 61.804688 120.667969 62.238281 120.667969 62.679688 C 120.667969 63.117188 120.625 63.554688 120.539062 63.984375 C 120.457031 64.417969 120.328125 64.835938 120.160156 65.242188 C 119.992188 65.648438 119.785156 66.035156 119.542969 66.398438 C 119.296875 66.765625 119.019531 67.101562 118.707031 67.414062 C 118.398438 67.722656 118.058594 68.003906 117.695312 68.246094 C 117.328125 68.492188 116.941406 68.695312 116.535156 68.867188 C 116.128906 69.035156 115.710938 69.160156 115.28125 69.246094 C 114.847656 69.332031 114.414062 69.375 113.972656 69.375 L 47.34375 69.375 C 46.230469 69.375 45.125 69.433594 44.015625 69.542969 C 42.910156 69.652344 41.8125 69.816406 40.722656 70.035156 C 39.632812 70.25 38.554688 70.523438 37.492188 70.84375 C 36.429688 71.167969 35.382812 71.542969 34.355469 71.96875 C 33.332031 72.394531 32.328125 72.871094 31.347656 73.394531 C 30.367188 73.917969 29.414062 74.492188 28.492188 75.109375 C 27.566406 75.726562 26.675781 76.386719 25.816406 77.09375 C 24.957031 77.796875 24.132812 78.542969 23.347656 79.332031 C 22.5625 80.117188 21.816406 80.9375 21.109375 81.796875 C 20.40625 82.65625 19.746094 83.546875 19.125 84.472656 C 18.507812 85.398438 17.9375 86.347656 17.414062 87.328125 C 16.886719 88.308594 16.414062 89.3125 15.988281 90.339844 C 15.5625 91.367188 15.1875 92.410156 14.863281 93.476562 C 14.539062 94.539062 14.269531 95.613281 14.050781 96.703125 C 13.832031 97.796875 13.667969 98.894531 13.558594 100 C 13.449219 101.105469 13.394531 102.214844 13.394531 103.324219 L 13.394531 261.09375 C 13.394531 262.207031 13.449219 263.316406 13.558594 264.421875 C 13.667969 265.53125 13.828125 266.628906 14.046875 267.722656 C 14.261719 268.8125 14.53125 269.890625 14.855469 270.957031 C 15.179688 272.019531 15.550781 273.066406 15.976562 274.09375 C 16.402344 275.125 16.878906 276.128906 17.402344 277.109375 C 17.925781 278.089844 18.496094 279.042969 19.113281 279.96875 C 19.730469 280.894531 20.394531 281.789062 21.097656 282.648438 C 21.804688 283.511719 22.550781 284.335938 23.335938 285.121094 C 24.121094 285.910156 24.945312 286.65625 25.804688 287.363281 C 26.664062 288.070312 27.554688 288.734375 28.476562 289.351562 C 29.402344 289.972656 30.355469 290.546875 31.335938 291.070312 C 32.316406 291.597656 33.320312 292.074219 34.347656 292.5 C 35.375 292.929688 36.421875 293.304688 37.484375 293.628906 C 38.546875 293.953125 39.625 294.226562 40.71875 294.445312 C 41.808594 294.664062 42.90625 294.828125 44.015625 294.941406 C 45.121094 295.050781 46.230469 295.109375 47.34375 295.113281 L 327.65625 295.113281 C 328.769531 295.109375 329.878906 295.050781 330.984375 294.941406 C 332.09375 294.828125 333.191406 294.664062 334.28125 294.445312 C 335.375 294.226562 336.453125 293.953125 337.515625 293.628906 C 338.578125 293.304688 339.625 292.929688 340.652344 292.5 C 341.679688 292.074219 342.683594 291.597656 343.664062 291.070312 C 344.644531 290.546875 345.597656 289.972656 346.523438 289.351562 C 347.445312 288.734375 348.335938 288.070312 349.195312 287.363281 C 350.054688 286.65625 350.878906 285.910156 351.664062 285.121094 C 352.449219 284.335938 353.195312 283.511719 353.902344 282.648438 C 354.605469 281.789062 355.269531 280.894531 355.886719 279.96875 C 356.503906 279.042969 357.074219 278.089844 357.597656 277.109375 C 358.121094 276.128906 358.597656 275.125 359.023438 274.09375 C 359.449219 273.066406 359.820312 272.019531 360.144531 270.957031 C 360.46875 269.890625 360.738281 268.8125 360.953125 267.722656 C 361.171875 266.628906 361.332031 265.53125 361.441406 264.421875 C 361.550781 263.316406 361.605469 262.207031 361.605469 261.09375 L 361.605469 103.324219 C 361.605469 102.214844 361.550781 101.105469 361.441406 100 C 361.332031 98.894531 361.167969 97.796875 360.949219 96.703125 C 360.730469 95.613281 360.460938 94.539062 360.136719 93.476562 C 359.8125 92.410156 359.4375 91.367188 359.011719 90.339844 C 358.585938 89.3125 358.113281 88.308594 357.585938 87.328125 C 357.0625 86.347656 356.492188 85.398438 355.875 84.472656 C 355.253906 83.546875 354.59375 82.65625 353.890625 81.796875 C 353.183594 80.9375 352.4375 80.117188 351.652344 79.332031 C 350.867188 78.542969 350.042969 77.796875 349.183594 77.09375 C 348.324219 76.386719 347.433594 75.726562 346.507812 75.109375 C 345.585938 74.492188 344.632812 73.917969 343.652344 73.394531 C 342.671875 72.871094 341.667969 72.394531 340.644531 71.96875 C 339.617188 71.542969 338.570312 71.167969 337.507812 70.84375 C 336.445312 70.523438 335.367188 70.25 334.277344 70.035156 C 333.1875 69.816406 332.089844 69.652344 330.984375 69.542969 C 329.875 69.433594 328.769531 69.375 327.65625 69.375 L 260.960938 69.375 C 260.519531 69.375 260.085938 69.332031 259.652344 69.246094 C 259.222656 69.160156 258.804688 69.035156 258.398438 68.867188 C 257.992188 68.695312 257.605469 68.492188 257.238281 68.246094 C 256.875 68.003906 256.535156 67.722656 256.226562 67.414062 C 255.914062 67.101562 255.636719 66.765625 255.390625 66.398438 C 255.148438 66.035156 254.941406 65.648438 254.773438 65.242188 C 254.605469 64.835938 254.476562 64.417969 254.390625 63.984375 C 254.304688 63.554688 254.261719 63.117188 254.261719 62.679688 C 254.261719 62.238281 254.304688 61.804688 254.390625 61.371094 C 254.476562 60.941406 254.605469 60.523438 254.773438 60.117188 C 254.941406 59.710938 255.148438 59.324219 255.390625 58.957031 C 255.636719 58.59375 255.914062 58.253906 256.226562 57.945312 C 256.535156 57.632812 256.875 57.355469 257.238281 57.109375 C 257.605469 56.867188 257.992188 56.660156 258.398438 56.492188 C 258.804688 56.324219 259.222656 56.195312 259.652344 56.109375 C 260.085938 56.023438 260.519531 55.980469 260.960938 55.980469 L 327.65625 55.980469 C 329.207031 55.984375 330.753906 56.0625 332.296875 56.214844 C 333.835938 56.367188 335.367188 56.597656 336.890625 56.898438 C 338.410156 57.203125 339.910156 57.582031 341.394531 58.03125 C 342.875 58.484375 344.335938 59.003906 345.765625 59.597656 C 347.199219 60.195312 348.597656 60.855469 349.964844 61.585938 C 351.332031 62.320312 352.660156 63.113281 353.945312 63.976562 C 355.234375 64.839844 356.480469 65.761719 357.675781 66.746094 C 358.875 67.726562 360.023438 68.769531 361.117188 69.863281 C 362.214844 70.960938 363.253906 72.105469 364.238281 73.304688 C 365.222656 74.503906 366.144531 75.746094 367.003906 77.035156 C 367.867188 78.324219 368.664062 79.652344 369.394531 81.019531 C 370.125 82.386719 370.789062 83.785156 371.382812 85.214844 C 371.976562 86.648438 372.5 88.105469 372.949219 89.589844 C 373.402344 91.070312 373.777344 92.574219 374.082031 94.09375 C 374.386719 95.613281 374.613281 97.144531 374.765625 98.6875 C 374.921875 100.230469 375 101.777344 375 103.324219 L 375 261.09375 C 375 262.644531 374.921875 264.191406 374.769531 265.734375 C 374.617188 267.28125 374.390625 268.8125 374.085938 270.332031 C 373.785156 271.855469 373.40625 273.359375 372.957031 274.84375 C 372.507812 276.328125 371.984375 277.785156 371.390625 279.21875 C 370.796875 280.652344 370.136719 282.050781 369.40625 283.421875 C 368.675781 284.789062 367.878906 286.117188 367.015625 287.40625 C 366.15625 288.699219 365.234375 289.941406 364.25 291.144531 C 363.265625 292.34375 362.226562 293.492188 361.132812 294.589844 C 360.035156 295.6875 358.886719 296.726562 357.691406 297.710938 C 356.492188 298.699219 355.25 299.621094 353.960938 300.484375 C 352.671875 301.347656 351.34375 302.144531 349.976562 302.878906 C 348.609375 303.609375 347.207031 304.273438 345.777344 304.871094 C 344.34375 305.464844 342.886719 305.988281 341.402344 306.441406 C 339.917969 306.894531 338.414062 307.273438 336.894531 307.578125 C 335.375 307.882812 333.839844 308.113281 332.296875 308.269531 C 330.753906 308.421875 329.207031 308.5 327.65625 308.503906 Z M 327.65625 308.503906 " fill-opacity="1" fill-rule="nonzero"/><path fill="#000000" d="M 368.304688 247.566406 L 6.695312 247.566406 C 6.257812 247.566406 5.820312 247.523438 5.390625 247.4375 C 4.957031 247.351562 4.539062 247.226562 4.132812 247.058594 C 3.726562 246.890625 3.339844 246.683594 2.976562 246.4375 C 2.609375 246.195312 2.273438 245.917969 1.960938 245.605469 C 1.652344 245.292969 1.371094 244.957031 1.128906 244.589844 C 0.882812 244.226562 0.679688 243.839844 0.507812 243.433594 C 0.339844 243.027344 0.214844 242.609375 0.128906 242.175781 C 0.0429688 241.746094 0 241.308594 0 240.871094 C 0 240.429688 0.0429688 239.996094 0.128906 239.5625 C 0.214844 239.132812 0.339844 238.714844 0.507812 238.308594 C 0.679688 237.902344 0.882812 237.515625 1.128906 237.148438 C 1.371094 236.785156 1.652344 236.445312 1.960938 236.136719 C 2.273438 235.824219 2.609375 235.546875 2.976562 235.300781 C 3.339844 235.058594 3.726562 234.851562 4.132812 234.683594 C 4.539062 234.515625 4.957031 234.386719 5.390625 234.304688 C 5.820312 234.21875 6.257812 234.175781 6.695312 234.175781 L 368.304688 234.175781 C 368.742188 234.175781 369.179688 234.21875 369.609375 234.304688 C 370.042969 234.386719 370.460938 234.515625 370.867188 234.683594 C 371.273438 234.851562 371.660156 235.058594 372.023438 235.300781 C 372.390625 235.546875 372.726562 235.824219 373.039062 236.136719 C 373.347656 236.445312 373.628906 236.785156 373.871094 237.148438 C 374.117188 237.515625 374.320312 237.902344 374.488281 238.308594 C 374.660156 238.714844 374.785156 239.132812 374.871094 239.5625 C 374.957031 239.996094 375 240.429688 375 240.871094 C 375 241.308594 374.957031 241.746094 374.871094 242.175781 C 374.785156 242.609375 374.660156 243.027344 374.488281 243.433594 C 374.320312 243.839844 374.117188 244.226562 373.871094 244.589844 C 373.628906 244.957031 373.347656 245.292969 373.039062 245.605469 C 372.726562 245.917969 372.390625 246.195312 372.023438 246.4375 C 371.660156 246.683594 371.273438 246.890625 370.867188 247.058594 C 370.460938 247.226562 370.042969 247.351562 369.609375 247.4375 C 369.179688 247.523438 368.742188 247.566406 368.304688 247.566406 Z M 368.304688 247.566406 " fill-opacity="1" fill-rule="nonzero"/><path fill="#000000" d="M 74.898438 277.023438 L 46.875 277.023438 C 46.433594 277.023438 46 276.980469 45.570312 276.898438 C 45.136719 276.8125 44.71875 276.683594 44.3125 276.515625 C 43.90625 276.347656 43.519531 276.140625 43.15625 275.898438 C 42.789062 275.652344 42.449219 275.375 42.140625 275.0625 C 41.828125 274.753906 41.550781 274.414062 41.308594 274.050781 C 41.0625 273.683594 40.855469 273.296875 40.6875 272.890625 C 40.519531 272.484375 40.394531 272.066406 40.308594 271.636719 C 40.222656 271.203125 40.179688 270.769531 40.179688 270.328125 C 40.179688 269.890625 40.222656 269.453125 40.308594 269.023438 C 40.394531 268.589844 40.519531 268.171875 40.6875 267.765625 C 40.855469 267.359375 41.0625 266.972656 41.308594 266.609375 C 41.550781 266.242188 41.828125 265.90625 42.140625 265.59375 C 42.449219 265.28125 42.789062 265.003906 43.15625 264.761719 C 43.519531 264.515625 43.90625 264.308594 44.3125 264.140625 C 44.71875 263.972656 45.136719 263.847656 45.570312 263.761719 C 46 263.675781 46.433594 263.632812 46.875 263.632812 L 74.898438 263.632812 C 75.335938 263.632812 75.773438 263.675781 76.203125 263.761719 C 76.632812 263.847656 77.054688 263.972656 77.460938 264.140625 C 77.867188 264.308594 78.25 264.515625 78.617188 264.761719 C 78.984375 265.003906 79.320312 265.28125 79.632812 265.59375 C 79.941406 265.90625 80.21875 266.242188 80.464844 266.609375 C 80.710938 266.972656 80.914062 267.359375 81.082031 267.765625 C 81.25 268.171875 81.378906 268.589844 81.464844 269.023438 C 81.550781 269.453125 81.59375 269.890625 81.59375 270.328125 C 81.59375 270.769531 81.550781 271.203125 81.464844 271.636719 C 81.378906 272.066406 81.25 272.484375 81.082031 272.890625 C 80.914062 273.296875 80.710938 273.683594 80.464844 274.050781 C 80.21875 274.414062 79.941406 274.753906 79.632812 275.0625 C 79.320312 275.375 78.984375 275.652344 78.617188 275.898438 C 78.25 276.140625 77.867188 276.347656 77.460938 276.515625 C 77.054688 276.683594 76.632812 276.8125 76.203125 276.898438 C 75.773438 276.980469 75.335938 277.023438 74.898438 277.023438 Z M 74.898438 277.023438 " fill-opacity="1" fill-rule="nonzero"/><path fill="#000000" d="M 259.925781 375 L 115.074219 375 C 114.375 375 113.675781 374.964844 112.976562 374.898438 C 112.28125 374.828125 111.585938 374.726562 110.902344 374.589844 C 110.214844 374.453125 109.535156 374.28125 108.863281 374.078125 C 108.191406 373.875 107.535156 373.640625 106.886719 373.371094 C 106.238281 373.101562 105.605469 372.804688 104.988281 372.472656 C 104.371094 372.144531 103.769531 371.78125 103.1875 371.394531 C 102.601562 371.003906 102.039062 370.585938 101.5 370.140625 C 100.957031 369.699219 100.4375 369.226562 99.941406 368.730469 C 99.449219 368.238281 98.976562 367.71875 98.53125 367.175781 C 98.089844 366.632812 97.671875 366.070312 97.28125 365.488281 C 96.890625 364.90625 96.53125 364.304688 96.203125 363.6875 C 95.871094 363.070312 95.570312 362.4375 95.304688 361.789062 C 95.035156 361.140625 94.800781 360.484375 94.597656 359.8125 C 94.394531 359.140625 94.222656 358.460938 94.085938 357.773438 C 93.949219 357.085938 93.847656 356.394531 93.777344 355.695312 C 93.710938 355 93.675781 354.300781 93.675781 353.597656 C 93.675781 352.898438 93.710938 352.199219 93.777344 351.5 C 93.847656 350.804688 93.949219 350.113281 94.085938 349.425781 C 94.222656 348.738281 94.394531 348.058594 94.597656 347.386719 C 94.800781 346.714844 95.035156 346.058594 95.304688 345.410156 C 95.570312 344.761719 95.871094 344.128906 96.203125 343.511719 C 96.53125 342.894531 96.890625 342.292969 97.28125 341.710938 C 97.671875 341.128906 98.089844 340.566406 98.53125 340.023438 C 98.976562 339.480469 99.449219 338.960938 99.941406 338.46875 C 100.4375 337.972656 100.957031 337.5 101.5 337.058594 C 102.039062 336.613281 102.601562 336.195312 103.1875 335.804688 C 103.769531 335.417969 104.371094 335.054688 104.988281 334.726562 C 105.605469 334.394531 106.238281 334.097656 106.886719 333.828125 C 107.535156 333.558594 108.191406 333.324219 108.863281 333.121094 C 109.535156 332.917969 110.214844 332.746094 110.902344 332.609375 C 111.585938 332.472656 112.28125 332.371094 112.976562 332.300781 C 113.675781 332.234375 114.375 332.199219 115.074219 332.199219 L 259.925781 332.199219 C 260.625 332.199219 261.324219 332.234375 262.023438 332.300781 C 262.71875 332.371094 263.414062 332.472656 264.097656 332.609375 C 264.785156 332.746094 265.464844 332.917969 266.136719 333.121094 C 266.808594 333.324219 267.464844 333.558594 268.113281 333.828125 C 268.761719 334.097656 269.394531 334.394531 270.011719 334.726562 C 270.628906 335.054688 271.230469 335.417969 271.8125 335.804688 C 272.398438 336.195312 272.960938 336.613281 273.5 337.058594 C 274.042969 337.5 274.5625 337.972656 275.058594 338.46875 C 275.550781 338.960938 276.023438 339.480469 276.46875 340.023438 C 276.910156 340.566406 277.328125 341.128906 277.71875 341.710938 C 278.109375 342.292969 278.46875 342.894531 278.796875 343.511719 C 279.128906 344.128906 279.429688 344.761719 279.695312 345.410156 C 279.964844 346.058594 280.199219 346.714844 280.402344 347.386719 C 280.605469 348.058594 280.777344 348.738281 280.914062 349.425781 C 281.050781 350.113281 281.152344 350.804688 281.222656 351.5 C 281.289062 352.199219 281.324219 352.898438 281.324219 353.597656 C 281.324219 354.300781 281.289062 355 281.222656 355.695312 C 281.152344 356.394531 281.050781 357.085938 280.914062 357.773438 C 280.777344 358.460938 280.605469 359.140625 280.402344 359.8125 C 280.199219 360.484375 279.964844 361.140625 279.695312 361.789062 C 279.429688 362.4375 279.128906 363.070312 278.796875 363.6875 C 278.46875 364.304688 278.109375 364.90625 277.71875 365.488281 C 277.328125 366.070312 276.910156 366.632812 276.46875 367.175781 C 276.023438 367.71875 275.550781 368.238281 275.058594 368.730469 C 274.5625 369.226562 274.042969 369.699219 273.5 370.140625 C 272.960938 370.585938 272.398438 371.003906 271.8125 371.394531 C 271.230469 371.78125 270.628906 372.144531 270.011719 372.472656 C 269.394531 372.804688 268.761719 373.101562 268.113281 373.371094 C 267.464844 373.640625 266.808594 373.875 266.136719 374.078125 C 265.464844 374.28125 264.785156 374.453125 264.097656 374.589844 C 263.414062 374.726562 262.71875 374.828125 262.023438 374.898438 C 261.324219 374.964844 260.625 375 259.925781 375 Z M 115.074219 345.59375 C 114.550781 345.59375 114.027344 345.644531 113.511719 345.746094 C 112.996094 345.847656 112.496094 346 112.011719 346.203125 C 111.523438 346.402344 111.0625 346.648438 110.625 346.941406 C 110.191406 347.234375 109.785156 347.566406 109.414062 347.9375 C 109.042969 348.308594 108.710938 348.714844 108.417969 349.152344 C 108.125 349.585938 107.878906 350.050781 107.675781 350.535156 C 107.476562 351.019531 107.324219 351.523438 107.222656 352.039062 C 107.117188 352.554688 107.066406 353.074219 107.066406 353.597656 C 107.066406 354.125 107.117188 354.644531 107.222656 355.160156 C 107.324219 355.675781 107.476562 356.179688 107.675781 356.664062 C 107.878906 357.148438 108.125 357.609375 108.417969 358.046875 C 108.710938 358.484375 109.042969 358.890625 109.414062 359.261719 C 109.785156 359.632812 110.191406 359.964844 110.625 360.257812 C 111.0625 360.550781 111.523438 360.796875 112.011719 360.996094 C 112.496094 361.199219 112.996094 361.351562 113.511719 361.453125 C 114.027344 361.554688 114.550781 361.605469 115.074219 361.605469 L 259.925781 361.605469 C 260.449219 361.605469 260.972656 361.554688 261.488281 361.453125 C 262.003906 361.351562 262.503906 361.199219 262.988281 360.996094 C 263.476562 360.796875 263.9375 360.550781 264.375 360.257812 C 264.808594 359.964844 265.214844 359.632812 265.585938 359.261719 C 265.957031 358.890625 266.289062 358.484375 266.582031 358.046875 C 266.875 357.609375 267.121094 357.148438 267.324219 356.664062 C 267.523438 356.179688 267.675781 355.675781 267.777344 355.160156 C 267.878906 354.644531 267.933594 354.125 267.933594 353.597656 C 267.933594 353.074219 267.878906 352.554688 267.777344 352.039062 C 267.675781 351.523438 267.523438 351.019531 267.324219 350.535156 C 267.121094 350.050781 266.875 349.585938 266.582031 349.152344 C 266.289062 348.714844 265.957031 348.308594 265.585938 347.9375 C 265.214844 347.566406 264.808594 347.234375 264.375 346.941406 C 263.9375 346.648438 263.476562 346.402344 262.988281 346.203125 C 262.503906 346 262.003906 345.847656 261.488281 345.746094 C 260.972656 345.644531 260.449219 345.59375 259.925781 345.59375 Z M 115.074219 345.59375 " fill-opacity="1" fill-rule="nonzero"/><path fill="#000000" d="M 131.128906 345.59375 C 130.457031 345.59375 129.800781 345.492188 129.15625 345.296875 C 128.515625 345.097656 127.917969 344.8125 127.359375 344.433594 C 126.804688 344.054688 126.316406 343.605469 125.898438 343.082031 C 125.476562 342.554688 125.144531 341.980469 124.898438 341.355469 C 124.648438 340.730469 124.5 340.082031 124.449219 339.414062 C 124.398438 338.742188 124.445312 338.082031 124.59375 337.425781 C 124.738281 336.769531 124.980469 336.148438 125.3125 335.566406 C 125.648438 334.984375 126.0625 334.460938 126.550781 334.003906 C 127.777344 333.074219 128.9375 332.074219 130.035156 330.996094 C 131.136719 329.921875 132.164062 328.785156 133.121094 327.582031 C 134.078125 326.378906 134.957031 325.121094 135.753906 323.808594 C 136.554688 322.496094 137.269531 321.136719 137.898438 319.734375 C 138.527344 318.335938 139.070312 316.898438 139.519531 315.429688 C 139.96875 313.960938 140.328125 312.46875 140.589844 310.953125 C 140.855469 309.4375 141.023438 307.914062 141.097656 306.378906 C 141.171875 304.84375 141.148438 303.308594 141.03125 301.777344 C 141.03125 301.335938 141.074219 300.902344 141.160156 300.472656 C 141.246094 300.039062 141.371094 299.621094 141.539062 299.214844 C 141.707031 298.808594 141.914062 298.421875 142.160156 298.058594 C 142.402344 297.691406 142.679688 297.351562 142.992188 297.042969 C 143.300781 296.730469 143.640625 296.453125 144.007812 296.210938 C 144.371094 295.964844 144.757812 295.757812 145.164062 295.589844 C 145.570312 295.421875 145.988281 295.296875 146.421875 295.210938 C 146.851562 295.125 147.285156 295.082031 147.726562 295.082031 C 148.167969 295.082031 148.601562 295.125 149.03125 295.210938 C 149.464844 295.296875 149.882812 295.421875 150.289062 295.589844 C 150.695312 295.757812 151.082031 295.964844 151.445312 296.210938 C 151.8125 296.453125 152.152344 296.730469 152.460938 297.042969 C 152.773438 297.351562 153.050781 297.691406 153.292969 298.058594 C 153.539062 298.421875 153.746094 298.808594 153.914062 299.214844 C 154.082031 299.621094 154.207031 300.039062 154.292969 300.472656 C 154.378906 300.902344 154.421875 301.335938 154.421875 301.777344 C 154.546875 303.769531 154.554688 305.757812 154.4375 307.75 C 154.324219 309.742188 154.089844 311.71875 153.738281 313.683594 C 153.382812 315.648438 152.914062 317.582031 152.328125 319.488281 C 151.738281 321.394531 151.039062 323.261719 150.226562 325.082031 C 149.417969 326.90625 148.5 328.671875 147.472656 330.382812 C 146.449219 332.09375 145.324219 333.738281 144.101562 335.3125 C 142.878906 336.890625 141.5625 338.386719 140.160156 339.804688 C 138.753906 341.222656 137.269531 342.550781 135.707031 343.789062 C 135.085938 344.367188 134.378906 344.8125 133.589844 345.125 C 132.800781 345.4375 131.980469 345.59375 131.128906 345.59375 Z M 131.128906 345.59375 " fill-opacity="1" fill-rule="nonzero"/><path fill="#000000" d="M 243.871094 345.59375 C 243.019531 345.59375 242.199219 345.4375 241.410156 345.125 C 240.617188 344.8125 239.914062 344.367188 239.292969 343.785156 C 237.730469 342.546875 236.246094 341.21875 234.839844 339.800781 C 233.4375 338.382812 232.125 336.886719 230.902344 335.3125 C 229.679688 333.734375 228.554688 332.09375 227.527344 330.378906 C 226.503906 328.667969 225.585938 326.902344 224.773438 325.082031 C 223.960938 323.257812 223.261719 321.394531 222.675781 319.488281 C 222.089844 317.582031 221.621094 315.644531 221.265625 313.683594 C 220.914062 311.71875 220.679688 309.742188 220.5625 307.75 C 220.449219 305.757812 220.453125 303.769531 220.582031 301.777344 C 220.582031 301.335938 220.625 300.902344 220.710938 300.472656 C 220.792969 300.039062 220.921875 299.621094 221.089844 299.214844 C 221.257812 298.808594 221.464844 298.421875 221.707031 298.058594 C 221.953125 297.691406 222.230469 297.351562 222.542969 297.042969 C 222.851562 296.730469 223.191406 296.453125 223.554688 296.210938 C 223.921875 295.964844 224.308594 295.757812 224.714844 295.589844 C 225.121094 295.421875 225.539062 295.296875 225.96875 295.210938 C 226.402344 295.125 226.835938 295.082031 227.277344 295.082031 C 227.714844 295.082031 228.152344 295.125 228.582031 295.210938 C 229.015625 295.296875 229.433594 295.421875 229.839844 295.589844 C 230.246094 295.757812 230.632812 295.964844 230.996094 296.210938 C 231.363281 296.453125 231.699219 296.730469 232.011719 297.042969 C 232.324219 297.351562 232.601562 297.691406 232.84375 298.058594 C 233.089844 298.421875 233.296875 298.808594 233.464844 299.214844 C 233.632812 299.621094 233.757812 300.039062 233.84375 300.472656 C 233.929688 300.902344 233.972656 301.335938 233.972656 301.777344 C 233.855469 303.308594 233.832031 304.84375 233.90625 306.378906 C 233.980469 307.914062 234.148438 309.4375 234.414062 310.953125 C 234.675781 312.46875 235.035156 313.960938 235.484375 315.429688 C 235.933594 316.898438 236.476562 318.335938 237.105469 319.734375 C 237.734375 321.136719 238.449219 322.496094 239.25 323.808594 C 240.046875 325.121094 240.925781 326.378906 241.882812 327.582031 C 242.839844 328.785156 243.867188 329.921875 244.964844 330.996094 C 246.066406 332.074219 247.226562 333.074219 248.453125 334.003906 C 248.941406 334.460938 249.355469 334.984375 249.6875 335.566406 C 250.023438 336.148438 250.265625 336.769531 250.410156 337.425781 C 250.558594 338.082031 250.605469 338.742188 250.554688 339.414062 C 250.503906 340.082031 250.351562 340.730469 250.105469 341.355469 C 249.859375 341.980469 249.527344 342.554688 249.105469 343.082031 C 248.6875 343.605469 248.199219 344.054688 247.644531 344.433594 C 247.085938 344.8125 246.488281 345.097656 245.84375 345.296875 C 245.203125 345.492188 244.546875 345.59375 243.875 345.59375 Z M 243.871094 345.59375 " fill-opacity="1" fill-rule="nonzero"/><path fill="#000000" d="M 187.472656 165.285156 C 185.613281 165.285156 183.757812 165.195312 181.90625 165.011719 C 180.054688 164.828125 178.21875 164.558594 176.394531 164.195312 C 174.570312 163.832031 172.765625 163.378906 170.988281 162.839844 C 169.207031 162.300781 167.457031 161.675781 165.738281 160.964844 C 164.019531 160.25 162.339844 159.457031 160.699219 158.582031 C 159.058594 157.703125 157.464844 156.75 155.921875 155.714844 C 154.375 154.683594 152.882812 153.574219 151.441406 152.394531 C 150.003906 151.214844 148.628906 149.96875 147.3125 148.652344 C 146 147.335938 144.75 145.960938 143.570312 144.523438 C 142.390625 143.085938 141.285156 141.59375 140.25 140.046875 C 139.214844 138.5 138.261719 136.90625 137.382812 135.265625 C 136.507812 133.625 135.714844 131.945312 135 130.226562 C 134.289062 128.507812 133.664062 126.757812 133.125 124.980469 C 132.582031 123.199219 132.132812 121.398438 131.769531 119.574219 C 131.40625 117.75 131.132812 115.910156 130.953125 114.058594 C 130.769531 112.207031 130.679688 110.351562 130.679688 108.492188 C 130.679688 106.632812 130.769531 104.777344 130.953125 102.925781 C 131.132812 101.074219 131.40625 99.238281 131.769531 97.414062 C 132.132812 95.589844 132.582031 93.785156 133.125 92.007812 C 133.664062 90.226562 134.289062 88.476562 135 86.757812 C 135.714844 85.039062 136.507812 83.359375 137.382812 81.71875 C 138.261719 80.078125 139.214844 78.484375 140.25 76.941406 C 141.285156 75.394531 142.390625 73.902344 143.570312 72.464844 C 144.75 71.023438 146 69.648438 147.3125 68.332031 C 148.628906 67.019531 150.003906 65.769531 151.441406 64.589844 C 152.882812 63.410156 154.375 62.304688 155.921875 61.269531 C 157.464844 60.238281 159.058594 59.28125 160.699219 58.40625 C 162.339844 57.527344 164.019531 56.734375 165.738281 56.023438 C 167.457031 55.3125 169.207031 54.683594 170.988281 54.144531 C 172.765625 53.605469 174.570312 53.152344 176.394531 52.792969 C 178.21875 52.429688 180.054688 52.15625 181.90625 51.972656 C 183.757812 51.792969 185.613281 51.699219 187.472656 51.699219 C 189.335938 51.699219 191.191406 51.792969 193.039062 51.972656 C 194.890625 52.15625 196.730469 52.429688 198.554688 52.792969 C 200.378906 53.15625 202.179688 53.605469 203.960938 54.148438 C 205.738281 54.6875 207.488281 55.3125 209.207031 56.023438 C 210.925781 56.738281 212.605469 57.53125 214.246094 58.410156 C 215.886719 59.285156 217.480469 60.242188 219.027344 61.273438 C 220.574219 62.308594 222.066406 63.414062 223.503906 64.59375 C 224.941406 65.773438 226.316406 67.023438 227.632812 68.339844 C 228.949219 69.652344 230.195312 71.03125 231.375 72.46875 C 232.554688 73.90625 233.660156 75.398438 234.695312 76.945312 C 235.726562 78.492188 236.683594 80.085938 237.558594 81.726562 C 238.4375 83.367188 239.230469 85.046875 239.941406 86.765625 C 240.652344 88.484375 241.28125 90.234375 241.820312 92.011719 C 242.359375 93.792969 242.808594 95.59375 243.171875 97.417969 C 243.535156 99.242188 243.808594 101.082031 243.988281 102.933594 C 244.171875 104.785156 244.261719 106.640625 244.261719 108.5 C 244.261719 110.359375 244.167969 112.214844 243.984375 114.0625 C 243.796875 115.914062 243.523438 117.75 243.160156 119.574219 C 242.796875 121.394531 242.34375 123.199219 241.800781 124.976562 C 241.261719 126.753906 240.632812 128.503906 239.921875 130.21875 C 239.207031 131.9375 238.414062 133.617188 237.535156 135.253906 C 236.660156 136.894531 235.703125 138.488281 234.671875 140.03125 C 233.636719 141.578125 232.53125 143.070312 231.351562 144.503906 C 230.171875 145.941406 228.921875 147.320312 227.609375 148.632812 C 226.292969 149.949219 224.917969 151.195312 223.480469 152.375 C 222.042969 153.554688 220.550781 154.660156 219.007812 155.695312 C 217.460938 156.726562 215.867188 157.683594 214.230469 158.558594 C 212.589844 159.4375 210.910156 160.230469 209.195312 160.945312 C 207.476562 161.65625 205.730469 162.285156 203.949219 162.824219 C 202.171875 163.367188 200.371094 163.820312 198.546875 164.183594 C 196.722656 164.546875 194.886719 164.820312 193.039062 165.003906 C 191.1875 165.191406 189.332031 165.28125 187.472656 165.285156 Z M 187.472656 65.09375 C 186.050781 65.09375 184.632812 65.164062 183.21875 65.300781 C 181.804688 65.441406 180.402344 65.648438 179.007812 65.925781 C 177.613281 66.203125 176.234375 66.546875 174.875 66.960938 C 173.515625 67.375 172.179688 67.851562 170.863281 68.394531 C 169.550781 68.9375 168.269531 69.546875 167.015625 70.214844 C 165.761719 70.886719 164.542969 71.613281 163.359375 72.40625 C 162.179688 73.195312 161.039062 74.039062 159.941406 74.941406 C 158.839844 75.84375 157.789062 76.796875 156.785156 77.800781 C 155.777344 78.804688 154.824219 79.859375 153.921875 80.957031 C 153.019531 82.054688 152.175781 83.195312 151.386719 84.378906 C 150.59375 85.558594 149.863281 86.777344 149.195312 88.03125 C 148.523438 89.285156 147.917969 90.566406 147.375 91.878906 C 146.828125 93.191406 146.351562 94.53125 145.9375 95.890625 C 145.523438 97.25 145.179688 98.628906 144.902344 100.019531 C 144.625 101.414062 144.417969 102.820312 144.277344 104.234375 C 144.136719 105.648438 144.066406 107.066406 144.066406 108.488281 C 144.066406 109.910156 144.136719 111.328125 144.277344 112.742188 C 144.414062 114.15625 144.625 115.5625 144.902344 116.957031 C 145.175781 118.347656 145.523438 119.726562 145.933594 121.085938 C 146.347656 122.445312 146.824219 123.785156 147.371094 125.097656 C 147.914062 126.410156 148.519531 127.695312 149.191406 128.949219 C 149.859375 130.199219 150.589844 131.417969 151.378906 132.601562 C 152.167969 133.78125 153.015625 134.921875 153.914062 136.023438 C 154.816406 137.121094 155.769531 138.171875 156.777344 139.179688 C 157.78125 140.183594 158.832031 141.136719 159.929688 142.039062 C 161.03125 142.941406 162.171875 143.785156 163.351562 144.578125 C 164.535156 145.367188 165.75 146.097656 167.003906 146.765625 C 168.257812 147.4375 169.542969 148.042969 170.855469 148.585938 C 172.167969 149.132812 173.503906 149.609375 174.863281 150.023438 C 176.226562 150.4375 177.601562 150.78125 178.996094 151.058594 C 180.390625 151.335938 181.792969 151.542969 183.210938 151.683594 C 184.625 151.824219 186.042969 151.894531 187.464844 151.894531 C 188.882812 151.894531 190.300781 151.824219 191.71875 151.683594 C 193.132812 151.546875 194.535156 151.335938 195.929688 151.058594 C 197.324219 150.78125 198.703125 150.4375 200.0625 150.023438 C 201.421875 149.613281 202.757812 149.132812 204.070312 148.589844 C 205.386719 148.046875 206.667969 147.441406 207.921875 146.769531 C 209.175781 146.101562 210.394531 145.371094 211.574219 144.582031 C 212.757812 143.792969 213.898438 142.945312 214.996094 142.042969 C 216.09375 141.140625 217.148438 140.1875 218.152344 139.183594 C 219.15625 138.179688 220.113281 137.128906 221.011719 136.027344 C 221.914062 134.929688 222.761719 133.789062 223.550781 132.609375 C 224.339844 131.425781 225.070312 130.207031 225.742188 128.953125 C 226.410156 127.699219 227.019531 126.417969 227.5625 125.105469 C 228.105469 123.792969 228.585938 122.453125 228.996094 121.09375 C 229.410156 119.734375 229.753906 118.355469 230.03125 116.964844 C 230.308594 115.570312 230.519531 114.164062 230.65625 112.75 C 230.796875 111.335938 230.867188 109.917969 230.867188 108.496094 C 230.863281 107.074219 230.792969 105.65625 230.652344 104.242188 C 230.511719 102.832031 230.304688 101.425781 230.023438 100.035156 C 229.746094 98.640625 229.402344 97.261719 228.988281 95.902344 C 228.574219 94.542969 228.097656 93.207031 227.550781 91.894531 C 227.007812 90.582031 226.398438 89.300781 225.730469 88.046875 C 225.058594 86.796875 224.328125 85.578125 223.539062 84.398438 C 222.75 83.214844 221.90625 82.074219 221.003906 80.976562 C 220.101562 79.878906 219.148438 78.828125 218.144531 77.824219 C 217.140625 76.820312 216.089844 75.863281 214.988281 74.964844 C 213.890625 74.0625 212.753906 73.214844 211.570312 72.425781 C 210.390625 71.636719 209.171875 70.90625 207.921875 70.234375 C 206.667969 69.566406 205.386719 68.957031 204.074219 68.414062 C 202.761719 67.867188 201.425781 67.390625 200.066406 66.976562 C 198.707031 66.5625 197.328125 66.214844 195.9375 65.9375 C 194.542969 65.660156 193.140625 65.449219 191.726562 65.308594 C 190.3125 65.167969 188.894531 65.097656 187.472656 65.09375 Z M 187.472656 65.09375 " fill-opacity="1" fill-rule="nonzero"/><path fill="#000000" d="M 187.472656 194.753906 C 186.0625 194.753906 184.652344 194.71875 183.242188 194.648438 C 181.832031 194.578125 180.421875 194.476562 179.019531 194.335938 C 177.613281 194.199219 176.214844 194.027344 174.816406 193.820312 C 173.421875 193.613281 172.03125 193.371094 170.644531 193.09375 C 169.261719 192.820312 167.882812 192.511719 166.515625 192.167969 C 165.144531 191.824219 163.785156 191.449219 162.433594 191.039062 C 161.082031 190.628906 159.742188 190.1875 158.414062 189.710938 C 157.082031 189.234375 155.765625 188.726562 154.460938 188.1875 C 153.160156 187.648438 151.867188 187.074219 150.59375 186.472656 C 149.316406 185.867188 148.054688 185.234375 146.808594 184.566406 C 145.566406 183.902344 144.335938 183.207031 143.125 182.480469 C 141.914062 181.753906 140.722656 181 139.550781 180.214844 C 138.375 179.429688 137.222656 178.617188 136.085938 177.777344 C 134.953125 176.9375 133.839844 176.070312 132.75 175.171875 C 131.660156 174.277344 130.589844 173.355469 129.542969 172.40625 C 128.496094 171.460938 127.476562 170.488281 126.476562 169.488281 C 125.480469 168.488281 124.503906 167.46875 123.558594 166.421875 C 122.609375 165.375 121.6875 164.308594 120.792969 163.214844 C 119.894531 162.125 119.027344 161.011719 118.1875 159.878906 C 117.347656 158.746094 116.535156 157.589844 115.75 156.417969 C 114.964844 155.242188 114.210938 154.050781 113.484375 152.839844 C 112.757812 151.628906 112.0625 150.402344 111.398438 149.15625 C 110.730469 147.910156 110.097656 146.648438 109.492188 145.375 C 108.890625 144.097656 108.316406 142.808594 107.777344 141.503906 C 107.238281 140.199219 106.730469 138.882812 106.253906 137.554688 C 105.777344 136.222656 105.335938 134.882812 104.925781 133.53125 C 104.515625 132.183594 104.140625 130.820312 103.796875 129.453125 C 103.453125 128.082031 103.144531 126.707031 102.867188 125.320312 C 102.59375 123.9375 102.351562 122.546875 102.144531 121.148438 C 101.9375 119.753906 101.765625 118.351562 101.625 116.949219 C 101.488281 115.542969 101.382812 114.136719 101.316406 112.726562 C 101.246094 111.316406 101.210938 109.90625 101.210938 108.492188 C 101.210938 107.082031 101.246094 105.671875 101.316406 104.261719 C 101.382812 102.851562 101.488281 101.441406 101.625 100.039062 C 101.765625 98.632812 101.9375 97.234375 102.144531 95.835938 C 102.351562 94.441406 102.59375 93.050781 102.867188 91.664062 C 103.144531 90.28125 103.453125 88.902344 103.796875 87.535156 C 104.140625 86.164062 104.515625 84.804688 104.925781 83.453125 C 105.335938 82.101562 105.777344 80.761719 106.253906 79.433594 C 106.726562 78.105469 107.238281 76.789062 107.777344 75.484375 C 108.316406 74.179688 108.890625 72.886719 109.492188 71.613281 C 110.097656 70.335938 110.730469 69.074219 111.394531 67.832031 C 112.0625 66.585938 112.757812 65.359375 113.484375 64.148438 C 114.207031 62.9375 114.964844 61.742188 115.746094 60.570312 C 116.53125 59.394531 117.34375 58.242188 118.183594 57.109375 C 119.027344 55.972656 119.894531 54.863281 120.789062 53.769531 C 121.6875 52.679688 122.609375 51.609375 123.554688 50.566406 C 124.503906 49.519531 125.476562 48.496094 126.476562 47.5 C 127.472656 46.5 128.496094 45.527344 129.542969 44.578125 C 130.585938 43.632812 131.65625 42.710938 132.746094 41.8125 C 133.839844 40.917969 134.953125 40.050781 136.085938 39.207031 C 137.21875 38.367188 138.371094 37.554688 139.546875 36.769531 C 140.71875 35.988281 141.914062 35.230469 143.125 34.503906 C 144.335938 33.78125 145.5625 33.085938 146.808594 32.417969 C 148.050781 31.753906 149.3125 31.117188 150.589844 30.515625 C 151.867188 29.910156 153.15625 29.339844 154.460938 28.800781 C 155.765625 28.257812 157.082031 27.75 158.410156 27.277344 C 159.738281 26.800781 161.078125 26.359375 162.429688 25.949219 C 163.78125 25.539062 165.140625 25.160156 166.511719 24.820312 C 167.878906 24.476562 169.257812 24.167969 170.640625 23.890625 C 172.027344 23.617188 173.417969 23.375 174.8125 23.167969 C 176.210938 22.960938 177.609375 22.789062 179.015625 22.648438 C 180.421875 22.511719 181.828125 22.40625 183.238281 22.335938 C 184.648438 22.269531 186.058594 22.234375 187.46875 22.234375 C 188.882812 22.234375 190.292969 22.269531 191.703125 22.335938 C 193.113281 22.40625 194.519531 22.511719 195.925781 22.648438 C 197.332031 22.789062 198.730469 22.960938 200.128906 23.167969 C 201.523438 23.375 202.914062 23.617188 204.300781 23.890625 C 205.683594 24.167969 207.0625 24.476562 208.429688 24.820312 C 209.800781 25.160156 211.160156 25.539062 212.511719 25.949219 C 213.863281 26.359375 215.203125 26.800781 216.53125 27.277344 C 217.859375 27.753906 219.175781 28.261719 220.480469 28.800781 C 221.785156 29.339844 223.074219 29.914062 224.351562 30.515625 C 225.628906 31.121094 226.890625 31.753906 228.132812 32.417969 C 229.378906 33.085938 230.605469 33.78125 231.816406 34.507812 C 233.027344 35.234375 234.222656 35.988281 235.394531 36.773438 C 236.570312 37.554688 237.722656 38.367188 238.855469 39.210938 C 239.992188 40.050781 241.101562 40.917969 242.195312 41.816406 C 243.285156 42.710938 244.355469 43.632812 245.398438 44.582031 C 246.445312 45.527344 247.46875 46.5 248.464844 47.5 C 249.464844 48.5 250.4375 49.519531 251.386719 50.566406 C 252.332031 51.613281 253.253906 52.679688 254.152344 53.773438 C 255.046875 54.863281 255.914062 55.976562 256.757812 57.109375 C 257.597656 58.242188 258.410156 59.398438 259.195312 60.570312 C 259.976562 61.746094 260.734375 62.9375 261.457031 64.148438 C 262.183594 65.359375 262.878906 66.585938 263.546875 67.832031 C 264.210938 69.078125 264.84375 70.339844 265.449219 71.613281 C 266.050781 72.890625 266.625 74.179688 267.164062 75.484375 C 267.703125 76.789062 268.214844 78.105469 268.6875 79.4375 C 269.164062 80.765625 269.605469 82.105469 270.015625 83.457031 C 270.425781 84.808594 270.800781 86.167969 271.144531 87.535156 C 271.488281 88.90625 271.796875 90.28125 272.074219 91.667969 C 272.347656 93.050781 272.589844 94.441406 272.796875 95.839844 C 273.003906 97.234375 273.175781 98.636719 273.316406 100.042969 C 273.453125 101.445312 273.558594 102.855469 273.625 104.261719 C 273.695312 105.671875 273.730469 107.085938 273.730469 108.496094 C 273.726562 109.90625 273.691406 111.316406 273.621094 112.726562 C 273.550781 114.136719 273.445312 115.542969 273.304688 116.949219 C 273.164062 118.351562 272.992188 119.753906 272.785156 121.148438 C 272.574219 122.542969 272.332031 123.933594 272.054688 125.316406 C 271.78125 126.699219 271.46875 128.078125 271.125 129.445312 C 270.78125 130.816406 270.402344 132.175781 269.992188 133.523438 C 269.582031 134.875 269.140625 136.214844 268.664062 137.542969 C 268.1875 138.871094 267.679688 140.1875 267.136719 141.488281 C 266.597656 142.792969 266.023438 144.082031 265.421875 145.359375 C 264.816406 146.632812 264.183594 147.894531 263.515625 149.136719 C 262.851562 150.382812 262.152344 151.609375 261.429688 152.820312 C 260.703125 154.03125 259.945312 155.222656 259.164062 156.394531 C 258.378906 157.566406 257.566406 158.71875 256.726562 159.855469 C 255.882812 160.988281 255.015625 162.097656 254.121094 163.191406 C 253.226562 164.28125 252.304688 165.347656 251.355469 166.394531 C 250.40625 167.441406 249.433594 168.460938 248.4375 169.460938 C 247.4375 170.457031 246.417969 171.429688 245.371094 172.378906 C 244.328125 173.324219 243.257812 174.246094 242.167969 175.144531 C 241.078125 176.039062 239.964844 176.90625 238.832031 177.746094 C 237.699219 178.589844 236.546875 179.402344 235.371094 180.183594 C 234.199219 180.96875 233.007812 181.726562 231.796875 182.449219 C 230.585938 183.175781 229.359375 183.871094 228.113281 184.539062 C 226.871094 185.203125 225.609375 185.839844 224.335938 186.441406 C 223.058594 187.046875 221.769531 187.621094 220.46875 188.160156 C 219.164062 188.699219 217.847656 189.210938 216.519531 189.6875 C 215.191406 190.160156 213.851562 190.605469 212.5 191.015625 C 211.152344 191.425781 209.792969 191.804688 208.421875 192.148438 C 207.054688 192.492188 205.679688 192.800781 204.292969 193.078125 C 202.910156 193.355469 201.519531 193.597656 200.125 193.804688 C 198.730469 194.015625 197.328125 194.1875 195.925781 194.328125 C 194.519531 194.46875 193.113281 194.574219 191.703125 194.644531 C 190.296875 194.714844 188.886719 194.75 187.472656 194.753906 Z M 187.472656 35.628906 C 186.28125 35.628906 185.089844 35.65625 183.898438 35.714844 C 182.707031 35.773438 181.519531 35.859375 180.332031 35.976562 C 179.144531 36.09375 177.960938 36.242188 176.78125 36.414062 C 175.601562 36.589844 174.429688 36.792969 173.257812 37.027344 C 172.089844 37.257812 170.925781 37.519531 169.769531 37.808594 C 168.613281 38.101562 167.460938 38.417969 166.320312 38.765625 C 165.179688 39.109375 164.046875 39.484375 162.925781 39.886719 C 161.804688 40.285156 160.691406 40.714844 159.589844 41.171875 C 158.488281 41.628906 157.398438 42.113281 156.320312 42.621094 C 155.242188 43.132812 154.175781 43.667969 153.125 44.230469 C 152.074219 44.792969 151.035156 45.378906 150.011719 45.992188 C 148.988281 46.605469 147.980469 47.242188 146.992188 47.90625 C 146 48.566406 145.023438 49.253906 144.066406 49.964844 C 143.109375 50.675781 142.167969 51.410156 141.246094 52.164062 C 140.324219 52.921875 139.421875 53.699219 138.539062 54.5 C 137.65625 55.300781 136.792969 56.125 135.949219 56.96875 C 135.105469 57.808594 134.28125 58.671875 133.480469 59.558594 C 132.679688 60.441406 131.902344 61.34375 131.144531 62.265625 C 130.390625 63.1875 129.65625 64.125 128.945312 65.085938 C 128.234375 66.042969 127.546875 67.015625 126.886719 68.007812 C 126.222656 69 125.585938 70.007812 124.972656 71.03125 C 124.359375 72.054688 123.773438 73.089844 123.210938 74.140625 C 122.648438 75.195312 122.109375 76.257812 121.601562 77.335938 C 121.089844 78.414062 120.609375 79.503906 120.152344 80.605469 C 119.695312 81.707031 119.265625 82.820312 118.863281 83.941406 C 118.460938 85.066406 118.089844 86.199219 117.742188 87.339844 C 117.394531 88.480469 117.078125 89.628906 116.789062 90.785156 C 116.5 91.941406 116.238281 93.105469 116.003906 94.273438 C 115.773438 95.445312 115.566406 96.617188 115.394531 97.796875 C 115.21875 98.976562 115.070312 100.160156 114.957031 101.347656 C 114.839844 102.535156 114.75 103.722656 114.691406 104.914062 C 114.632812 106.105469 114.605469 107.296875 114.605469 108.492188 C 114.605469 109.683594 114.632812 110.875 114.691406 112.066406 C 114.75 113.257812 114.835938 114.445312 114.953125 115.632812 C 115.070312 116.820312 115.21875 118.003906 115.390625 119.183594 C 115.566406 120.363281 115.769531 121.535156 116.003906 122.707031 C 116.234375 123.875 116.496094 125.039062 116.785156 126.195312 C 117.078125 127.351562 117.394531 128.5 117.742188 129.644531 C 118.085938 130.785156 118.460938 131.914062 118.863281 133.039062 C 119.265625 134.160156 119.691406 135.273438 120.148438 136.375 C 120.605469 137.476562 121.089844 138.566406 121.597656 139.644531 C 122.109375 140.722656 122.644531 141.789062 123.207031 142.839844 C 123.769531 143.890625 124.355469 144.929688 124.96875 145.953125 C 125.582031 146.976562 126.21875 147.980469 126.882812 148.972656 C 127.546875 149.964844 128.230469 150.941406 128.941406 151.898438 C 129.652344 152.855469 130.386719 153.796875 131.140625 154.71875 C 131.898438 155.640625 132.675781 156.542969 133.476562 157.425781 C 134.277344 158.308594 135.101562 159.171875 135.945312 160.015625 C 136.789062 160.859375 137.652344 161.679688 138.535156 162.480469 C 139.417969 163.28125 140.320312 164.0625 141.242188 164.816406 C 142.164062 165.574219 143.105469 166.308594 144.0625 167.019531 C 145.019531 167.730469 145.992188 168.414062 146.984375 169.078125 C 147.976562 169.742188 148.984375 170.378906 150.007812 170.992188 C 151.03125 171.605469 152.066406 172.191406 153.117188 172.753906 C 154.171875 173.316406 155.234375 173.851562 156.3125 174.363281 C 157.390625 174.871094 158.480469 175.355469 159.582031 175.8125 C 160.683594 176.269531 161.796875 176.699219 162.917969 177.097656 C 164.042969 177.5 165.175781 177.875 166.316406 178.222656 C 167.457031 178.566406 168.605469 178.886719 169.761719 179.175781 C 170.917969 179.464844 172.082031 179.726562 173.253906 179.960938 C 174.421875 180.191406 175.597656 180.394531 176.777344 180.570312 C 177.957031 180.746094 179.140625 180.890625 180.324219 181.007812 C 181.511719 181.125 182.703125 181.214844 183.890625 181.273438 C 185.082031 181.332031 186.273438 181.359375 187.46875 181.359375 C 188.660156 181.359375 189.851562 181.332031 191.042969 181.273438 C 192.234375 181.214844 193.421875 181.125 194.609375 181.007812 C 195.796875 180.894531 196.980469 180.746094 198.160156 180.570312 C 199.339844 180.398438 200.515625 180.191406 201.683594 179.960938 C 202.851562 179.726562 204.015625 179.464844 205.171875 179.175781 C 206.328125 178.886719 207.480469 178.570312 208.621094 178.222656 C 209.761719 177.878906 210.894531 177.503906 212.015625 177.101562 C 213.140625 176.699219 214.25 176.269531 215.351562 175.816406 C 216.453125 175.359375 217.542969 174.875 218.621094 174.367188 C 219.699219 173.855469 220.765625 173.320312 221.816406 172.757812 C 222.867188 172.195312 223.90625 171.609375 224.929688 170.996094 C 225.953125 170.382812 226.960938 169.742188 227.949219 169.082031 C 228.941406 168.417969 229.917969 167.734375 230.875 167.023438 C 231.832031 166.3125 232.773438 165.578125 233.695312 164.820312 C 234.617188 164.066406 235.519531 163.285156 236.402344 162.484375 C 237.285156 161.683594 238.148438 160.863281 238.992188 160.019531 C 239.835938 159.175781 240.660156 158.3125 241.460938 157.429688 C 242.261719 156.546875 243.039062 155.644531 243.796875 154.722656 C 244.550781 153.800781 245.285156 152.859375 245.996094 151.902344 C 246.707031 150.945312 247.394531 149.96875 248.054688 148.976562 C 248.71875 147.988281 249.355469 146.980469 249.96875 145.957031 C 250.582031 144.933594 251.167969 143.898438 251.730469 142.84375 C 252.292969 141.792969 252.828125 140.726562 253.339844 139.652344 C 253.851562 138.574219 254.332031 137.484375 254.789062 136.382812 C 255.246094 135.277344 255.675781 134.167969 256.078125 133.042969 C 256.480469 131.921875 256.851562 130.789062 257.199219 129.648438 C 257.546875 128.507812 257.863281 127.359375 258.152344 126.203125 C 258.441406 125.042969 258.703125 123.882812 258.9375 122.710938 C 259.167969 121.542969 259.371094 120.367188 259.546875 119.1875 C 259.722656 118.007812 259.867188 116.824219 259.984375 115.636719 C 260.101562 114.453125 260.191406 113.261719 260.25 112.070312 C 260.308594 110.878906 260.335938 109.6875 260.335938 108.496094 C 260.335938 107.304688 260.304688 106.113281 260.246094 104.921875 C 260.1875 103.730469 260.097656 102.542969 259.980469 101.355469 C 259.859375 100.171875 259.714844 98.988281 259.539062 97.808594 C 259.363281 96.628906 259.15625 95.457031 258.921875 94.285156 C 258.691406 93.117188 258.429688 91.953125 258.136719 90.796875 C 257.847656 89.640625 257.527344 88.492188 257.179688 87.351562 C 256.835938 86.210938 256.460938 85.082031 256.058594 83.960938 C 255.65625 82.835938 255.226562 81.726562 254.769531 80.625 C 254.3125 79.523438 253.828125 78.433594 253.316406 77.355469 C 252.808594 76.277344 252.273438 75.214844 251.710938 74.164062 C 251.148438 73.113281 250.558594 72.074219 249.945312 71.054688 C 249.332031 70.03125 248.695312 69.023438 248.03125 68.03125 C 247.371094 67.042969 246.683594 66.066406 245.972656 65.109375 C 245.261719 64.152344 244.53125 63.214844 243.773438 62.292969 C 243.015625 61.371094 242.238281 60.46875 241.4375 59.585938 C 240.636719 58.703125 239.816406 57.839844 238.972656 56.996094 C 238.128906 56.152344 237.265625 55.332031 236.382812 54.53125 C 235.5 53.730469 234.597656 52.949219 233.675781 52.195312 C 232.753906 51.4375 231.816406 50.703125 230.859375 49.992188 C 229.902344 49.285156 228.925781 48.597656 227.9375 47.933594 C 226.945312 47.269531 225.9375 46.632812 224.914062 46.019531 C 223.894531 45.40625 222.855469 44.820312 221.804688 44.257812 C 220.753906 43.695312 219.691406 43.15625 218.613281 42.648438 C 217.535156 42.136719 216.445312 41.652344 215.34375 41.195312 C 214.242188 40.738281 213.132812 40.308594 212.011719 39.90625 C 210.886719 39.503906 209.757812 39.128906 208.617188 38.78125 C 207.476562 38.4375 206.328125 38.117188 205.171875 37.828125 C 204.015625 37.535156 202.851562 37.273438 201.683594 37.039062 C 200.515625 36.804688 199.339844 36.601562 198.160156 36.425781 C 196.980469 36.25 195.800781 36.101562 194.613281 35.984375 C 193.425781 35.867188 192.238281 35.777344 191.046875 35.71875 C 189.855469 35.65625 188.667969 35.625 187.472656 35.625 Z M 187.472656 35.628906 " fill-opacity="1" fill-rule="nonzero"/><path fill="#000000" d="M 207.054688 38.117188 C 206.613281 38.117188 206.179688 38.074219 205.746094 37.988281 C 205.316406 37.902344 204.898438 37.777344 204.492188 37.609375 C 204.085938 37.441406 203.699219 37.234375 203.332031 36.988281 C 202.96875 36.746094 202.628906 36.46875 202.320312 36.15625 C 202.007812 35.847656 201.730469 35.507812 201.484375 35.144531 C 201.242188 34.777344 201.035156 34.390625 200.867188 33.984375 C 200.699219 33.578125 200.570312 33.160156 200.484375 32.730469 C 200.398438 32.296875 200.355469 31.863281 200.355469 31.421875 L 200.355469 15.132812 C 200.355469 14.898438 200.3125 14.675781 200.21875 14.457031 C 200.128906 14.242188 200 14.050781 199.832031 13.886719 C 199.664062 13.722656 199.46875 13.597656 199.25 13.511719 C 199.03125 13.425781 198.804688 13.386719 198.570312 13.394531 L 176.371094 13.394531 C 176.136719 13.386719 175.910156 13.425781 175.691406 13.511719 C 175.472656 13.597656 175.277344 13.722656 175.109375 13.886719 C 174.941406 14.050781 174.8125 14.242188 174.722656 14.457031 C 174.632812 14.675781 174.585938 14.898438 174.585938 15.132812 L 174.585938 31.421875 C 174.585938 31.863281 174.542969 32.296875 174.457031 32.730469 C 174.371094 33.160156 174.242188 33.578125 174.074219 33.984375 C 173.90625 34.390625 173.699219 34.777344 173.457031 35.144531 C 173.210938 35.507812 172.933594 35.847656 172.625 36.15625 C 172.3125 36.46875 171.972656 36.746094 171.609375 36.988281 C 171.242188 37.234375 170.855469 37.441406 170.449219 37.609375 C 170.042969 37.777344 169.625 37.902344 169.195312 37.988281 C 168.761719 38.074219 168.328125 38.117188 167.886719 38.117188 C 167.449219 38.117188 167.011719 38.074219 166.582031 37.988281 C 166.152344 37.902344 165.730469 37.777344 165.324219 37.609375 C 164.917969 37.441406 164.535156 37.234375 164.167969 36.988281 C 163.800781 36.746094 163.464844 36.46875 163.152344 36.15625 C 162.84375 35.847656 162.566406 35.507812 162.320312 35.144531 C 162.074219 34.777344 161.871094 34.390625 161.703125 33.984375 C 161.53125 33.578125 161.40625 33.160156 161.320312 32.730469 C 161.234375 32.296875 161.191406 31.863281 161.191406 31.421875 L 161.191406 15.132812 C 161.195312 14.140625 161.292969 13.152344 161.488281 12.179688 C 161.6875 11.203125 161.976562 10.257812 162.359375 9.339844 C 162.742188 8.417969 163.207031 7.546875 163.761719 6.722656 C 164.316406 5.894531 164.945312 5.128906 165.652344 4.429688 C 166.355469 3.726562 167.121094 3.097656 167.949219 2.546875 C 168.777344 1.996094 169.652344 1.527344 170.570312 1.148438 C 171.488281 0.769531 172.4375 0.484375 173.414062 0.289062 C 174.390625 0.0976562 175.375 0 176.371094 0 L 198.570312 0 C 199.566406 0 200.550781 0.0976562 201.527344 0.289062 C 202.503906 0.484375 203.449219 0.769531 204.371094 1.148438 C 205.289062 1.527344 206.164062 1.996094 206.992188 2.546875 C 207.820312 3.097656 208.585938 3.726562 209.289062 4.429688 C 209.996094 5.128906 210.625 5.894531 211.179688 6.722656 C 211.734375 7.546875 212.199219 8.417969 212.582031 9.339844 C 212.964844 10.257812 213.253906 11.203125 213.453125 12.179688 C 213.648438 13.152344 213.746094 14.140625 213.75 15.132812 L 213.75 31.421875 C 213.75 31.863281 213.707031 32.296875 213.621094 32.730469 C 213.535156 33.160156 213.410156 33.578125 213.242188 33.984375 C 213.074219 34.390625 212.867188 34.777344 212.621094 35.144531 C 212.378906 35.507812 212.101562 35.847656 211.789062 36.160156 C 211.480469 36.46875 211.140625 36.746094 210.773438 36.992188 C 210.410156 37.234375 210.023438 37.441406 209.617188 37.609375 C 209.210938 37.777344 208.792969 37.90625 208.359375 37.992188 C 207.929688 38.078125 207.492188 38.117188 207.054688 38.117188 Z M 207.054688 38.117188 " fill-opacity="1" fill-rule="nonzero"/><path fill="#000000" d="M 198.570312 217.050781 L 176.371094 217.050781 C 175.375 217.050781 174.390625 216.957031 173.414062 216.761719 C 172.4375 216.570312 171.488281 216.28125 170.570312 215.902344 C 169.652344 215.523438 168.777344 215.058594 167.949219 214.503906 C 167.121094 213.953125 166.355469 213.328125 165.652344 212.625 C 164.945312 211.921875 164.316406 211.15625 163.761719 210.332031 C 163.207031 209.503906 162.742188 208.632812 162.359375 207.714844 C 161.976562 206.796875 161.6875 205.847656 161.488281 204.875 C 161.292969 203.898438 161.195312 202.914062 161.191406 201.917969 L 161.191406 185.628906 C 161.191406 185.191406 161.234375 184.753906 161.320312 184.324219 C 161.40625 183.890625 161.53125 183.472656 161.703125 183.066406 C 161.871094 182.660156 162.074219 182.273438 162.320312 181.910156 C 162.566406 181.542969 162.84375 181.207031 163.152344 180.894531 C 163.464844 180.582031 163.800781 180.304688 164.167969 180.0625 C 164.535156 179.816406 164.917969 179.609375 165.324219 179.441406 C 165.730469 179.273438 166.152344 179.148438 166.582031 179.0625 C 167.011719 178.976562 167.449219 178.933594 167.886719 178.933594 C 168.328125 178.933594 168.761719 178.976562 169.195312 179.0625 C 169.625 179.148438 170.042969 179.273438 170.449219 179.441406 C 170.855469 179.609375 171.242188 179.816406 171.609375 180.0625 C 171.972656 180.304688 172.3125 180.582031 172.625 180.894531 C 172.933594 181.207031 173.210938 181.542969 173.457031 181.910156 C 173.699219 182.273438 173.90625 182.660156 174.074219 183.066406 C 174.242188 183.472656 174.371094 183.890625 174.457031 184.324219 C 174.542969 184.753906 174.585938 185.191406 174.585938 185.628906 L 174.585938 201.917969 C 174.585938 202.152344 174.632812 202.378906 174.726562 202.59375 C 174.820312 202.808594 174.949219 202.996094 175.117188 203.160156 C 175.285156 203.324219 175.476562 203.449219 175.691406 203.535156 C 175.910156 203.621094 176.136719 203.664062 176.371094 203.660156 L 198.570312 203.660156 C 198.804688 203.664062 199.03125 203.621094 199.246094 203.535156 C 199.464844 203.449219 199.65625 203.324219 199.824219 203.160156 C 199.992188 202.996094 200.121094 202.808594 200.214844 202.59375 C 200.304688 202.378906 200.355469 202.152344 200.355469 201.917969 L 200.355469 185.628906 C 200.355469 185.191406 200.398438 184.753906 200.484375 184.324219 C 200.570312 183.890625 200.699219 183.472656 200.867188 183.066406 C 201.035156 182.660156 201.242188 182.273438 201.484375 181.910156 C 201.730469 181.542969 202.007812 181.207031 202.316406 180.894531 C 202.628906 180.582031 202.96875 180.304688 203.332031 180.0625 C 203.699219 179.816406 204.085938 179.609375 204.492188 179.441406 C 204.898438 179.273438 205.316406 179.148438 205.746094 179.0625 C 206.179688 178.976562 206.613281 178.933594 207.054688 178.933594 C 207.492188 178.933594 207.929688 178.976562 208.359375 179.0625 C 208.789062 179.148438 209.210938 179.273438 209.617188 179.441406 C 210.023438 179.609375 210.40625 179.816406 210.773438 180.0625 C 211.140625 180.304688 211.476562 180.582031 211.789062 180.894531 C 212.097656 181.207031 212.375 181.542969 212.621094 181.910156 C 212.863281 182.273438 213.070312 182.660156 213.238281 183.066406 C 213.40625 183.472656 213.535156 183.890625 213.621094 184.324219 C 213.707031 184.753906 213.75 185.191406 213.75 185.628906 L 213.75 201.917969 C 213.746094 202.914062 213.648438 203.898438 213.449219 204.875 C 213.253906 205.851562 212.964844 206.796875 212.582031 207.714844 C 212.199219 208.632812 211.730469 209.503906 211.175781 210.332031 C 210.625 211.15625 209.996094 211.921875 209.289062 212.625 C 208.585938 213.328125 207.820312 213.953125 206.992188 214.503906 C 206.164062 215.058594 205.289062 215.523438 204.371094 215.902344 C 203.449219 216.28125 202.503906 216.570312 201.527344 216.761719 C 200.550781 216.957031 199.566406 217.050781 198.570312 217.050781 Z M 198.570312 217.050781 " fill-opacity="1" fill-rule="nonzero"/><path fill="#000000" d="M 119.125 74.539062 C 118.234375 74.539062 117.378906 74.367188 116.558594 74.027344 C 115.738281 73.6875 115.015625 73.203125 114.386719 72.574219 L 102.871094 61.058594 C 102.167969 60.351562 101.539062 59.585938 100.988281 58.757812 C 100.433594 57.929688 99.96875 57.054688 99.589844 56.136719 C 99.207031 55.214844 98.921875 54.265625 98.730469 53.289062 C 98.535156 52.3125 98.441406 51.328125 98.445312 50.332031 C 98.445312 49.335938 98.542969 48.347656 98.742188 47.375 C 98.9375 46.398438 99.226562 45.449219 99.609375 44.53125 C 99.992188 43.613281 100.460938 42.738281 101.019531 41.914062 C 101.574219 41.085938 102.203125 40.324219 102.910156 39.621094 L 118.597656 23.925781 C 119.300781 23.222656 120.066406 22.59375 120.894531 22.042969 C 121.722656 21.488281 122.59375 21.023438 123.511719 20.640625 C 124.429688 20.257812 125.378906 19.972656 126.355469 19.777344 C 127.328125 19.582031 128.316406 19.484375 129.308594 19.480469 C 130.304688 19.480469 131.289062 19.574219 132.265625 19.765625 C 133.242188 19.960938 134.191406 20.246094 135.109375 20.625 C 136.03125 21 136.902344 21.464844 137.734375 22.015625 C 138.5625 22.566406 139.328125 23.191406 140.035156 23.894531 L 151.550781 35.410156 C 151.855469 35.722656 152.125 36.0625 152.359375 36.429688 C 152.59375 36.792969 152.792969 37.179688 152.957031 37.582031 C 153.117188 37.984375 153.238281 38.402344 153.316406 38.828125 C 153.398438 39.253906 153.433594 39.6875 153.433594 40.121094 C 153.429688 40.554688 153.382812 40.988281 153.292969 41.414062 C 153.207031 41.839844 153.078125 42.253906 152.910156 42.652344 C 152.742188 43.054688 152.539062 43.433594 152.296875 43.796875 C 152.054688 44.15625 151.777344 44.492188 151.46875 44.796875 C 151.164062 45.105469 150.828125 45.382812 150.46875 45.625 C 150.105469 45.867188 149.726562 46.070312 149.324219 46.238281 C 148.925781 46.40625 148.511719 46.535156 148.085938 46.621094 C 147.660156 46.710938 147.230469 46.757812 146.792969 46.757812 C 146.359375 46.761719 145.929688 46.726562 145.5 46.644531 C 145.074219 46.566406 144.65625 46.445312 144.253906 46.28125 C 143.851562 46.121094 143.464844 45.921875 143.101562 45.6875 C 142.734375 45.453125 142.394531 45.183594 142.082031 44.878906 L 130.566406 33.363281 C 130.398438 33.199219 130.203125 33.074219 129.984375 32.988281 C 129.765625 32.898438 129.539062 32.859375 129.304688 32.863281 C 129.070312 32.867188 128.84375 32.914062 128.628906 33.007812 C 128.414062 33.101562 128.222656 33.234375 128.0625 33.402344 L 112.375 49.097656 C 112.015625 49.449219 111.835938 49.871094 111.839844 50.375 C 111.835938 50.847656 112 51.25 112.335938 51.582031 L 123.859375 63.105469 C 124.324219 63.574219 124.714844 64.101562 125.027344 64.683594 C 125.339844 65.269531 125.5625 65.886719 125.691406 66.535156 C 125.820312 67.183594 125.851562 67.839844 125.785156 68.496094 C 125.722656 69.15625 125.5625 69.792969 125.308594 70.402344 C 125.054688 71.015625 124.71875 71.578125 124.300781 72.089844 C 123.878906 72.601562 123.394531 73.039062 122.84375 73.410156 C 122.292969 73.777344 121.699219 74.054688 121.066406 74.25 C 120.433594 74.441406 119.785156 74.539062 119.125 74.539062 Z M 119.125 74.539062 " fill-opacity="1" fill-rule="nonzero"/><path fill="#000000" d="M 110.394531 134.777344 L 94.109375 134.777344 C 93.113281 134.777344 92.128906 134.675781 91.152344 134.480469 C 90.179688 134.28125 89.230469 133.992188 88.3125 133.609375 C 87.394531 133.226562 86.523438 132.757812 85.695312 132.203125 C 84.871094 131.648438 84.105469 131.019531 83.402344 130.316406 C 82.699219 129.609375 82.074219 128.84375 81.523438 128.015625 C 80.96875 127.1875 80.503906 126.3125 80.125 125.394531 C 79.746094 124.476562 79.457031 123.527344 79.265625 122.550781 C 79.070312 121.574219 78.976562 120.589844 78.976562 119.59375 L 78.976562 97.390625 C 78.976562 96.398438 79.070312 95.410156 79.265625 94.4375 C 79.457031 93.460938 79.746094 92.511719 80.125 91.59375 C 80.503906 90.671875 80.96875 89.800781 81.523438 88.972656 C 82.074219 88.144531 82.703125 87.378906 83.402344 86.671875 C 84.105469 85.96875 84.871094 85.339844 85.695312 84.785156 C 86.523438 84.230469 87.394531 83.761719 88.3125 83.378906 C 89.230469 82.996094 90.179688 82.707031 91.15625 82.511719 C 92.128906 82.316406 93.113281 82.214844 94.109375 82.214844 L 110.394531 82.214844 C 110.832031 82.214844 111.269531 82.257812 111.699219 82.34375 C 112.132812 82.429688 112.550781 82.554688 112.957031 82.722656 C 113.363281 82.890625 113.746094 83.097656 114.113281 83.34375 C 114.480469 83.585938 114.816406 83.863281 115.128906 84.175781 C 115.4375 84.484375 115.71875 84.824219 115.960938 85.191406 C 116.207031 85.554688 116.410156 85.941406 116.578125 86.347656 C 116.75 86.753906 116.875 87.171875 116.960938 87.605469 C 117.046875 88.035156 117.089844 88.472656 117.089844 88.910156 C 117.089844 89.351562 117.046875 89.785156 116.960938 90.21875 C 116.875 90.648438 116.75 91.066406 116.578125 91.472656 C 116.410156 91.878906 116.207031 92.265625 115.960938 92.628906 C 115.71875 92.996094 115.4375 93.335938 115.128906 93.644531 C 114.816406 93.957031 114.480469 94.234375 114.113281 94.476562 C 113.746094 94.722656 113.363281 94.929688 112.957031 95.097656 C 112.550781 95.265625 112.132812 95.390625 111.699219 95.476562 C 111.269531 95.5625 110.832031 95.605469 110.394531 95.605469 L 94.109375 95.605469 C 93.875 95.605469 93.648438 95.652344 93.433594 95.746094 C 93.21875 95.835938 93.027344 95.964844 92.863281 96.132812 C 92.699219 96.300781 92.574219 96.496094 92.488281 96.714844 C 92.402344 96.929688 92.363281 97.15625 92.367188 97.390625 L 92.367188 119.59375 C 92.367188 119.828125 92.40625 120.054688 92.492188 120.273438 C 92.582031 120.488281 92.703125 120.683594 92.867188 120.851562 C 93.03125 121.019531 93.21875 121.148438 93.4375 121.242188 C 93.652344 121.335938 93.875 121.382812 94.109375 121.386719 L 110.394531 121.386719 C 110.832031 121.386719 111.269531 121.429688 111.699219 121.515625 C 112.132812 121.601562 112.550781 121.726562 112.957031 121.894531 C 113.363281 122.0625 113.746094 122.269531 114.113281 122.515625 C 114.480469 122.757812 114.816406 123.035156 115.128906 123.347656 C 115.4375 123.660156 115.71875 123.996094 115.960938 124.363281 C 116.207031 124.726562 116.410156 125.113281 116.578125 125.519531 C 116.75 125.925781 116.875 126.34375 116.960938 126.777344 C 117.046875 127.207031 117.089844 127.644531 117.089844 128.082031 C 117.089844 128.523438 117.046875 128.957031 116.960938 129.390625 C 116.875 129.820312 116.75 130.238281 116.578125 130.644531 C 116.410156 131.050781 116.207031 131.4375 115.960938 131.804688 C 115.71875 132.167969 115.4375 132.507812 115.128906 132.816406 C 114.816406 133.128906 114.480469 133.40625 114.113281 133.652344 C 113.746094 133.894531 113.363281 134.101562 112.957031 134.269531 C 112.550781 134.4375 112.132812 134.566406 111.699219 134.648438 C 111.269531 134.734375 110.832031 134.777344 110.394531 134.777344 Z M 110.394531 134.777344 " fill-opacity="1" fill-rule="nonzero"/><path fill="#000000" d="M 280.890625 134.777344 L 264.605469 134.777344 C 264.167969 134.777344 263.730469 134.734375 263.300781 134.648438 C 262.867188 134.566406 262.449219 134.4375 262.042969 134.269531 C 261.636719 134.101562 261.25 133.894531 260.886719 133.652344 C 260.519531 133.40625 260.183594 133.128906 259.871094 132.816406 C 259.5625 132.507812 259.28125 132.167969 259.039062 131.804688 C 258.792969 131.4375 258.589844 131.050781 258.421875 130.644531 C 258.25 130.238281 258.125 129.820312 258.039062 129.390625 C 257.953125 128.957031 257.910156 128.523438 257.910156 128.082031 C 257.910156 127.644531 257.953125 127.207031 258.039062 126.777344 C 258.125 126.34375 258.25 125.925781 258.421875 125.519531 C 258.589844 125.113281 258.792969 124.726562 259.039062 124.363281 C 259.28125 123.996094 259.5625 123.660156 259.871094 123.347656 C 260.183594 123.035156 260.519531 122.757812 260.886719 122.515625 C 261.25 122.269531 261.636719 122.0625 262.042969 121.894531 C 262.449219 121.726562 262.867188 121.601562 263.300781 121.515625 C 263.730469 121.429688 264.167969 121.386719 264.605469 121.386719 L 280.890625 121.386719 C 281.125 121.382812 281.347656 121.335938 281.5625 121.242188 C 281.78125 121.148438 281.96875 121.019531 282.132812 120.851562 C 282.296875 120.683594 282.417969 120.488281 282.507812 120.273438 C 282.59375 120.054688 282.632812 119.828125 282.632812 119.59375 L 282.632812 97.390625 C 282.636719 97.15625 282.597656 96.929688 282.511719 96.714844 C 282.425781 96.496094 282.300781 96.300781 282.136719 96.132812 C 281.972656 95.964844 281.78125 95.835938 281.566406 95.746094 C 281.351562 95.652344 281.125 95.605469 280.890625 95.605469 L 264.605469 95.605469 C 264.167969 95.605469 263.730469 95.5625 263.300781 95.476562 C 262.867188 95.390625 262.449219 95.265625 262.042969 95.097656 C 261.636719 94.929688 261.25 94.722656 260.886719 94.476562 C 260.519531 94.234375 260.183594 93.957031 259.871094 93.644531 C 259.5625 93.335938 259.28125 92.996094 259.039062 92.628906 C 258.792969 92.265625 258.589844 91.878906 258.421875 91.472656 C 258.25 91.066406 258.125 90.648438 258.039062 90.21875 C 257.953125 89.785156 257.910156 89.351562 257.910156 88.910156 C 257.910156 88.472656 257.953125 88.035156 258.039062 87.605469 C 258.125 87.171875 258.25 86.753906 258.421875 86.347656 C 258.589844 85.941406 258.792969 85.554688 259.039062 85.191406 C 259.28125 84.824219 259.5625 84.484375 259.871094 84.175781 C 260.183594 83.863281 260.519531 83.585938 260.886719 83.34375 C 261.25 83.097656 261.636719 82.890625 262.042969 82.722656 C 262.449219 82.554688 262.867188 82.429688 263.300781 82.34375 C 263.730469 82.257812 264.167969 82.214844 264.605469 82.214844 L 280.890625 82.214844 C 281.886719 82.214844 282.871094 82.316406 283.847656 82.511719 C 284.820312 82.707031 285.769531 82.996094 286.6875 83.378906 C 287.605469 83.761719 288.476562 84.230469 289.304688 84.785156 C 290.128906 85.339844 290.894531 85.96875 291.597656 86.671875 C 292.296875 87.378906 292.925781 88.144531 293.476562 88.972656 C 294.03125 89.800781 294.496094 90.671875 294.875 91.59375 C 295.253906 92.511719 295.542969 93.460938 295.734375 94.4375 C 295.929688 95.410156 296.023438 96.398438 296.023438 97.390625 L 296.023438 119.59375 C 296.023438 120.589844 295.929688 121.574219 295.734375 122.550781 C 295.542969 123.527344 295.253906 124.476562 294.875 125.394531 C 294.496094 126.3125 294.03125 127.1875 293.476562 128.015625 C 292.925781 128.84375 292.300781 129.609375 291.597656 130.316406 C 290.894531 131.019531 290.128906 131.648438 289.304688 132.203125 C 288.476562 132.757812 287.605469 133.226562 286.6875 133.609375 C 285.769531 133.992188 284.820312 134.28125 283.847656 134.480469 C 282.871094 134.675781 281.886719 134.777344 280.890625 134.777344 Z M 280.890625 134.777344 " fill-opacity="1" fill-rule="nonzero"/><path fill="#000000" d="M 129.351562 197.511719 C 127.335938 197.515625 125.398438 197.132812 123.535156 196.363281 C 121.671875 195.59375 120.03125 194.496094 118.605469 193.070312 L 102.90625 177.363281 C 102.199219 176.660156 101.570312 175.898438 101.015625 175.070312 C 100.460938 174.242188 99.992188 173.371094 99.609375 172.453125 C 99.226562 171.53125 98.9375 170.585938 98.742188 169.609375 C 98.546875 168.632812 98.445312 167.648438 98.445312 166.652344 C 98.445312 165.65625 98.539062 164.667969 98.734375 163.691406 C 98.925781 162.714844 99.214844 161.769531 99.59375 160.847656 C 99.976562 159.925781 100.441406 159.054688 100.992188 158.226562 C 101.546875 157.398438 102.175781 156.632812 102.878906 155.925781 L 114.386719 144.410156 C 114.699219 144.097656 115.039062 143.820312 115.402344 143.578125 C 115.769531 143.332031 116.15625 143.125 116.5625 142.957031 C 116.96875 142.789062 117.386719 142.664062 117.816406 142.578125 C 118.25 142.492188 118.683594 142.449219 119.125 142.449219 C 119.566406 142.449219 120 142.492188 120.429688 142.578125 C 120.863281 142.664062 121.28125 142.792969 121.6875 142.960938 C 122.09375 143.128906 122.480469 143.335938 122.84375 143.578125 C 123.210938 143.824219 123.550781 144.101562 123.859375 144.414062 C 124.171875 144.722656 124.449219 145.0625 124.691406 145.425781 C 124.9375 145.792969 125.144531 146.179688 125.3125 146.585938 C 125.480469 146.992188 125.605469 147.410156 125.691406 147.84375 C 125.777344 148.273438 125.820312 148.707031 125.820312 149.148438 C 125.820312 149.589844 125.777344 150.023438 125.691406 150.457031 C 125.605469 150.886719 125.480469 151.304688 125.308594 151.710938 C 125.140625 152.117188 124.933594 152.503906 124.691406 152.871094 C 124.445312 153.234375 124.167969 153.574219 123.859375 153.882812 L 112.34375 165.402344 C 112.003906 165.734375 111.835938 166.140625 111.839844 166.617188 C 111.835938 167.117188 112.011719 167.542969 112.367188 167.890625 L 128.070312 183.597656 C 128.234375 183.761719 128.421875 183.890625 128.636719 183.984375 C 128.851562 184.078125 129.078125 184.125 129.3125 184.128906 C 129.546875 184.128906 129.769531 184.089844 129.988281 184.003906 C 130.207031 183.914062 130.398438 183.792969 130.566406 183.628906 L 142.085938 172.109375 C 142.398438 171.808594 142.734375 171.539062 143.101562 171.300781 C 143.464844 171.0625 143.851562 170.863281 144.253906 170.703125 C 144.660156 170.539062 145.074219 170.417969 145.503906 170.335938 C 145.929688 170.257812 146.363281 170.21875 146.796875 170.222656 C 147.234375 170.226562 147.664062 170.269531 148.089844 170.359375 C 148.519531 170.445312 148.933594 170.574219 149.332031 170.742188 C 149.734375 170.910156 150.117188 171.113281 150.476562 171.355469 C 150.839844 171.597656 151.175781 171.875 151.484375 172.183594 C 151.789062 172.492188 152.066406 172.824219 152.308594 173.1875 C 152.550781 173.546875 152.757812 173.929688 152.925781 174.332031 C 153.09375 174.734375 153.21875 175.148438 153.308594 175.574219 C 153.394531 176 153.441406 176.429688 153.445312 176.867188 C 153.445312 177.300781 153.40625 177.734375 153.328125 178.160156 C 153.246094 178.589844 153.125 179.003906 152.960938 179.410156 C 152.800781 179.8125 152.601562 180.199219 152.363281 180.5625 C 152.125 180.929688 151.855469 181.269531 151.554688 181.582031 L 140.035156 193.097656 C 138.621094 194.515625 136.984375 195.605469 135.132812 196.371094 C 133.28125 197.136719 131.355469 197.515625 129.351562 197.511719 Z M 129.351562 197.511719 " fill-opacity="1" fill-rule="nonzero"/><path fill="#000000" d="M 245.589844 197.503906 C 243.589844 197.511719 241.664062 197.132812 239.8125 196.367188 C 237.960938 195.605469 236.328125 194.519531 234.910156 193.105469 L 223.390625 181.582031 C 223.085938 181.269531 222.816406 180.929688 222.578125 180.566406 C 222.339844 180.199219 222.140625 179.816406 221.980469 179.410156 C 221.816406 179.007812 221.695312 178.589844 221.613281 178.164062 C 221.535156 177.734375 221.496094 177.304688 221.5 176.867188 C 221.503906 176.433594 221.546875 176 221.632812 175.574219 C 221.722656 175.148438 221.851562 174.734375 222.019531 174.332031 C 222.1875 173.929688 222.390625 173.550781 222.632812 173.1875 C 222.875 172.828125 223.152344 172.492188 223.460938 172.183594 C 223.769531 171.875 224.101562 171.601562 224.464844 171.359375 C 224.824219 171.117188 225.207031 170.910156 225.609375 170.742188 C 226.011719 170.574219 226.425781 170.445312 226.851562 170.359375 C 227.277344 170.269531 227.707031 170.226562 228.144531 170.222656 C 228.578125 170.21875 229.011719 170.257812 229.4375 170.339844 C 229.867188 170.417969 230.28125 170.542969 230.6875 170.703125 C 231.089844 170.867188 231.476562 171.066406 231.839844 171.300781 C 232.207031 171.539062 232.546875 171.808594 232.859375 172.113281 L 244.375 183.628906 C 244.542969 183.796875 244.734375 183.921875 244.953125 184.011719 C 245.171875 184.097656 245.398438 184.140625 245.636719 184.136719 C 245.871094 184.132812 246.097656 184.085938 246.3125 183.988281 C 246.527344 183.894531 246.71875 183.761719 246.878906 183.589844 L 262.566406 167.894531 C 262.925781 167.546875 263.105469 167.121094 263.109375 166.621094 C 263.109375 166.144531 262.941406 165.738281 262.605469 165.402344 L 251.082031 153.882812 C 250.777344 153.570312 250.507812 153.234375 250.269531 152.867188 C 250.03125 152.503906 249.832031 152.117188 249.667969 151.710938 C 249.503906 151.308594 249.382812 150.890625 249.300781 150.464844 C 249.21875 150.035156 249.179688 149.601562 249.179688 149.167969 C 249.183594 148.730469 249.230469 148.300781 249.316406 147.871094 C 249.402344 147.445312 249.53125 147.027344 249.699219 146.625 C 249.867188 146.222656 250.074219 145.84375 250.316406 145.480469 C 250.558594 145.117188 250.835938 144.78125 251.144531 144.472656 C 251.449219 144.164062 251.785156 143.890625 252.148438 143.648438 C 252.511719 143.402344 252.894531 143.199219 253.296875 143.03125 C 253.699219 142.863281 254.113281 142.734375 254.539062 142.648438 C 254.96875 142.558594 255.398438 142.515625 255.835938 142.511719 C 256.273438 142.511719 256.703125 142.550781 257.132812 142.632812 C 257.5625 142.710938 257.976562 142.835938 258.382812 143 C 258.785156 143.160156 259.171875 143.363281 259.535156 143.601562 C 259.902344 143.839844 260.242188 144.109375 260.550781 144.414062 L 272.074219 155.933594 C 272.777344 156.640625 273.40625 157.40625 273.957031 158.234375 C 274.507812 159.0625 274.972656 159.9375 275.355469 160.859375 C 275.734375 161.777344 276.019531 162.726562 276.210938 163.703125 C 276.402344 164.679688 276.5 165.667969 276.496094 166.660156 C 276.492188 167.65625 276.394531 168.644531 276.199219 169.617188 C 276 170.59375 275.710938 171.542969 275.328125 172.460938 C 274.945312 173.378906 274.476562 174.25 273.921875 175.078125 C 273.367188 175.902344 272.734375 176.667969 272.03125 177.371094 L 256.339844 193.066406 C 254.914062 194.488281 253.269531 195.585938 251.40625 196.355469 C 249.542969 197.125 247.605469 197.507812 245.589844 197.503906 Z M 245.589844 197.503906 " fill-opacity="1" fill-rule="nonzero"/><path fill="#000000" d="M 255.816406 74.539062 C 255.15625 74.539062 254.507812 74.441406 253.875 74.25 C 253.238281 74.054688 252.648438 73.777344 252.097656 73.410156 C 251.546875 73.039062 251.0625 72.601562 250.640625 72.089844 C 250.222656 71.578125 249.886719 71.015625 249.632812 70.402344 C 249.378906 69.792969 249.21875 69.15625 249.152344 68.496094 C 249.089844 67.839844 249.121094 67.183594 249.25 66.535156 C 249.378906 65.886719 249.601562 65.269531 249.914062 64.683594 C 250.226562 64.101562 250.613281 63.574219 251.082031 63.105469 L 262.605469 51.589844 C 262.941406 51.253906 263.109375 50.847656 263.109375 50.371094 C 263.109375 49.875 262.929688 49.449219 262.574219 49.097656 L 246.871094 33.398438 C 246.707031 33.226562 246.519531 33.097656 246.300781 33.003906 C 246.085938 32.910156 245.859375 32.863281 245.625 32.859375 C 245.390625 32.855469 245.164062 32.898438 244.945312 32.988281 C 244.726562 33.078125 244.535156 33.203125 244.367188 33.371094 L 232.859375 44.878906 C 232.546875 45.199219 232.210938 45.484375 231.84375 45.738281 C 231.480469 45.992188 231.09375 46.207031 230.683594 46.378906 C 230.277344 46.554688 229.855469 46.691406 229.417969 46.78125 C 228.984375 46.871094 228.542969 46.921875 228.097656 46.925781 C 227.65625 46.929688 227.214844 46.886719 226.777344 46.804688 C 226.339844 46.71875 225.917969 46.59375 225.503906 46.425781 C 225.09375 46.257812 224.703125 46.050781 224.332031 45.804688 C 223.960938 45.558594 223.621094 45.277344 223.304688 44.964844 C 222.992188 44.648438 222.710938 44.304688 222.464844 43.9375 C 222.21875 43.566406 222.011719 43.175781 221.84375 42.765625 C 221.675781 42.351562 221.546875 41.929688 221.464844 41.492188 C 221.382812 41.054688 221.339844 40.613281 221.34375 40.167969 C 221.347656 39.726562 221.394531 39.285156 221.488281 38.851562 C 221.578125 38.414062 221.710938 37.992188 221.886719 37.585938 C 222.0625 37.175781 222.277344 36.789062 222.53125 36.421875 C 222.78125 36.058594 223.070312 35.71875 223.390625 35.410156 L 234.90625 23.894531 C 235.613281 23.191406 236.378906 22.566406 237.207031 22.019531 C 238.035156 21.46875 238.910156 21.003906 239.828125 20.625 C 240.75 20.246094 241.695312 19.960938 242.671875 19.769531 C 243.648438 19.578125 244.632812 19.480469 245.625 19.484375 C 246.621094 19.484375 247.605469 19.582031 248.582031 19.777344 C 249.554688 19.972656 250.503906 20.257812 251.421875 20.640625 C 252.339844 21.019531 253.210938 21.488281 254.039062 22.039062 C 254.867188 22.589844 255.632812 23.21875 256.335938 23.917969 L 272.035156 39.628906 C 272.742188 40.332031 273.371094 41.09375 273.925781 41.921875 C 274.480469 42.75 274.949219 43.621094 275.332031 44.539062 C 275.714844 45.457031 276.003906 46.40625 276.199219 47.378906 C 276.394531 48.355469 276.492188 49.339844 276.496094 50.335938 C 276.496094 51.332031 276.402344 52.316406 276.210938 53.292969 C 276.015625 54.269531 275.730469 55.214844 275.351562 56.136719 C 274.972656 57.054688 274.507812 57.929688 273.957031 58.757812 C 273.40625 59.585938 272.777344 60.351562 272.074219 61.058594 L 260.550781 72.574219 C 259.925781 73.203125 259.203125 73.6875 258.382812 74.027344 C 257.558594 74.367188 256.707031 74.539062 255.816406 74.539062 Z M 255.816406 74.539062 " fill-opacity="1" fill-rule="nonzero"/><path fill="#000000" d="M 187.472656 139.566406 C 187.035156 139.566406 186.597656 139.523438 186.167969 139.4375 C 185.734375 139.351562 185.316406 139.222656 184.910156 139.054688 C 184.503906 138.886719 184.117188 138.679688 183.753906 138.4375 C 183.386719 138.191406 183.050781 137.914062 182.738281 137.605469 C 182.429688 137.292969 182.148438 136.957031 181.90625 136.589844 C 181.660156 136.222656 181.457031 135.839844 181.289062 135.433594 C 181.117188 135.027344 180.992188 134.605469 180.90625 134.175781 C 180.820312 133.746094 180.777344 133.308594 180.777344 132.871094 L 180.777344 84.125 C 180.777344 83.683594 180.820312 83.25 180.90625 82.816406 C 180.992188 82.386719 181.117188 81.96875 181.289062 81.5625 C 181.457031 81.15625 181.660156 80.769531 181.90625 80.402344 C 182.148438 80.039062 182.429688 79.699219 182.738281 79.390625 C 183.050781 79.078125 183.386719 78.800781 183.753906 78.554688 C 184.117188 78.3125 184.503906 78.105469 184.910156 77.9375 C 185.316406 77.769531 185.734375 77.640625 186.167969 77.554688 C 186.597656 77.46875 187.035156 77.425781 187.472656 77.425781 C 187.914062 77.425781 188.347656 77.46875 188.78125 77.554688 C 189.210938 77.640625 189.628906 77.769531 190.035156 77.9375 C 190.441406 78.105469 190.828125 78.3125 191.195312 78.554688 C 191.558594 78.800781 191.898438 79.078125 192.207031 79.390625 C 192.519531 79.699219 192.796875 80.039062 193.042969 80.402344 C 193.285156 80.769531 193.492188 81.15625 193.660156 81.5625 C 193.828125 81.96875 193.957031 82.386719 194.042969 82.816406 C 194.128906 83.25 194.171875 83.683594 194.171875 84.125 L 194.171875 132.871094 C 194.171875 133.308594 194.128906 133.746094 194.042969 134.175781 C 193.957031 134.605469 193.828125 135.027344 193.660156 135.433594 C 193.492188 135.839844 193.285156 136.222656 193.042969 136.589844 C 192.796875 136.957031 192.519531 137.292969 192.207031 137.605469 C 191.898438 137.914062 191.558594 138.191406 191.195312 138.4375 C 190.828125 138.679688 190.441406 138.886719 190.035156 139.054688 C 189.628906 139.222656 189.210938 139.351562 188.78125 139.4375 C 188.347656 139.523438 187.914062 139.566406 187.472656 139.566406 Z M 187.472656 139.566406 " fill-opacity="1" fill-rule="nonzero"/><path fill="#000000" d="M 172.328125 105.957031 C 171.667969 105.957031 171.019531 105.863281 170.386719 105.671875 C 169.75 105.476562 169.160156 105.199219 168.609375 104.832031 C 168.058594 104.460938 167.574219 104.023438 167.152344 103.511719 C 166.734375 103 166.394531 102.4375 166.144531 101.824219 C 165.890625 101.214844 165.730469 100.578125 165.664062 99.917969 C 165.601562 99.261719 165.632812 98.605469 165.761719 97.957031 C 165.890625 97.308594 166.109375 96.691406 166.421875 96.105469 C 166.734375 95.523438 167.125 94.996094 167.59375 94.527344 L 182.738281 79.390625 C 183.050781 79.078125 183.386719 78.800781 183.753906 78.554688 C 184.121094 78.3125 184.503906 78.105469 184.910156 77.9375 C 185.316406 77.769531 185.734375 77.640625 186.167969 77.554688 C 186.597656 77.46875 187.035156 77.425781 187.472656 77.425781 C 187.914062 77.425781 188.347656 77.46875 188.78125 77.554688 C 189.210938 77.640625 189.628906 77.769531 190.035156 77.9375 C 190.441406 78.105469 190.828125 78.3125 191.195312 78.554688 C 191.558594 78.800781 191.898438 79.078125 192.207031 79.390625 L 207.347656 94.527344 C 207.671875 94.835938 207.957031 95.171875 208.214844 95.539062 C 208.46875 95.90625 208.683594 96.292969 208.863281 96.703125 C 209.039062 97.109375 209.175781 97.535156 209.269531 97.96875 C 209.363281 98.40625 209.410156 98.847656 209.417969 99.292969 C 209.421875 99.738281 209.382812 100.179688 209.300781 100.621094 C 209.214844 101.058594 209.089844 101.484375 208.921875 101.898438 C 208.753906 102.308594 208.546875 102.703125 208.300781 103.074219 C 208.050781 103.445312 207.769531 103.789062 207.457031 104.105469 C 207.140625 104.417969 206.796875 104.699219 206.425781 104.949219 C 206.054688 105.195312 205.660156 105.402344 205.246094 105.570312 C 204.835938 105.738281 204.410156 105.863281 203.972656 105.949219 C 203.53125 106.03125 203.089844 106.070312 202.644531 106.066406 C 202.199219 106.058594 201.757812 106.011719 201.320312 105.917969 C 200.886719 105.824219 200.460938 105.6875 200.054688 105.511719 C 199.644531 105.332031 199.257812 105.117188 198.890625 104.863281 C 198.523438 104.605469 198.1875 104.316406 197.878906 103.996094 L 187.476562 93.589844 L 177.0625 103.996094 C 176.4375 104.625 175.710938 105.109375 174.890625 105.449219 C 174.070312 105.789062 173.21875 105.960938 172.328125 105.957031 Z M 172.328125 105.957031 " fill-opacity="1" fill-rule="nonzero"/><path fill="#000000" d="M 90.289062 226.148438 L 39.085938 226.148438 C 38.648438 226.148438 38.210938 226.105469 37.78125 226.019531 C 37.347656 225.933594 36.929688 225.808594 36.523438 225.636719 C 36.117188 225.46875 35.730469 225.265625 35.367188 225.019531 C 35 224.777344 34.664062 224.496094 34.351562 224.1875 C 34.039062 223.875 33.761719 223.539062 33.519531 223.171875 C 33.273438 222.808594 33.066406 222.421875 32.898438 222.015625 C 32.730469 221.609375 32.605469 221.191406 32.519531 220.757812 C 32.433594 220.328125 32.390625 219.890625 32.390625 219.453125 L 32.390625 196.523438 C 32.390625 196.085938 32.433594 195.648438 32.519531 195.21875 C 32.605469 194.785156 32.730469 194.367188 32.898438 193.960938 C 33.066406 193.554688 33.273438 193.167969 33.515625 192.804688 C 33.761719 192.4375 34.039062 192.097656 34.351562 191.789062 C 34.660156 191.476562 35 191.199219 35.363281 190.957031 C 35.730469 190.710938 36.117188 190.503906 36.523438 190.335938 C 36.929688 190.167969 37.347656 190.042969 37.78125 189.957031 C 38.210938 189.871094 38.648438 189.828125 39.085938 189.828125 L 90.289062 189.828125 C 90.730469 189.828125 91.164062 189.871094 91.597656 189.957031 C 92.027344 190.042969 92.449219 190.167969 92.855469 190.335938 C 93.261719 190.503906 93.644531 190.710938 94.011719 190.957031 C 94.378906 191.199219 94.714844 191.476562 95.027344 191.789062 C 95.335938 192.097656 95.617188 192.4375 95.859375 192.804688 C 96.105469 193.167969 96.308594 193.554688 96.476562 193.960938 C 96.648438 194.367188 96.773438 194.785156 96.859375 195.21875 C 96.945312 195.648438 96.988281 196.085938 96.988281 196.523438 L 96.988281 219.453125 C 96.988281 219.890625 96.945312 220.328125 96.859375 220.757812 C 96.773438 221.191406 96.644531 221.609375 96.476562 222.015625 C 96.308594 222.421875 96.101562 222.808594 95.859375 223.171875 C 95.613281 223.539062 95.335938 223.875 95.027344 224.1875 C 94.714844 224.496094 94.375 224.777344 94.011719 225.019531 C 93.644531 225.265625 93.257812 225.46875 92.851562 225.636719 C 92.445312 225.808594 92.027344 225.933594 91.597656 226.019531 C 91.164062 226.105469 90.730469 226.148438 90.289062 226.148438 Z M 45.78125 212.753906 L 83.59375 212.753906 L 83.59375 203.222656 L 45.78125 203.222656 Z M 45.78125 212.753906 " fill-opacity="1" fill-rule="nonzero"/><path fill="#000000" d="M 335.402344 226.148438 L 241.507812 226.148438 C 241.070312 226.148438 240.632812 226.105469 240.203125 226.019531 C 239.773438 225.933594 239.351562 225.808594 238.945312 225.636719 C 238.539062 225.46875 238.15625 225.265625 237.789062 225.019531 C 237.421875 224.777344 237.085938 224.496094 236.773438 224.1875 C 236.464844 223.875 236.1875 223.539062 235.941406 223.171875 C 235.695312 222.808594 235.492188 222.421875 235.324219 222.015625 C 235.15625 221.609375 235.027344 221.191406 234.941406 220.757812 C 234.855469 220.328125 234.8125 219.890625 234.8125 219.453125 C 234.8125 219.011719 234.855469 218.578125 234.941406 218.144531 C 235.027344 217.714844 235.15625 217.296875 235.324219 216.890625 C 235.492188 216.484375 235.695312 216.097656 235.941406 215.730469 C 236.1875 215.367188 236.464844 215.027344 236.773438 214.71875 C 237.085938 214.40625 237.421875 214.128906 237.789062 213.882812 C 238.15625 213.640625 238.539062 213.433594 238.945312 213.265625 C 239.351562 213.097656 239.773438 212.96875 240.203125 212.882812 C 240.632812 212.796875 241.070312 212.753906 241.507812 212.753906 L 335.402344 212.753906 C 335.84375 212.753906 336.277344 212.796875 336.710938 212.882812 C 337.140625 212.96875 337.558594 213.097656 337.964844 213.265625 C 338.371094 213.433594 338.757812 213.640625 339.125 213.882812 C 339.488281 214.128906 339.828125 214.40625 340.136719 214.71875 C 340.449219 215.027344 340.726562 215.367188 340.972656 215.730469 C 341.214844 216.097656 341.421875 216.484375 341.589844 216.890625 C 341.757812 217.296875 341.886719 217.714844 341.972656 218.144531 C 342.058594 218.578125 342.101562 219.011719 342.101562 219.453125 C 342.101562 219.890625 342.058594 220.328125 341.972656 220.757812 C 341.886719 221.191406 341.757812 221.609375 341.589844 222.015625 C 341.421875 222.421875 341.214844 222.808594 340.972656 223.171875 C 340.726562 223.539062 340.449219 223.875 340.136719 224.1875 C 339.828125 224.496094 339.488281 224.777344 339.125 225.019531 C 338.757812 225.265625 338.371094 225.46875 337.964844 225.636719 C 337.558594 225.808594 337.140625 225.933594 336.710938 226.019531 C 336.277344 226.105469 335.84375 226.148438 335.402344 226.148438 Z M 335.402344 226.148438 " fill-opacity="1" fill-rule="nonzero"/><path fill="#000000" d="M 335.402344 203.222656 L 285.507812 203.222656 C 285.066406 203.222656 284.632812 203.179688 284.199219 203.09375 C 283.769531 203.007812 283.351562 202.878906 282.945312 202.710938 C 282.539062 202.542969 282.152344 202.335938 281.785156 202.09375 C 281.421875 201.847656 281.082031 201.570312 280.773438 201.261719 C 280.460938 200.949219 280.183594 200.609375 279.9375 200.246094 C 279.695312 199.878906 279.488281 199.492188 279.320312 199.085938 C 279.152344 198.679688 279.023438 198.261719 278.9375 197.832031 C 278.851562 197.398438 278.808594 196.964844 278.808594 196.523438 C 278.808594 196.085938 278.851562 195.648438 278.9375 195.21875 C 279.023438 194.785156 279.152344 194.367188 279.320312 193.960938 C 279.488281 193.554688 279.695312 193.171875 279.9375 192.804688 C 280.183594 192.4375 280.460938 192.101562 280.773438 191.789062 C 281.082031 191.480469 281.421875 191.199219 281.785156 190.957031 C 282.152344 190.710938 282.539062 190.507812 282.945312 190.339844 C 283.351562 190.167969 283.769531 190.042969 284.199219 189.957031 C 284.632812 189.871094 285.066406 189.828125 285.507812 189.828125 L 335.402344 189.828125 C 335.84375 189.828125 336.277344 189.871094 336.710938 189.957031 C 337.140625 190.042969 337.558594 190.167969 337.964844 190.339844 C 338.371094 190.507812 338.757812 190.710938 339.125 190.957031 C 339.488281 191.199219 339.828125 191.480469 340.136719 191.789062 C 340.449219 192.101562 340.726562 192.4375 340.972656 192.804688 C 341.214844 193.171875 341.421875 193.554688 341.589844 193.960938 C 341.757812 194.367188 341.886719 194.785156 341.972656 195.21875 C 342.058594 195.648438 342.101562 196.085938 342.101562 196.523438 C 342.101562 196.964844 342.058594 197.398438 341.972656 197.832031 C 341.886719 198.261719 341.757812 198.679688 341.589844 199.085938 C 341.421875 199.492188 341.214844 199.878906 340.972656 200.246094 C 340.726562 200.609375 340.449219 200.949219 340.136719 201.261719 C 339.828125 201.570312 339.488281 201.847656 339.125 202.09375 C 338.757812 202.335938 338.371094 202.542969 337.964844 202.710938 C 337.558594 202.878906 337.140625 203.007812 336.710938 203.09375 C 336.277344 203.179688 335.84375 203.222656 335.402344 203.222656 Z M 335.402344 203.222656 " fill-opacity="1" fill-rule="nonzero"/><path fill="#000000" d="M 56.992188 180.109375 C 56.1875 180.109375 55.382812 180.070312 54.578125 179.992188 C 53.777344 179.914062 52.980469 179.796875 52.191406 179.636719 C 51.402344 179.480469 50.621094 179.285156 49.851562 179.050781 C 49.078125 178.816406 48.320312 178.546875 47.578125 178.238281 C 46.832031 177.929688 46.105469 177.585938 45.394531 177.207031 C 44.683594 176.824219 43.992188 176.410156 43.324219 175.964844 C 42.652344 175.515625 42.007812 175.039062 41.382812 174.527344 C 40.761719 174.015625 40.164062 173.472656 39.59375 172.90625 C 39.023438 172.335938 38.484375 171.738281 37.972656 171.117188 C 37.460938 170.492188 36.984375 169.847656 36.535156 169.175781 C 36.085938 168.507812 35.675781 167.816406 35.292969 167.105469 C 34.914062 166.394531 34.570312 165.667969 34.261719 164.921875 C 33.953125 164.179688 33.683594 163.421875 33.449219 162.648438 C 33.214844 161.878906 33.019531 161.097656 32.863281 160.308594 C 32.703125 159.519531 32.585938 158.722656 32.507812 157.921875 C 32.429688 157.117188 32.390625 156.3125 32.390625 155.507812 C 32.390625 154.703125 32.429688 153.898438 32.507812 153.097656 C 32.585938 152.296875 32.703125 151.5 32.863281 150.707031 C 33.019531 149.917969 33.214844 149.136719 33.449219 148.367188 C 33.683594 147.597656 33.953125 146.839844 34.261719 146.09375 C 34.570312 145.347656 34.914062 144.621094 35.292969 143.910156 C 35.675781 143.199219 36.089844 142.511719 36.535156 141.839844 C 36.984375 141.171875 37.460938 140.523438 37.972656 139.902344 C 38.484375 139.277344 39.027344 138.683594 39.59375 138.113281 C 40.164062 137.542969 40.761719 137 41.382812 136.492188 C 42.007812 135.980469 42.652344 135.5 43.324219 135.050781 C 43.992188 134.605469 44.683594 134.191406 45.394531 133.8125 C 46.105469 133.429688 46.832031 133.085938 47.578125 132.777344 C 48.320312 132.472656 49.078125 132.199219 49.851562 131.964844 C 50.621094 131.730469 51.402344 131.535156 52.191406 131.378906 C 52.980469 131.222656 53.777344 131.105469 54.582031 131.023438 C 55.382812 130.945312 56.1875 130.90625 56.992188 130.90625 C 57.796875 130.90625 58.601562 130.945312 59.402344 131.023438 C 60.203125 131.105469 61 131.222656 61.792969 131.378906 C 62.582031 131.535156 63.363281 131.730469 64.132812 131.964844 C 64.90625 132.199219 65.664062 132.472656 66.40625 132.78125 C 67.152344 133.085938 67.878906 133.433594 68.589844 133.8125 C 69.300781 134.191406 69.988281 134.605469 70.660156 135.054688 C 71.328125 135.5 71.976562 135.980469 72.597656 136.492188 C 73.222656 137.003906 73.816406 137.542969 74.386719 138.113281 C 74.957031 138.683594 75.5 139.277344 76.007812 139.902344 C 76.519531 140.523438 77 141.171875 77.449219 141.839844 C 77.894531 142.511719 78.308594 143.199219 78.6875 143.910156 C 79.070312 144.621094 79.414062 145.351562 79.722656 146.09375 C 80.027344 146.839844 80.300781 147.597656 80.535156 148.367188 C 80.769531 149.136719 80.964844 149.917969 81.121094 150.710938 C 81.277344 151.5 81.394531 152.296875 81.476562 153.097656 C 81.554688 153.898438 81.59375 154.703125 81.59375 155.507812 C 81.59375 156.316406 81.550781 157.117188 81.472656 157.917969 C 81.390625 158.722656 81.273438 159.515625 81.117188 160.304688 C 80.957031 161.097656 80.761719 161.875 80.527344 162.648438 C 80.292969 163.417969 80.019531 164.175781 79.710938 164.917969 C 79.402344 165.664062 79.058594 166.390625 78.679688 167.101562 C 78.300781 167.808594 77.886719 168.5 77.4375 169.167969 C 76.988281 169.839844 76.511719 170.484375 76 171.109375 C 75.488281 171.730469 74.949219 172.328125 74.378906 172.894531 C 73.808594 173.464844 73.210938 174.003906 72.589844 174.515625 C 71.96875 175.027344 71.320312 175.507812 70.652344 175.953125 C 69.980469 176.402344 69.292969 176.816406 68.582031 177.195312 C 67.871094 177.578125 67.144531 177.921875 66.402344 178.230469 C 65.65625 178.539062 64.898438 178.808594 64.128906 179.042969 C 63.359375 179.277344 62.578125 179.476562 61.789062 179.632812 C 61 179.789062 60.203125 179.910156 59.402344 179.988281 C 58.601562 180.070312 57.796875 180.109375 56.992188 180.109375 Z M 56.992188 144.300781 C 56.253906 144.300781 55.527344 144.371094 54.804688 144.515625 C 54.082031 144.660156 53.382812 144.871094 52.703125 145.152344 C 52.023438 145.433594 51.375 145.78125 50.765625 146.1875 C 50.152344 146.597656 49.585938 147.0625 49.066406 147.582031 C 48.542969 148.101562 48.082031 148.667969 47.671875 149.28125 C 47.261719 149.894531 46.917969 150.539062 46.636719 151.21875 C 46.355469 151.898438 46.140625 152.601562 45.996094 153.324219 C 45.855469 154.042969 45.78125 154.773438 45.78125 155.507812 C 45.78125 156.246094 45.855469 156.972656 45.996094 157.695312 C 46.140625 158.417969 46.355469 159.117188 46.636719 159.796875 C 46.917969 160.480469 47.261719 161.125 47.671875 161.738281 C 48.082031 162.347656 48.542969 162.914062 49.066406 163.433594 C 49.585938 163.957031 50.152344 164.421875 50.765625 164.828125 C 51.375 165.238281 52.023438 165.582031 52.703125 165.863281 C 53.382812 166.148438 54.082031 166.359375 54.804688 166.503906 C 55.527344 166.644531 56.253906 166.71875 56.992188 166.71875 C 57.726562 166.71875 58.457031 166.644531 59.179688 166.503906 C 59.898438 166.359375 60.601562 166.148438 61.28125 165.863281 C 61.960938 165.582031 62.605469 165.238281 63.21875 164.828125 C 63.832031 164.421875 64.398438 163.957031 64.917969 163.433594 C 65.4375 162.914062 65.902344 162.347656 66.3125 161.738281 C 66.71875 161.125 67.066406 160.480469 67.347656 159.796875 C 67.628906 159.117188 67.839844 158.417969 67.984375 157.695312 C 68.128906 156.972656 68.199219 156.246094 68.199219 155.507812 C 68.199219 154.773438 68.128906 154.042969 67.984375 153.324219 C 67.839844 152.601562 67.625 151.902344 67.34375 151.222656 C 67.0625 150.542969 66.714844 149.894531 66.308594 149.285156 C 65.898438 148.671875 65.433594 148.105469 64.914062 147.585938 C 64.394531 147.066406 63.828125 146.601562 63.214844 146.191406 C 62.605469 145.785156 61.957031 145.4375 61.277344 145.15625 C 60.597656 144.875 59.898438 144.660156 59.175781 144.515625 C 58.457031 144.375 57.726562 144.300781 56.992188 144.300781 Z M 56.992188 144.300781 " fill-opacity="1" fill-rule="nonzero"/></svg>