<svg xmlns="http://www.w3.org/2000/svg" xmlns:xlink="http://www.w3.org/1999/xlink" width="500" zoomAndPan="magnify" viewBox="0 0 375 374.999991" height="500" preserveAspectRatio="xMidYMid meet" version="1.0"><defs><clipPath id="62bb35c744"><path d="M 169 0 L 371.53125 0 L 371.53125 202 L 169 202 Z M 169 0 " clip-rule="nonzero"/></clipPath><clipPath id="75ed9f09d4"><path d="M 3.28125 173 L 206 173 L 206 375 L 3.28125 375 Z M 3.28125 173 " clip-rule="nonzero"/></clipPath></defs><path fill="#fcfcff" d="M 322.28125 216.734375 C 322.171875 216.578125 322.046875 216.433594 321.902344 216.308594 C 321.757812 216.179688 321.601562 216.074219 321.433594 215.984375 C 321.265625 215.894531 321.085938 215.828125 320.902344 215.78125 C 320.714844 215.734375 320.527344 215.710938 320.335938 215.710938 C 320.144531 215.710938 319.953125 215.734375 319.769531 215.78125 C 319.582031 215.828125 319.40625 215.894531 319.234375 215.984375 C 319.066406 216.074219 318.910156 216.179688 318.765625 216.308594 C 318.625 216.433594 318.5 216.578125 318.390625 216.734375 L 276.9375 279.152344 C 276.714844 279.5 276.601562 279.875 276.589844 280.289062 C 276.582031 280.699219 276.679688 281.082031 276.882812 281.4375 C 277.085938 281.792969 277.367188 282.070312 277.726562 282.269531 C 278.085938 282.46875 278.46875 282.558594 278.878906 282.542969 L 300.828125 282.5625 C 301.164062 282.550781 301.484375 282.613281 301.789062 282.746094 C 302.09375 282.875 302.359375 283.066406 302.578125 283.316406 C 302.800781 283.570312 302.953125 283.855469 303.046875 284.175781 C 303.136719 284.496094 303.15625 284.820312 303.101562 285.148438 C 302.109375 290.105469 300.738281 294.953125 298.992188 299.695312 C 297.246094 304.4375 295.144531 309.015625 292.691406 313.433594 C 290.234375 317.851562 287.453125 322.050781 284.347656 326.039062 C 281.242188 330.023438 277.847656 333.746094 274.164062 337.207031 C 270.25 340.839844 266.082031 344.160156 261.664062 347.160156 C 257.242188 350.164062 252.625 352.816406 247.800781 355.117188 C 242.980469 357.417969 238.015625 359.34375 232.902344 360.894531 C 227.789062 362.441406 222.589844 363.597656 217.300781 364.359375 C 223.101562 366.03125 229.003906 367.171875 235.011719 367.78125 C 241.015625 368.390625 247.027344 368.460938 253.046875 367.984375 C 259.066406 367.511719 264.992188 366.507812 270.832031 364.964844 C 276.667969 363.425781 282.320312 361.375 287.789062 358.820312 C 329.578125 338.28125 337.363281 294.570312 338.609375 284.511719 C 338.648438 284.238281 338.734375 283.980469 338.867188 283.738281 C 339 283.496094 339.171875 283.285156 339.382812 283.105469 C 339.59375 282.925781 339.832031 282.789062 340.089844 282.695312 C 340.351562 282.601562 340.621094 282.558594 340.898438 282.5625 L 361.789062 282.542969 C 362.199219 282.558594 362.585938 282.46875 362.945312 282.269531 C 363.304688 282.070312 363.585938 281.792969 363.789062 281.4375 C 363.992188 281.082031 364.089844 280.699219 364.078125 280.289062 C 364.070312 279.878906 363.953125 279.5 363.734375 279.152344 Z M 322.28125 216.734375 " fill-opacity="1" fill-rule="nonzero"/><path fill="#fcfcff" d="M 52.25 168.234375 C 52.355469 168.394531 52.476562 168.542969 52.617188 168.675781 C 52.757812 168.808594 52.914062 168.921875 53.085938 169.015625 C 53.253906 169.109375 53.433594 169.179688 53.621094 169.226562 C 53.808594 169.277344 54 169.300781 54.195312 169.300781 C 54.390625 169.300781 54.578125 169.277344 54.769531 169.226562 C 54.957031 169.179688 55.132812 169.109375 55.304688 169.015625 C 55.476562 168.921875 55.628906 168.808594 55.773438 168.675781 C 55.914062 168.542969 56.035156 168.394531 56.140625 168.234375 L 97.59375 103.039062 C 97.820312 102.683594 97.9375 102.296875 97.953125 101.875 C 97.964844 101.457031 97.871094 101.0625 97.667969 100.691406 C 97.46875 100.324219 97.183594 100.03125 96.824219 99.816406 C 96.460938 99.601562 96.070312 99.496094 95.648438 99.496094 L 73.699219 99.476562 C 73.359375 99.480469 73.03125 99.410156 72.722656 99.265625 C 72.414062 99.125 72.148438 98.921875 71.929688 98.660156 C 71.707031 98.398438 71.554688 98.101562 71.46875 97.773438 C 71.378906 97.445312 71.367188 97.109375 71.429688 96.773438 C 71.914062 94.167969 72.5 91.585938 73.1875 89.027344 C 73.871094 86.464844 74.65625 83.9375 75.539062 81.4375 C 76.421875 78.9375 77.398438 76.476562 78.472656 74.050781 C 79.542969 71.628906 80.707031 69.25 81.964844 66.917969 C 83.222656 64.582031 84.566406 62.300781 86 60.070312 C 87.433594 57.84375 88.953125 55.671875 90.554688 53.558594 C 92.15625 51.449219 93.835938 49.402344 95.597656 47.417969 C 97.355469 45.4375 99.191406 43.527344 101.097656 41.6875 C 103.007812 39.847656 104.984375 38.085938 107.027344 36.398438 C 109.070312 34.710938 111.179688 33.105469 113.347656 31.582031 C 115.515625 30.058594 117.742188 28.621094 120.019531 27.269531 C 122.300781 25.917969 124.628906 24.65625 127.007812 23.484375 C 129.386719 22.3125 131.804688 21.238281 134.265625 20.253906 C 136.726562 19.269531 139.222656 18.382812 141.753906 17.59375 C 144.28125 16.800781 146.839844 16.109375 149.421875 15.515625 C 152.007812 14.925781 154.609375 14.433594 157.230469 14.042969 C 92.394531 -5.023438 41.796875 42.179688 35.921875 97.441406 C 35.886719 97.722656 35.804688 97.988281 35.675781 98.238281 C 35.546875 98.488281 35.375 98.707031 35.164062 98.894531 C 34.953125 99.082031 34.714844 99.226562 34.453125 99.324219 C 34.1875 99.425781 33.914062 99.476562 33.632812 99.476562 L 12.738281 99.496094 C 12.320312 99.496094 11.929688 99.601562 11.566406 99.816406 C 11.203125 100.03125 10.921875 100.324219 10.71875 100.691406 C 10.519531 101.058594 10.421875 101.453125 10.4375 101.875 C 10.449219 102.296875 10.570312 102.683594 10.796875 103.039062 Z M 52.25 168.234375 " fill-opacity="1" fill-rule="nonzero"/><g clip-path="url(#62bb35c744)"><path fill="#fcfcff" d="M 342.851562 170.847656 C 428.769531 73.570312 300.515625 -57.199219 201.980469 27.035156 C 134.277344 89.757812 179.796875 201.761719 272.886719 201.617188 L 350.945312 201.617188 C 354.023438 201.617188 363.523438 201.617188 365.796875 194.660156 C 366.050781 193.84375 366.171875 193.003906 366.160156 192.148438 C 366.152344 191.292969 366.007812 190.457031 365.730469 189.644531 C 365.453125 188.832031 365.058594 188.085938 364.542969 187.398438 C 364.03125 186.714844 363.421875 186.125 362.71875 185.632812 Z M 242.183594 136.199219 C 238.269531 144.941406 238.601562 149.777344 229.808594 150.246094 C 229.136719 150.242188 228.472656 150.171875 227.8125 150.039062 C 227.152344 149.910156 226.511719 149.71875 225.890625 149.46875 C 225.265625 149.214844 224.671875 148.910156 224.105469 148.546875 C 223.542969 148.183594 223.015625 147.773438 222.527344 147.3125 C 222.039062 146.851562 221.59375 146.347656 221.199219 145.804688 C 220.804688 145.261719 220.464844 144.6875 220.179688 144.078125 C 219.890625 143.472656 219.664062 142.84375 219.496094 142.191406 C 219.324219 141.542969 219.21875 140.882812 219.171875 140.210938 C 219.539062 136.222656 220.609375 132.433594 222.382812 128.839844 L 250.542969 57.46875 C 253.234375 51.085938 255.382812 41.859375 262.050781 38.269531 C 262.601562 38 263.167969 37.757812 263.746094 37.546875 C 264.324219 37.335938 264.914062 37.160156 265.511719 37.015625 C 266.109375 36.867188 266.714844 36.757812 267.324219 36.675781 C 267.9375 36.597656 268.550781 36.550781 269.164062 36.539062 C 269.78125 36.527344 270.394531 36.546875 271.007812 36.601562 C 271.621094 36.65625 272.230469 36.746094 272.835938 36.867188 C 273.4375 36.988281 274.03125 37.144531 274.621094 37.332031 C 275.207031 37.515625 275.78125 37.734375 276.34375 37.984375 C 276.90625 38.234375 277.453125 38.515625 277.988281 38.824219 C 278.519531 39.132812 279.035156 39.472656 279.527344 39.835938 C 280.023438 40.203125 280.496094 40.59375 280.949219 41.011719 C 281.402344 41.429688 281.832031 41.871094 282.234375 42.335938 C 282.640625 42.800781 283.015625 43.285156 283.367188 43.792969 C 283.71875 44.296875 284.042969 44.820312 284.335938 45.363281 C 284.628906 45.90625 284.890625 46.460938 285.125 47.03125 C 285.355469 47.601562 285.558594 48.179688 285.726562 48.773438 C 286.265625 51.351562 316.136719 123.457031 317.835938 128.238281 C 319.609375 131.976562 320.726562 135.902344 321.179688 140.011719 C 321.113281 141.054688 320.898438 142.066406 320.535156 143.046875 C 320.171875 144.027344 319.679688 144.9375 319.050781 145.773438 C 318.425781 146.609375 317.691406 147.339844 316.851562 147.960938 C 316.011719 148.585938 315.101562 149.074219 314.121094 149.433594 C 313.136719 149.792969 312.125 150.003906 311.082031 150.066406 C 310.039062 150.128906 309.007812 150.042969 307.988281 149.804688 C 306.972656 149.570312 306.007812 149.191406 305.101562 148.675781 C 304.191406 148.160156 303.375 147.523438 302.652344 146.769531 C 298.484375 138.824219 294.984375 130.597656 292.148438 122.085938 L 247.46875 122.085938 Z M 242.183594 136.199219 " fill-opacity="1" fill-rule="nonzero"/></g><path fill="#fcfcff" d="M 253.285156 105.363281 L 286.132812 105.363281 L 269.539062 60.011719 Z M 253.285156 105.363281 " fill-opacity="1" fill-rule="nonzero"/><g clip-path="url(#75ed9f09d4)"><path fill="#fcfcff" d="M 89.203125 174.863281 C 9.617188 186.5 -24.511719 286.015625 31.542969 343.761719 L 36.359375 339.214844 L 31.476562 344.566406 L 11.808594 359.011719 C 11.105469 359.503906 10.492188 360.089844 9.976562 360.773438 C 9.460938 361.460938 9.0625 362.210938 8.785156 363.023438 C 8.507812 363.835938 8.367188 364.667969 8.355469 365.527344 C 8.347656 366.386719 8.472656 367.226562 8.734375 368.042969 C 11.007812 375 20.507812 375 23.582031 375 L 101.644531 375 C 103.246094 375.019531 104.84375 375 106.441406 374.945312 C 108.042969 374.890625 109.640625 374.796875 111.234375 374.664062 C 112.828125 374.535156 114.417969 374.367188 116.007812 374.160156 C 117.59375 373.957031 119.175781 373.714844 120.75 373.433594 C 122.324219 373.152344 123.894531 372.835938 125.453125 372.484375 C 127.015625 372.132812 128.566406 371.742188 130.109375 371.316406 C 131.648438 370.890625 133.179688 370.425781 134.703125 369.929688 C 136.222656 369.429688 137.730469 368.898438 139.226562 368.328125 C 140.722656 367.761719 142.203125 367.15625 143.671875 366.519531 C 145.136719 365.878906 146.589844 365.207031 148.023438 364.5 C 149.460938 363.792969 150.878906 363.054688 152.277344 362.28125 C 153.679688 361.507812 155.0625 360.703125 156.425781 359.863281 C 157.789062 359.027344 159.128906 358.15625 160.453125 357.257812 C 161.773438 356.355469 163.074219 355.425781 164.355469 354.460938 C 165.632812 353.5 166.886719 352.507812 168.121094 351.488281 C 169.351562 350.46875 170.558594 349.417969 171.742188 348.339844 C 172.925781 347.261719 174.082031 346.15625 175.210938 345.027344 C 176.34375 343.894531 177.445312 342.734375 178.523438 341.550781 C 179.601562 340.367188 180.648438 339.160156 181.667969 337.925781 C 182.6875 336.695312 183.679688 335.4375 184.636719 334.160156 C 185.597656 332.878906 186.53125 331.578125 187.429688 330.253906 C 188.328125 328.929688 189.195312 327.585938 190.035156 326.222656 C 190.871094 324.859375 191.675781 323.476562 192.445312 322.074219 C 193.21875 320.675781 193.957031 319.253906 194.660156 317.820312 C 195.367188 316.382812 196.039062 314.929688 196.675781 313.460938 C 197.3125 311.996094 197.914062 310.511719 198.480469 309.015625 C 199.046875 307.519531 199.582031 306.011719 200.078125 304.492188 C 200.574219 302.96875 201.035156 301.4375 201.457031 299.894531 C 201.882812 298.351562 202.269531 296.800781 202.621094 295.238281 C 202.972656 293.679688 203.289062 292.109375 203.566406 290.535156 C 203.847656 288.960938 204.085938 287.378906 204.289062 285.792969 C 204.496094 284.203125 204.660156 282.613281 204.789062 281.019531 C 210.023438 218.410156 151.296875 164.398438 89.203125 174.863281 Z M 163.117188 321.6875 C 157.898438 340.351562 112.949219 309.980469 103.851562 303.226562 C 97.632812 308.808594 90.914062 313.699219 83.691406 317.898438 C 76.472656 322.101562 68.898438 325.527344 60.976562 328.175781 C 60.460938 328.164062 59.949219 328.109375 59.445312 328.011719 C 58.9375 327.914062 58.445312 327.777344 57.960938 327.59375 C 57.480469 327.414062 57.015625 327.191406 56.574219 326.933594 C 56.128906 326.671875 55.707031 326.378906 55.3125 326.046875 C 54.917969 325.714844 54.554688 325.355469 54.222656 324.960938 C 53.886719 324.570312 53.589844 324.152344 53.328125 323.707031 C 53.066406 323.265625 52.84375 322.804688 52.65625 322.320312 C 52.472656 321.839844 52.332031 321.347656 52.230469 320.84375 C 52.128906 320.335938 52.074219 319.828125 52.058594 319.3125 C 52.042969 318.796875 52.074219 318.285156 52.144531 317.777344 C 52.21875 317.265625 52.332031 316.765625 52.492188 316.277344 C 52.648438 315.785156 52.847656 315.3125 53.082031 314.855469 C 53.320312 314.398438 53.59375 313.964844 53.90625 313.554688 C 54.21875 313.144531 54.5625 312.761719 54.9375 312.410156 C 55.3125 312.058594 55.714844 311.738281 56.144531 311.457031 C 56.574219 311.171875 57.023438 310.925781 57.496094 310.71875 C 69.214844 305.804688 79.984375 299.316406 89.804688 291.253906 C 82.121094 283.625 75.34375 275.261719 69.46875 266.167969 C 69.152344 265.664062 68.882812 265.132812 68.667969 264.578125 C 68.453125 264.023438 68.292969 263.449219 68.1875 262.863281 C 68.085938 262.273438 68.039062 261.683594 68.050781 261.085938 C 68.0625 260.488281 68.132812 259.902344 68.261719 259.316406 C 68.386719 258.734375 68.570312 258.167969 68.808594 257.621094 C 69.042969 257.074219 69.332031 256.554688 69.671875 256.066406 C 70.011719 255.574219 70.394531 255.121094 70.820312 254.703125 C 71.25 254.289062 71.710938 253.917969 72.210938 253.59375 C 72.714844 253.273438 73.242188 253.003906 73.792969 252.789062 C 74.347656 252.574219 74.917969 252.414062 75.503906 252.308594 C 76.085938 252.203125 76.675781 252.15625 77.273438 252.167969 C 77.867188 252.179688 78.453125 252.25 79.035156 252.378906 C 79.613281 252.503906 80.175781 252.6875 80.722656 252.925781 C 81.265625 253.164062 81.78125 253.453125 82.269531 253.792969 C 82.757812 254.132812 83.207031 254.515625 83.621094 254.945312 C 84.035156 255.371094 84.398438 255.835938 84.722656 256.335938 C 89.992188 264.589844 96.148438 272.128906 103.183594 278.945312 C 112.828125 268.660156 120.585938 257.109375 126.460938 244.296875 L 54.152344 244.296875 C 53.5625 244.285156 52.980469 244.21875 52.40625 244.09375 C 51.832031 243.96875 51.273438 243.792969 50.734375 243.558594 C 50.191406 243.328125 49.679688 243.042969 49.195312 242.710938 C 48.707031 242.378906 48.257812 242.003906 47.847656 241.585938 C 47.433594 241.164062 47.066406 240.707031 46.742188 240.21875 C 46.417969 239.726562 46.144531 239.207031 45.921875 238.664062 C 45.699219 238.117188 45.53125 237.558594 45.417969 236.980469 C 45.304688 236.402344 45.25 235.820312 45.25 235.230469 C 45.25 234.644531 45.304688 234.058594 45.417969 233.484375 C 45.53125 232.90625 45.699219 232.34375 45.921875 231.800781 C 46.144531 231.253906 46.417969 230.738281 46.742188 230.246094 C 47.066406 229.753906 47.433594 229.296875 47.847656 228.878906 C 48.257812 228.460938 48.707031 228.082031 49.195312 227.75 C 49.679688 227.417969 50.191406 227.136719 50.734375 226.902344 C 51.273438 226.671875 51.832031 226.492188 52.40625 226.371094 C 52.980469 226.246094 53.5625 226.179688 54.152344 226.167969 L 94.886719 226.167969 L 94.886719 216.804688 C 94.898438 216.214844 94.96875 215.632812 95.09375 215.058594 C 95.21875 214.484375 95.398438 213.929688 95.628906 213.390625 C 95.863281 212.851562 96.144531 212.339844 96.476562 211.855469 C 96.808594 211.371094 97.1875 210.921875 97.605469 210.511719 C 98.027344 210.097656 98.480469 209.730469 98.972656 209.410156 C 99.464844 209.085938 99.980469 208.8125 100.523438 208.589844 C 101.070312 208.371094 101.628906 208.203125 102.207031 208.089844 C 102.78125 207.976562 103.363281 207.917969 103.953125 207.917969 C 104.539062 207.917969 105.121094 207.976562 105.699219 208.089844 C 106.273438 208.203125 106.835938 208.371094 107.378906 208.589844 C 107.921875 208.8125 108.441406 209.085938 108.933594 209.410156 C 109.421875 209.730469 109.878906 210.097656 110.296875 210.511719 C 110.71875 210.921875 111.09375 211.371094 111.425781 211.855469 C 111.757812 212.339844 112.042969 212.851562 112.273438 213.390625 C 112.507812 213.929688 112.6875 214.488281 112.8125 215.0625 C 112.9375 215.636719 113.003906 216.214844 113.015625 216.804688 L 113.015625 226.167969 L 153.753906 226.167969 C 154.34375 226.175781 154.929688 226.238281 155.507812 226.359375 C 156.085938 226.480469 156.648438 226.65625 157.191406 226.886719 C 157.734375 227.117188 158.253906 227.398438 158.742188 227.726562 C 159.230469 228.058594 159.683594 228.4375 160.097656 228.855469 C 160.515625 229.277344 160.886719 229.734375 161.214844 230.226562 C 161.539062 230.71875 161.816406 231.238281 162.039062 231.785156 C 162.265625 232.332031 162.433594 232.894531 162.550781 233.476562 C 162.664062 234.054688 162.722656 234.640625 162.722656 235.230469 C 162.71875 235.824219 162.664062 236.410156 162.550781 236.988281 C 162.433594 237.566406 162.265625 238.132812 162.039062 238.679688 C 161.816406 239.226562 161.539062 239.746094 161.210938 240.238281 C 160.886719 240.730469 160.515625 241.1875 160.097656 241.605469 C 159.683594 242.027344 159.230469 242.402344 158.742188 242.734375 C 158.253906 243.066406 157.734375 243.347656 157.191406 243.578125 C 156.648438 243.808594 156.085938 243.984375 155.507812 244.105469 C 154.925781 244.226562 154.34375 244.289062 153.75 244.296875 L 145.992188 244.296875 C 142.632812 252.820312 138.53125 260.972656 133.6875 268.753906 C 128.839844 276.53125 123.332031 283.808594 117.164062 290.582031 C 129.273438 299.523438 142.539062 306.148438 156.964844 310.449219 C 157.535156 310.617188 158.085938 310.835938 158.613281 311.109375 C 159.140625 311.386719 159.636719 311.707031 160.101562 312.082031 C 160.566406 312.453125 160.988281 312.867188 161.371094 313.324219 C 161.753906 313.78125 162.089844 314.269531 162.375 314.792969 C 162.660156 315.3125 162.890625 315.859375 163.070312 316.425781 C 163.25 316.992188 163.371094 317.574219 163.433594 318.164062 C 163.496094 318.757812 163.503906 319.347656 163.449219 319.941406 C 163.394531 320.535156 163.285156 321.117188 163.117188 321.6875 Z M 163.117188 321.6875 " fill-opacity="1" fill-rule="nonzero"/></g></svg>