<svg xmlns="http://www.w3.org/2000/svg" xmlns:xlink="http://www.w3.org/1999/xlink" width="500" zoomAndPan="magnify" viewBox="0 0 375 374.999991" height="500" preserveAspectRatio="xMidYMid meet" version="1.0"><defs><clipPath id="1209591c35"><path d="M 0 34.6875 L 375 34.6875 L 375 286 L 0 286 Z M 0 34.6875 " clip-rule="nonzero"/></clipPath><clipPath id="6d5aa8770f"><path d="M 143 273 L 166 273 L 166 340.6875 L 143 340.6875 Z M 143 273 " clip-rule="nonzero"/></clipPath><clipPath id="d826281d9a"><path d="M 209 273 L 232 273 L 232 340.6875 L 209 340.6875 Z M 209 273 " clip-rule="nonzero"/></clipPath><clipPath id="aafd4e82df"><path d="M 118 328 L 258 328 L 258 340.6875 L 118 340.6875 Z M 118 328 " clip-rule="nonzero"/></clipPath></defs><g clip-path="url(#1209591c35)"><path fill="#000000" d="M 342.5 285.695312 L 32.515625 285.695312 C 14.621094 285.695312 0.0585938 271.117188 0.0585938 253.203125 L 0.0585938 67.167969 C 0.0585938 49.25 14.621094 34.671875 32.515625 34.671875 L 342.5 34.671875 C 360.394531 34.671875 374.957031 49.25 374.957031 67.167969 L 374.957031 253.195312 C 374.957031 271.117188 360.394531 285.695312 342.5 285.695312 Z M 32.515625 46.402344 C 21.082031 46.402344 11.773438 55.71875 11.773438 67.167969 L 11.773438 253.195312 C 11.773438 264.640625 21.082031 273.957031 32.515625 273.957031 L 342.5 273.957031 C 353.933594 273.957031 363.238281 264.640625 363.238281 253.195312 L 363.238281 67.167969 C 363.238281 55.71875 353.933594 46.402344 342.5 46.402344 Z M 32.515625 46.402344 " fill-opacity="1" fill-rule="nonzero"/></g><g clip-path="url(#6d5aa8770f)"><path fill="#000000" d="M 149.492188 340.6875 C 148.769531 340.6875 148.035156 340.550781 147.320312 340.265625 C 144.3125 339.0625 142.859375 335.65625 144.054688 332.644531 C 150.109375 317.496094 153.574219 299.175781 154.078125 279.679688 C 154.160156 276.441406 156.839844 273.867188 160.085938 273.964844 C 163.320312 274.050781 165.875 276.746094 165.792969 279.984375 C 165.25 300.855469 161.5 320.574219 154.9375 337 C 154.015625 339.289062 151.820312 340.6875 149.492188 340.6875 Z M 149.492188 340.6875 " fill-opacity="1" fill-rule="nonzero"/></g><g clip-path="url(#d826281d9a)"><path fill="#000000" d="M 225.523438 340.6875 C 223.195312 340.6875 221 339.289062 220.082031 337 C 213.523438 320.566406 209.765625 300.847656 209.230469 279.984375 C 209.144531 276.746094 211.703125 274.050781 214.933594 273.964844 C 218.152344 273.882812 220.863281 276.441406 220.945312 279.679688 C 221.449219 299.175781 224.910156 317.488281 230.96875 332.644531 C 232.171875 335.65625 230.707031 339.070312 227.703125 340.265625 C 226.980469 340.550781 226.246094 340.6875 225.523438 340.6875 Z M 225.523438 340.6875 " fill-opacity="1" fill-rule="nonzero"/></g><g clip-path="url(#aafd4e82df)"><path fill="#000000" d="M 251.15625 340.6875 L 123.859375 340.6875 C 120.625 340.6875 118 338.058594 118 334.824219 C 118 331.585938 120.625 328.957031 123.859375 328.957031 L 251.15625 328.957031 C 254.390625 328.957031 257.015625 331.585938 257.015625 334.824219 C 257.015625 338.058594 254.390625 340.6875 251.15625 340.6875 Z M 251.15625 340.6875 " fill-opacity="1" fill-rule="nonzero"/></g><path fill="#000000" d="M 369.097656 243.769531 L 5.917969 243.769531 C 2.683594 243.769531 0.0585938 241.144531 0.0585938 237.90625 C 0.0585938 234.667969 2.683594 232.042969 5.917969 232.042969 L 369.097656 232.042969 C 372.332031 232.042969 374.957031 234.667969 374.957031 237.90625 C 374.957031 241.144531 372.332031 243.769531 369.097656 243.769531 Z M 369.097656 243.769531 " fill-opacity="1" fill-rule="nonzero"/><path fill="#000000" d="M 199.574219 228.085938 L 175.449219 228.085938 C 167.867188 228.085938 161.695312 221.90625 161.695312 214.316406 L 161.695312 201.625 L 152.734375 210.597656 C 150.140625 213.195312 146.6875 214.621094 143.011719 214.621094 C 139.332031 214.621094 135.878906 213.195312 133.285156 210.597656 L 116.222656 193.515625 C 110.859375 188.144531 110.859375 179.410156 116.222656 174.039062 L 125.183594 165.066406 L 112.507812 165.066406 C 104.925781 165.066406 98.757812 158.890625 98.757812 151.300781 L 98.757812 127.144531 C 98.757812 119.554688 104.925781 113.375 112.507812 113.375 L 125.183594 113.375 L 116.222656 104.402344 C 113.628906 101.804688 112.203125 98.347656 112.203125 94.664062 C 112.203125 90.984375 113.628906 87.523438 116.222656 84.929688 L 133.285156 67.847656 C 135.878906 65.25 139.332031 63.820312 143.011719 63.820312 C 146.6875 63.820312 150.140625 65.25 152.734375 67.847656 L 161.695312 76.820312 L 161.695312 64.132812 C 161.695312 56.542969 167.867188 50.367188 175.449219 50.367188 L 199.574219 50.367188 C 207.15625 50.367188 213.324219 56.542969 213.324219 64.132812 L 213.324219 76.828125 L 222.289062 67.851562 C 224.882812 65.257812 228.335938 63.828125 232.011719 63.828125 C 235.6875 63.828125 239.144531 65.257812 241.738281 67.851562 L 258.800781 84.9375 C 261.394531 87.53125 262.820312 90.992188 262.820312 94.671875 C 262.820312 98.355469 261.394531 101.8125 258.800781 104.410156 L 249.835938 113.382812 L 262.515625 113.382812 C 270.097656 113.382812 276.265625 119.5625 276.265625 127.152344 L 276.265625 151.304688 C 276.265625 158.898438 270.097656 165.074219 262.515625 165.074219 L 249.835938 165.074219 L 258.800781 174.046875 C 264.160156 179.417969 264.160156 188.152344 258.800781 193.523438 L 241.738281 210.605469 C 239.144531 213.203125 235.6875 214.628906 232.011719 214.628906 C 228.328125 214.628906 224.882812 213.203125 222.289062 210.605469 L 213.324219 201.625 L 213.324219 214.316406 C 213.324219 221.90625 207.15625 228.085938 199.574219 228.085938 Z M 161.222656 187.933594 C 162.085938 187.933594 162.957031 188.121094 163.773438 188.519531 C 165.625 189.421875 167.546875 190.214844 169.484375 190.894531 C 171.832031 191.71875 173.414062 193.941406 173.414062 196.429688 L 173.414062 214.316406 C 173.414062 215.421875 174.34375 216.355469 175.449219 216.355469 L 199.574219 216.355469 C 200.679688 216.355469 201.609375 215.421875 201.609375 214.316406 L 201.609375 196.429688 C 201.609375 193.933594 203.183594 191.71875 205.539062 190.894531 C 207.476562 190.214844 209.398438 189.421875 211.25 188.519531 C 213.492188 187.433594 216.179688 187.886719 217.941406 189.648438 L 230.570312 202.296875 C 231.082031 202.808594 231.691406 202.882812 232.011719 202.882812 C 232.332031 202.882812 232.941406 202.808594 233.453125 202.296875 L 250.515625 185.214844 C 251.292969 184.433594 251.292969 183.113281 250.515625 182.328125 L 237.878906 169.671875 C 236.117188 167.910156 235.660156 165.21875 236.75 162.976562 C 237.648438 161.113281 238.441406 159.1875 239.121094 157.261719 C 239.945312 154.910156 242.164062 153.332031 244.652344 153.332031 L 262.515625 153.332031 C 263.621094 153.332031 264.550781 152.398438 264.550781 151.292969 L 264.550781 127.136719 C 264.550781 126.03125 263.621094 125.097656 262.515625 125.097656 L 244.652344 125.097656 C 242.15625 125.097656 239.945312 123.523438 239.121094 121.164062 C 238.441406 119.226562 237.648438 117.300781 236.75 115.445312 C 235.667969 113.199219 236.117188 110.511719 237.886719 108.746094 L 250.515625 96.101562 C 251.027344 95.589844 251.105469 94.980469 251.105469 94.65625 C 251.105469 94.335938 251.027344 93.726562 250.515625 93.214844 L 233.453125 76.132812 C 232.941406 75.621094 232.332031 75.542969 232.011719 75.542969 C 231.691406 75.542969 231.082031 75.621094 230.570312 76.132812 L 217.933594 88.777344 C 216.171875 90.542969 213.484375 91 211.242188 89.90625 C 209.390625 89.007812 207.46875 88.210938 205.53125 87.53125 C 203.183594 86.707031 201.601562 84.484375 201.601562 81.996094 L 201.601562 64.132812 C 201.601562 63.027344 200.671875 62.09375 199.566406 62.09375 L 175.441406 62.09375 C 174.335938 62.09375 173.40625 63.027344 173.40625 64.132812 L 173.40625 82.019531 C 173.40625 84.515625 171.832031 86.730469 169.476562 87.554688 C 167.539062 88.234375 165.617188 89.03125 163.765625 89.921875 C 161.519531 91.007812 158.835938 90.558594 157.074219 88.792969 L 144.445312 76.148438 C 143.933594 75.636719 143.324219 75.558594 143.003906 75.558594 C 142.683594 75.558594 142.070312 75.636719 141.5625 76.148438 L 124.5 93.230469 C 123.988281 93.742188 123.910156 94.351562 123.910156 94.671875 C 123.910156 94.992188 123.988281 95.605469 124.5 96.117188 L 137.128906 108.761719 C 138.890625 110.527344 139.347656 113.214844 138.257812 115.460938 C 137.367188 117.316406 136.566406 119.242188 135.886719 121.179688 C 135.0625 123.53125 132.851562 125.113281 130.355469 125.113281 L 112.492188 125.113281 C 111.386719 125.113281 110.457031 126.042969 110.457031 127.152344 L 110.457031 151.304688 C 110.457031 152.414062 111.386719 153.34375 112.492188 153.34375 L 130.355469 153.34375 C 132.851562 153.34375 135.0625 154.917969 135.886719 157.277344 C 136.566406 159.21875 137.359375 161.140625 138.257812 163 C 139.339844 165.242188 138.890625 167.929688 137.128906 169.695312 L 124.5 182.34375 C 123.71875 183.121094 123.71875 184.441406 124.5 185.226562 L 141.5625 202.3125 C 142.070312 202.824219 142.683594 202.898438 143.003906 202.898438 C 143.324219 202.898438 143.933594 202.824219 144.445312 202.3125 L 157.082031 189.65625 C 158.203125 188.527344 159.707031 187.933594 161.222656 187.933594 Z M 161.222656 187.933594 " fill-opacity="1" fill-rule="nonzero"/><path fill="#000000" d="M 235.757812 213.683594 C 234.371094 213.683594 232.972656 213.195312 231.859375 212.195312 L 205.300781 188.445312 C 188.042969 195.589844 167.761719 192.277344 153.679688 179.691406 C 140.8125 168.191406 134.972656 151.160156 138.050781 134.148438 C 138.433594 132.054688 139.90625 130.335938 141.910156 129.648438 C 143.917969 128.953125 146.136719 129.40625 147.714844 130.816406 L 172.421875 152.910156 L 194.730469 127.898438 L 170.027344 105.808594 C 168.445312 104.394531 167.753906 102.234375 168.210938 100.164062 C 168.667969 98.09375 170.207031 96.429688 172.246094 95.820312 C 188.789062 90.839844 206.339844 94.734375 219.207031 106.242188 C 233.285156 118.835938 238.855469 138.636719 233.707031 156.613281 L 260.746094 180.792969 C 263.15625 182.953125 263.367188 186.65625 261.210938 189.070312 C 259.050781 191.484375 255.351562 191.695312 252.941406 189.535156 L 223.035156 162.792969 C 221.226562 161.171875 220.601562 158.597656 221.464844 156.332031 C 226.957031 141.890625 222.914062 125.28125 211.402344 114.988281 C 204.585938 108.886719 196.027344 105.59375 187.210938 105.433594 L 206.910156 123.050781 C 208.070312 124.089844 208.773438 125.539062 208.855469 127.097656 C 208.941406 128.648438 208.414062 130.175781 207.375 131.335938 L 177.265625 165.089844 C 176.226562 166.25 174.777344 166.953125 173.222656 167.039062 C 171.671875 167.121094 170.148438 166.59375 168.988281 165.554688 L 149.289062 147.9375 C 150.4375 156.699219 154.664062 164.839844 161.492188 170.941406 C 173 181.234375 189.949219 183.378906 203.65625 176.292969 C 205.8125 175.179688 208.4375 175.515625 210.246094 177.132812 L 239.671875 203.441406 C 242.082031 205.601562 242.292969 209.308594 240.136719 211.71875 C 238.976562 213.019531 237.367188 213.683594 235.757812 213.683594 Z M 235.757812 213.683594 " fill-opacity="1" fill-rule="nonzero"/><path fill="#000000" d="M 77.429688 79.691406 L 5.917969 79.691406 C 2.683594 79.691406 0.0585938 77.0625 0.0585938 73.824219 C 0.0585938 70.585938 2.683594 67.960938 5.917969 67.960938 L 77.429688 67.960938 C 80.664062 67.960938 83.289062 70.585938 83.289062 73.824219 C 83.289062 77.0625 80.664062 79.691406 77.429688 79.691406 Z M 77.429688 79.691406 " fill-opacity="1" fill-rule="nonzero"/><path fill="#000000" d="M 77.429688 145.089844 L 5.917969 145.089844 C 2.683594 145.089844 0.0585938 142.464844 0.0585938 139.226562 C 0.0585938 135.988281 2.683594 133.359375 5.917969 133.359375 L 77.429688 133.359375 C 80.664062 133.359375 83.289062 135.988281 83.289062 139.226562 C 83.289062 142.464844 80.664062 145.089844 77.429688 145.089844 Z M 77.429688 145.089844 " fill-opacity="1" fill-rule="nonzero"/><path fill="#000000" d="M 77.429688 210.492188 L 5.917969 210.492188 C 2.683594 210.492188 0.0585938 207.863281 0.0585938 204.625 C 0.0585938 201.386719 2.683594 198.761719 5.917969 198.761719 L 77.429688 198.761719 C 80.664062 198.761719 83.289062 201.386719 83.289062 204.625 C 83.289062 207.863281 80.664062 210.492188 77.429688 210.492188 Z M 77.429688 210.492188 " fill-opacity="1" fill-rule="nonzero"/><path fill="#000000" d="M 369.097656 79.691406 L 297.585938 79.691406 C 294.351562 79.691406 291.726562 77.0625 291.726562 73.824219 C 291.726562 70.585938 294.351562 67.960938 297.585938 67.960938 L 369.097656 67.960938 C 372.332031 67.960938 374.957031 70.585938 374.957031 73.824219 C 374.957031 77.0625 372.332031 79.691406 369.097656 79.691406 Z M 369.097656 79.691406 " fill-opacity="1" fill-rule="nonzero"/><path fill="#000000" d="M 369.097656 145.089844 L 297.585938 145.089844 C 294.351562 145.089844 291.726562 142.464844 291.726562 139.226562 C 291.726562 135.988281 294.351562 133.359375 297.585938 133.359375 L 369.097656 133.359375 C 372.332031 133.359375 374.957031 135.988281 374.957031 139.226562 C 374.957031 142.464844 372.332031 145.089844 369.097656 145.089844 Z M 369.097656 145.089844 " fill-opacity="1" fill-rule="nonzero"/><path fill="#000000" d="M 369.097656 210.492188 L 297.585938 210.492188 C 294.351562 210.492188 291.726562 207.863281 291.726562 204.625 C 291.726562 201.386719 294.351562 198.761719 297.585938 198.761719 L 369.097656 198.761719 C 372.332031 198.761719 374.957031 201.386719 374.957031 204.625 C 374.957031 207.863281 372.332031 210.492188 369.097656 210.492188 Z M 369.097656 210.492188 " fill-opacity="1" fill-rule="nonzero"/></svg>