<svg xmlns="http://www.w3.org/2000/svg" xmlns:xlink="http://www.w3.org/1999/xlink" width="500" zoomAndPan="magnify" viewBox="0 0 375 374.999991" height="500" preserveAspectRatio="xMidYMid meet" version="1.0"><defs><clipPath id="506c8a3316"><path d="M 30.1875 22 L 345 22 L 345 221 L 30.1875 221 Z M 30.1875 22 " clip-rule="nonzero"/></clipPath><clipPath id="958121a235"><path d="M 30.1875 206 L 345 206 L 345 276 L 30.1875 276 Z M 30.1875 206 " clip-rule="nonzero"/></clipPath><clipPath id="1f95f82f59"><path d="M 250 0 L 374.4375 0 L 374.4375 124 L 250 124 Z M 250 0 " clip-rule="nonzero"/></clipPath></defs><g clip-path="url(#506c8a3316)"><path fill="#fcfcff" d="M 337.640625 220.191406 L 36.902344 220.191406 C 33.285156 220.191406 30.269531 217.265625 30.269531 213.558594 L 30.269531 41.4375 C 30.269531 30.753906 38.96875 22.140625 49.566406 22.140625 L 324.980469 22.140625 C 327.648438 22.140625 330.234375 22.65625 332.644531 23.691406 C 336.003906 25.15625 337.554688 29.03125 336.09375 32.390625 C 334.628906 35.75 330.75 37.300781 327.390625 35.835938 C 326.617188 35.492188 325.839844 35.320312 324.980469 35.320312 L 49.652344 35.320312 C 46.292969 35.320312 43.535156 38.078125 43.535156 41.4375 L 43.535156 206.925781 L 331.007812 206.925781 L 331.007812 51.6875 C 331.007812 48.070312 333.9375 45.054688 337.640625 45.054688 C 341.347656 45.054688 344.277344 47.984375 344.277344 51.6875 L 344.277344 213.558594 C 344.277344 217.179688 341.347656 220.191406 337.640625 220.191406 Z M 337.640625 220.191406 " fill-opacity="1" fill-rule="nonzero"/></g><g clip-path="url(#958121a235)"><path fill="#fcfcff" d="M 324.980469 275.15625 L 49.652344 275.15625 C 38.96875 275.15625 30.355469 266.453125 30.355469 255.859375 L 30.355469 213.558594 C 30.355469 209.941406 33.285156 206.925781 36.988281 206.925781 L 337.730469 206.925781 C 341.347656 206.925781 344.363281 209.855469 344.363281 213.558594 L 344.363281 255.859375 C 344.277344 266.539062 335.574219 275.15625 324.980469 275.15625 Z M 43.535156 220.191406 L 43.535156 255.859375 C 43.535156 259.21875 46.292969 261.972656 49.652344 261.972656 L 324.980469 261.972656 C 328.339844 261.972656 331.09375 259.21875 331.09375 255.859375 L 331.09375 220.191406 Z M 43.535156 220.191406 " fill-opacity="1" fill-rule="nonzero"/></g><path fill="#fcfcff" d="M 218.84375 305.824219 L 155.699219 305.824219 C 152.082031 305.824219 149.066406 302.894531 149.066406 299.191406 L 149.066406 268.609375 C 149.066406 264.988281 151.996094 261.972656 155.699219 261.972656 L 218.84375 261.972656 C 222.464844 261.972656 225.480469 264.902344 225.480469 268.609375 L 225.480469 299.191406 C 225.480469 302.808594 222.550781 305.824219 218.84375 305.824219 Z M 162.332031 292.558594 L 212.296875 292.558594 L 212.296875 275.15625 L 162.332031 275.15625 Z M 162.332031 292.558594 " fill-opacity="1" fill-rule="nonzero"/><path fill="#fcfcff" d="M 207.128906 350.449219 L 167.414062 350.449219 C 163.796875 350.449219 160.78125 347.519531 160.78125 343.816406 L 160.78125 299.191406 C 160.78125 295.570312 163.710938 292.558594 167.414062 292.558594 L 207.128906 292.558594 C 210.746094 292.558594 213.761719 295.484375 213.761719 299.191406 L 213.761719 343.816406 C 213.761719 347.519531 210.746094 350.449219 207.128906 350.449219 Z M 174.046875 337.179688 L 200.496094 337.179688 L 200.496094 305.738281 L 174.046875 305.738281 Z M 174.046875 337.179688 " fill-opacity="1" fill-rule="nonzero"/><path fill="#fcfcff" d="M 263.554688 375 L 110.988281 375 C 108.921875 375 106.941406 373.964844 105.648438 372.328125 C 104.355469 370.691406 104.011719 368.453125 104.613281 366.472656 L 119.691406 317.367188 C 120.550781 314.609375 123.136719 312.714844 125.976562 312.714844 L 167.414062 312.714844 C 171.035156 312.714844 174.046875 315.644531 174.046875 319.347656 L 174.046875 337.265625 L 200.496094 337.265625 L 200.496094 319.347656 C 200.496094 315.730469 203.425781 312.714844 207.128906 312.714844 L 248.566406 312.714844 C 251.496094 312.714844 254.078125 314.609375 254.855469 317.367188 L 269.929688 366.472656 C 270.535156 368.453125 270.1875 370.691406 268.898438 372.328125 C 267.605469 373.964844 265.710938 375 263.554688 375 Z M 119.949219 361.734375 L 254.683594 361.734375 L 243.65625 325.894531 L 213.761719 325.894531 L 213.761719 343.816406 C 213.761719 347.433594 210.832031 350.449219 207.128906 350.449219 L 167.414062 350.449219 C 163.796875 350.449219 160.78125 347.519531 160.78125 343.816406 L 160.78125 325.894531 L 130.886719 325.894531 Z M 119.949219 361.734375 " fill-opacity="1" fill-rule="nonzero"/><path fill="#fcfcff" d="M 68.949219 247.675781 L 58.351562 247.675781 C 54.734375 247.675781 51.71875 244.746094 51.71875 241.039062 C 51.71875 237.335938 54.648438 234.40625 58.351562 234.40625 L 68.949219 234.40625 C 72.566406 234.40625 75.582031 237.335938 75.582031 241.039062 C 75.582031 244.746094 72.566406 247.675781 68.949219 247.675781 Z M 68.949219 247.675781 " fill-opacity="1" fill-rule="nonzero"/><path fill="#fcfcff" d="M 103.753906 247.675781 L 93.15625 247.675781 C 89.539062 247.675781 86.523438 244.746094 86.523438 241.039062 C 86.523438 237.335938 89.453125 234.40625 93.15625 234.40625 L 103.753906 234.40625 C 107.371094 234.40625 110.386719 237.335938 110.386719 241.039062 C 110.386719 244.746094 107.371094 247.675781 103.753906 247.675781 Z M 103.753906 247.675781 " fill-opacity="1" fill-rule="nonzero"/><path fill="#fcfcff" d="M 187.574219 188.75 C 186.710938 188.75 185.9375 188.578125 185.074219 188.230469 C 182.921875 187.371094 181.457031 185.476562 181.027344 183.234375 C 178.011719 166.179688 189.125 135.164062 207.472656 122.242188 C 217.46875 115.179688 228.492188 114.402344 238.488281 120.089844 C 239.003906 120.347656 239.519531 120.777344 239.863281 121.125 L 252.960938 134.21875 C 253.820312 135.078125 254.425781 136.113281 254.683594 137.320312 C 256.664062 145.503906 254.769531 154.894531 249.515625 162.558594 C 244.601562 169.710938 237.710938 174.191406 229.871094 175.308594 C 223.582031 176.171875 202.304688 179.53125 191.449219 187.457031 C 190.332031 188.320312 188.953125 188.75 187.574219 188.75 Z M 224.789062 129.566406 C 221.601562 129.566406 218.414062 130.6875 215.140625 133.011719 C 204.632812 140.421875 196.359375 157.5625 194.292969 170.917969 C 206.613281 165.574219 221.34375 163.164062 228.148438 162.214844 C 233.578125 161.441406 237.023438 157.476562 238.574219 155.152344 C 241.328125 151.1875 242.621094 146.363281 242.105469 142.144531 L 231.164062 131.203125 C 229.011719 130.082031 226.941406 129.566406 224.789062 129.566406 Z M 224.789062 129.566406 " fill-opacity="1" fill-rule="nonzero"/><path fill="#fcfcff" d="M 248.222656 145.503906 C 246.5 145.503906 244.863281 144.8125 243.570312 143.609375 L 230.476562 130.511719 C 228.234375 128.273438 227.890625 124.742188 229.699219 122.15625 L 251.410156 89.765625 C 252.527344 88.128906 254.25 87.09375 256.234375 86.835938 C 258.214844 86.664062 260.195312 87.355469 261.574219 88.730469 L 285.265625 112.421875 C 286.644531 113.800781 287.332031 115.78125 287.160156 117.761719 C 286.988281 119.746094 285.867188 121.554688 284.230469 122.585938 L 251.839844 144.296875 C 250.804688 145.160156 249.515625 145.503906 248.222656 145.503906 Z M 243.742188 125 L 249.082031 130.339844 L 270.273438 116.125 L 257.957031 103.808594 Z M 243.742188 125 " fill-opacity="1" fill-rule="nonzero"/><g clip-path="url(#1f95f82f59)"><path fill="#fcfcff" d="M 280.613281 123.792969 C 278.890625 123.792969 277.167969 123.105469 275.960938 121.898438 L 252.269531 98.207031 C 250.976562 96.914062 250.289062 95.105469 250.375 93.296875 C 250.460938 91.488281 251.238281 89.765625 252.613281 88.558594 L 350.738281 3.101562 C 356.078125 -1.550781 364.003906 -0.863281 369.515625 4.738281 C 375.117188 10.335938 375.71875 18.175781 371.152344 23.519531 L 285.609375 121.554688 C 284.402344 122.933594 282.679688 123.792969 280.871094 123.792969 C 280.785156 123.792969 280.699219 123.792969 280.613281 123.792969 Z M 266.570312 93.816406 L 280.269531 107.511719 L 360.816406 14.988281 C 360.558594 14.386719 359.695312 13.4375 359.007812 13.179688 Z M 354.957031 8.011719 L 359.265625 13.007812 Z M 354.957031 8.011719 Z M 354.957031 8.011719 " fill-opacity="1" fill-rule="nonzero"/></g><path fill="#fcfcff" d="M 113.488281 100.707031 L 62.316406 100.707031 C 58.695312 100.707031 55.683594 97.777344 55.683594 94.074219 L 55.683594 55.308594 C 55.683594 51.6875 58.609375 48.671875 62.316406 48.671875 L 113.574219 48.671875 C 117.191406 48.671875 120.207031 51.601562 120.207031 55.308594 L 120.207031 94.160156 C 120.121094 97.777344 117.191406 100.707031 113.488281 100.707031 Z M 68.949219 87.527344 L 106.941406 87.527344 L 106.941406 61.855469 L 68.949219 61.855469 Z M 68.949219 87.527344 " fill-opacity="1" fill-rule="nonzero"/><path fill="#fcfcff" d="M 113.488281 123.792969 L 62.316406 123.792969 C 58.695312 123.792969 55.683594 120.863281 55.683594 117.160156 C 55.683594 113.457031 58.609375 110.527344 62.316406 110.527344 L 113.574219 110.527344 C 117.191406 110.527344 120.207031 113.457031 120.207031 117.160156 C 120.207031 120.863281 117.191406 123.792969 113.488281 123.792969 Z M 113.488281 123.792969 " fill-opacity="1" fill-rule="nonzero"/><path fill="#fcfcff" d="M 190.933594 100.707031 L 139.675781 100.707031 C 136.058594 100.707031 133.042969 97.777344 133.042969 94.074219 L 133.042969 55.308594 C 133.042969 51.6875 135.972656 48.671875 139.675781 48.671875 L 190.933594 48.671875 C 194.550781 48.671875 197.566406 51.601562 197.566406 55.308594 L 197.566406 94.160156 C 197.566406 97.777344 194.550781 100.707031 190.933594 100.707031 Z M 146.308594 87.527344 L 184.300781 87.527344 L 184.300781 61.855469 L 146.308594 61.855469 Z M 146.308594 87.527344 " fill-opacity="1" fill-rule="nonzero"/><path fill="#fcfcff" d="M 190.933594 123.792969 L 139.675781 123.792969 C 136.058594 123.792969 133.042969 120.863281 133.042969 117.160156 C 133.042969 113.457031 135.972656 110.527344 139.675781 110.527344 L 190.933594 110.527344 C 194.550781 110.527344 197.566406 113.457031 197.566406 117.160156 C 197.566406 120.863281 194.550781 123.792969 190.933594 123.792969 Z M 190.933594 123.792969 " fill-opacity="1" fill-rule="nonzero"/></svg>