<svg xmlns="http://www.w3.org/2000/svg" xmlns:xlink="http://www.w3.org/1999/xlink" width="500" zoomAndPan="magnify" viewBox="0 0 375 374.999991" height="500" preserveAspectRatio="xMidYMid meet" version="1.0"><defs><clipPath id="9f2e530bfd"><path d="M 19.6875 0 L 355.6875 0 L 355.6875 375 L 19.6875 375 Z M 19.6875 0 " clip-rule="nonzero"/></clipPath></defs><g clip-path="url(#9f2e530bfd)"><path fill="#fcfcff" d="M 81.433594 0.117188 L 293.664062 0.117188 C 296.648438 0.117188 299.085938 2.558594 299.085938 5.539062 L 299.085938 18.421875 L 76.011719 18.421875 L 76.011719 5.539062 C 76.011719 2.558594 78.449219 0.117188 81.433594 0.117188 Z M 355.367188 124.84375 L 308.890625 124.84375 L 308.890625 152.761719 C 308.890625 165.53125 319.359375 176 332.128906 176 C 344.898438 176 355.363281 165.53125 355.363281 152.761719 L 355.363281 124.84375 Z M 297.535156 124.84375 L 251.058594 124.84375 L 251.058594 152.761719 C 251.058594 165.53125 261.527344 176 274.296875 176 C 287.066406 176 297.53125 165.53125 297.53125 152.761719 L 297.53125 124.84375 Z M 239.703125 124.84375 L 193.226562 124.84375 L 193.226562 152.761719 C 193.226562 165.53125 203.695312 176 216.464844 176 C 229.234375 176 239.703125 165.53125 239.703125 152.761719 Z M 181.871094 124.84375 L 135.394531 124.84375 L 135.394531 152.761719 C 135.394531 165.53125 145.863281 176 158.632812 176 C 171.402344 176 181.871094 165.53125 181.871094 152.761719 Z M 124.039062 124.84375 L 77.566406 124.84375 L 77.566406 152.761719 C 77.566406 165.53125 88.03125 176 100.800781 176 C 113.570312 176 124.039062 165.53125 124.039062 152.761719 Z M 66.207031 124.84375 L 19.710938 124.84375 L 19.734375 152.761719 C 19.734375 165.53125 30.199219 176 42.96875 176 C 55.738281 176 66.207031 165.53125 66.207031 152.761719 Z M 23.507812 113.488281 L 67.886719 113.488281 L 97.746094 29.777344 L 72.238281 29.777344 C 69.683594 29.777344 67.65625 30.980469 66.464844 33.210938 Z M 79.9375 113.488281 L 109.800781 29.777344 L 139.898438 29.777344 L 124.96875 113.488281 Z M 136.496094 113.488281 L 181.871094 113.488281 L 181.871094 29.777344 L 151.425781 29.777344 Z M 193.226562 113.488281 L 238.605469 113.488281 L 223.671875 29.777344 L 193.226562 29.777344 Z M 250.132812 113.488281 L 235.199219 29.777344 L 265.300781 29.777344 L 295.160156 113.488281 Z M 307.210938 113.488281 L 351.589844 113.488281 L 308.632812 33.210938 C 307.441406 30.980469 305.414062 29.777344 302.859375 29.777344 L 277.351562 29.777344 Z M 329.195312 187.234375 L 329.195312 361.613281 C 329.195312 368.914062 323.222656 374.882812 315.925781 374.882812 L 59.171875 374.882812 C 51.875 374.882812 45.90625 368.910156 45.90625 361.613281 L 45.90625 187.234375 C 56.648438 186.320312 66.144531 180.429688 71.886719 171.703125 C 85.601562 192.539062 116.003906 192.539062 129.71875 171.703125 C 143.433594 192.539062 173.832031 192.539062 187.550781 171.703125 C 201.265625 192.539062 231.664062 192.539062 245.382812 171.703125 C 259.097656 192.539062 289.5 192.539062 303.214844 171.703125 C 308.957031 180.429688 318.449219 186.320312 329.195312 187.234375 Z M 187.550781 223.484375 C 172.902344 223.484375 161.03125 235.210938 161.03125 249.675781 C 161.03125 264.144531 172.902344 275.871094 187.550781 275.871094 C 202.195312 275.871094 214.066406 264.144531 214.066406 249.675781 C 214.066406 235.210938 202.195312 223.484375 187.550781 223.484375 Z M 277.820312 326.9375 C 217.339844 326.9375 157.757812 326.9375 97.28125 326.9375 C 95.613281 326.9375 94.25 328.300781 94.25 329.964844 L 94.25 345.0625 C 94.25 346.726562 95.613281 348.089844 97.28125 348.089844 L 277.820312 348.089844 C 279.484375 348.089844 280.847656 346.726562 280.847656 345.0625 L 280.847656 329.964844 C 280.847656 328.296875 279.484375 326.9375 277.820312 326.9375 Z M 231.339844 305.199219 L 277.820312 305.199219 C 279.484375 305.199219 280.847656 303.839844 280.847656 302.171875 L 280.847656 203.117188 C 280.847656 201.449219 279.484375 200.085938 277.820312 200.085938 L 97.28125 200.085938 C 95.613281 200.085938 94.25 201.449219 94.25 203.117188 L 94.25 302.171875 C 94.25 303.835938 95.613281 305.199219 97.28125 305.199219 L 143.757812 305.199219 C 145.109375 293.347656 152.046875 283.128906 161.855469 277.261719 C 176.363281 290.550781 198.734375 290.550781 213.242188 277.261719 C 223.050781 283.128906 229.992188 293.347656 231.339844 305.199219 Z M 231.339844 305.199219 " fill-opacity="1" fill-rule="evenodd"/></g></svg>