<svg xmlns="http://www.w3.org/2000/svg" xmlns:xlink="http://www.w3.org/1999/xlink" width="500" zoomAndPan="magnify" viewBox="0 0 375 374.999991" height="500" preserveAspectRatio="xMidYMid meet" version="1.0"><path fill="#030530" d="M 187.515625 0 C 83.949219 0 0 83.949219 0 187.515625 C 0 291.082031 83.949219 375.03125 187.515625 375.03125 C 291.082031 375.03125 375.03125 291.082031 375.03125 187.515625 C 375.03125 83.949219 291.074219 0 187.515625 0 Z M 295.898438 255.570312 C 298.269531 257.9375 298.269531 261.78125 295.898438 264.148438 L 264.15625 295.890625 C 261.789062 298.257812 257.945312 298.257812 255.578125 295.890625 L 187.515625 227.828125 L 119.453125 295.890625 C 117.085938 298.257812 113.242188 298.257812 110.875 295.890625 L 79.132812 264.148438 C 76.765625 261.78125 76.765625 257.9375 79.132812 255.570312 L 147.195312 187.507812 L 79.132812 119.445312 C 76.765625 117.078125 76.765625 113.234375 79.132812 110.867188 L 110.875 79.125 C 113.242188 76.757812 117.085938 76.757812 119.453125 79.125 L 187.515625 147.1875 L 255.578125 79.125 C 257.945312 76.757812 261.789062 76.757812 264.15625 79.125 L 295.898438 110.867188 C 298.269531 113.234375 298.269531 117.078125 295.898438 119.445312 L 227.835938 187.507812 Z M 295.898438 255.570312 " fill-opacity="1" fill-rule="nonzero"/></svg>