<svg width="707" height="695" viewBox="0 0 707 695" fill="none" xmlns="http://www.w3.org/2000/svg">
<path fill-rule="evenodd" clip-rule="evenodd" d="M298.845 644.47C424.529 646.973 696 729 705 676.5C701.5 606 637.791 327.762 669.372 334.106L547.897 401.935L221 382.162L298.845 644.47Z" fill="url(#paint0_linear_12_39)"/>
<path fill-rule="evenodd" clip-rule="evenodd" d="M-1 691.104C-1 627.604 707 629.156 707 691.104V396.104H-1L-1 691.104Z" fill="url(#paint1_linear_12_39)"/>
<path fill-rule="evenodd" clip-rule="evenodd" d="M-1 691.104C-1 627.604 707 629.156 707 691.104V396.104H-1L-1 691.104Z" fill="url(#paint2_linear_12_39)"/>
<path fill-rule="evenodd" clip-rule="evenodd" d="M-1 674.5C49 610.5 707 674.5 707 595.5C707 516.5 707 -3 707 -3H-1V674.5Z" fill="url(#paint3_linear_12_39)"/>
<defs>
<linearGradient id="paint0_linear_12_39" x1="364.079" y1="665.884" x2="643.944" y2="645.332" gradientUnits="userSpaceOnUse">
<stop stop-color="#FFA327"/>
<stop offset="1" stop-color="#AF6500"/>
</linearGradient>
<linearGradient id="paint1_linear_12_39" x1="-1.73181" y1="640.969" x2="703.264" y2="640.969" gradientUnits="userSpaceOnUse">
<stop offset="0.311264" stop-color="#528BAA"/>
<stop offset="0.992804" stop-color="#014062"/>
</linearGradient>
<linearGradient id="paint2_linear_12_39" x1="-1.73181" y1="640.969" x2="703.264" y2="640.969" gradientUnits="userSpaceOnUse">
<stop offset="0.311264" stop-color="#528BAA"/>
<stop offset="0.992804" stop-color="#014062"/>
</linearGradient>
<linearGradient id="paint3_linear_12_39" x1="262.513" y1="353.915" x2="430.283" y2="582.773" gradientUnits="userSpaceOnUse">
<stop stop-color="#00025C"/>
<stop offset="1" stop-color="#00013A"/>
</linearGradient>
</defs>
</svg>
