<svg width="707" height="436" viewBox="0 0 707 436" fill="none" xmlns="http://www.w3.org/2000/svg">
<path fill-rule="evenodd" clip-rule="evenodd" d="M299.845 385.47C425.529 387.973 697 470 706 417.5C702.5 347 638.791 68.7624 670.372 75.1056L548.897 142.935L222 123.162L299.845 385.47Z" fill="url(#paint0_linear_12_39)"/>
<path fill-rule="evenodd" clip-rule="evenodd" d="M0 432.104C0 368.604 708 370.156 708 432.104V137.104H0L0 432.104Z" fill="url(#paint1_linear_12_39)"/>
<path fill-rule="evenodd" clip-rule="evenodd" d="M0 432.104C0 368.604 708 370.156 708 432.104V137.104H0L0 432.104Z" fill="url(#paint2_linear_12_39)"/>
<path fill-rule="evenodd" clip-rule="evenodd" d="M0 415.5C50 351.5 708 415.5 708 336.5C708 257.5 708 -262 708 -262H0V415.5Z" fill="url(#paint3_linear_12_39)"/>
<defs>
<linearGradient id="paint0_linear_12_39" x1="365.079" y1="406.884" x2="644.944" y2="386.332" gradientUnits="userSpaceOnUse">
<stop stop-color="#FFA327"/>
<stop offset="1" stop-color="#AF6500"/>
</linearGradient>
<linearGradient id="paint1_linear_12_39" x1="-0.731809" y1="381.969" x2="704.264" y2="381.969" gradientUnits="userSpaceOnUse">
<stop offset="0.735577" stop-color="#2FB7A1"/>
<stop offset="0.992804" stop-color="#0F3731"/>
</linearGradient>
<linearGradient id="paint2_linear_12_39" x1="-0.731809" y1="381.969" x2="704.264" y2="381.969" gradientUnits="userSpaceOnUse">
<stop offset="0.735577" stop-color="#2FB7A1"/>
<stop offset="0.992804" stop-color="#0F3731"/>
</linearGradient>
<linearGradient id="paint3_linear_12_39" x1="9.5" y1="6" x2="710.251" y2="319.812" gradientUnits="userSpaceOnUse">
<stop offset="0.174323" stop-color="#2D308B"/>
<stop offset="0.991823" stop-color="#0C0C1F"/>
</linearGradient>
</defs>
</svg>
