<svg width="411" height="698" viewBox="0 0 411 698" fill="none" xmlns="http://www.w3.org/2000/svg">
<path fill-rule="evenodd" clip-rule="evenodd" d="M174.063 647.47C247.023 649.973 404.615 732 409.839 679.5C407.807 609 370.824 330.762 389.157 337.106L318.639 404.935L128.873 385.162L174.063 647.47Z" fill="url(#paint0_linear_62_40)"/>
<path fill-rule="evenodd" clip-rule="evenodd" d="M0 694.104C0 630.604 411 632.156 411 694.104V399.104H0L0 694.104Z" fill="url(#paint1_linear_62_40)"/>
<path fill-rule="evenodd" clip-rule="evenodd" d="M0 694.104C0 630.604 411 632.156 411 694.104V399.104H0L0 694.104Z" fill="url(#paint2_linear_62_40)"/>
<path fill-rule="evenodd" clip-rule="evenodd" d="M0 677.5C29.0254 613.5 411 677.5 411 598.5C411 519.5 411 0 411 0H0V677.5Z" fill="url(#paint3_linear_62_40)"/>
<defs>
<linearGradient id="paint0_linear_62_40" x1="211.932" y1="668.884" x2="374.976" y2="661.933" gradientUnits="userSpaceOnUse">
<stop stop-color="#FFA327"/>
<stop offset="1" stop-color="#AF6500"/>
</linearGradient>
<linearGradient id="paint1_linear_62_40" x1="-0.424822" y1="643.969" x2="408.831" y2="643.969" gradientUnits="userSpaceOnUse">
<stop offset="0.735577" stop-color="#2FB7A1"/>
<stop offset="0.992804" stop-color="#0F3731"/>
</linearGradient>
<linearGradient id="paint2_linear_62_40" x1="-0.424822" y1="643.969" x2="408.831" y2="643.969" gradientUnits="userSpaceOnUse">
<stop offset="0.735577" stop-color="#2FB7A1"/>
<stop offset="0.992804" stop-color="#0F3731"/>
</linearGradient>
<linearGradient id="paint3_linear_62_40" x1="5.51483" y1="268" x2="462.971" y2="386.922" gradientUnits="userSpaceOnUse">
<stop offset="0.174323" stop-color="#2D308B"/>
<stop offset="0.991823" stop-color="#0C0C1F"/>
</linearGradient>
</defs>
</svg>
