<svg xmlns="http://www.w3.org/2000/svg" xmlns:xlink="http://www.w3.org/1999/xlink" width="500" zoomAndPan="magnify" viewBox="0 0 375 374.999991" height="500" preserveAspectRatio="xMidYMid meet" version="1.0"><defs><clipPath id="822aec5e48"><path d="M 0 51.25 L 163 51.25 L 163 323.5 L 0 323.5 Z M 0 51.25 " clip-rule="nonzero"/></clipPath><clipPath id="4f2c70db19"><path d="M 212 51.25 L 375 51.25 L 375 323.5 L 212 323.5 Z M 212 51.25 " clip-rule="nonzero"/></clipPath></defs><g clip-path="url(#822aec5e48)"><path fill="#2d308b" d="M 162.511719 51.25 L 162.511719 176.164062 C 162.511719 176.464844 162.496094 176.765625 162.480469 177.070312 C 162.449219 177.765625 162.417969 178.449219 162.371094 179.128906 C 162.371094 179.304688 162.355469 179.464844 162.335938 179.621094 C 155.453125 300.0625 61.117188 323.757812 61.117188 323.757812 L 40.863281 300.398438 C 72.554688 277.257812 76.976562 234.5 76.628906 209.914062 L 0.0234375 209.914062 L 0.0234375 51.25 Z M 162.511719 51.25 " fill-opacity="1" fill-rule="nonzero"/></g><g clip-path="url(#4f2c70db19)"><path fill="#2d308b" d="M 374.980469 51.25 L 374.980469 176.164062 C 374.980469 176.464844 374.964844 176.765625 374.949219 177.070312 C 374.917969 177.765625 374.886719 178.449219 374.839844 179.128906 C 374.839844 179.304688 374.824219 179.464844 374.804688 179.621094 C 367.921875 300.0625 273.585938 323.757812 273.585938 323.757812 L 253.332031 300.398438 C 285.023438 277.257812 289.449219 234.5 289.097656 209.914062 L 212.492188 209.914062 L 212.492188 51.25 Z M 374.980469 51.25 " fill-opacity="1" fill-rule="nonzero"/></g></svg>