<svg width="1246" height="973" viewBox="0 0 1246 973" fill="none" xmlns="http://www.w3.org/2000/svg">
<path d="M98.7382 891.959C92.0379 902.007 76.4524 898.285 75.0149 886.294L55.744 725.547C54.8164 717.81 60.8584 711 68.6516 711H195.116C205.5 711 211.693 722.573 205.932 731.212L98.7382 891.959Z" fill="#ED9724"/>
<path d="M0 279.069C0 251.391 23.3458 229.448 50.971 231.161L599.971 265.208C625.278 266.777 645 287.759 645 313.115V667.321C645 693.309 624.317 714.577 598.339 715.302L49.3389 730.623C22.3153 731.377 0 709.676 0 682.642V279.069Z" fill="#FFA327"/>
<path d="M219.783 417C232.45 413.333 248.783 410 268.783 407C288.783 403.667 309.783 402 331.783 402C354.117 402 372.617 405 387.283 411C402.283 416.667 414.117 424.833 422.783 435.5C431.45 446.167 437.617 458.833 441.283 473.5C444.95 488.167 446.783 504.5 446.783 522.5V671H372.283V531.5C372.283 507.5 369.117 490.5 362.783 480.5C356.45 470.5 344.617 465.5 327.283 465.5C321.95 465.5 316.283 465.833 310.283 466.5C304.283 466.833 298.95 467.333 294.283 468V671H219.783V417Z" fill="#D64945"/>
<path d="M382.91 386C372.91 386 363.41 384 354.41 380C345.743 376 337.243 371.667 328.91 367C320.91 362.333 313.077 358 305.41 354C298.077 350 290.743 348 283.41 348C280.743 348 277.91 348.333 274.91 349C272.243 349.667 269.577 351.333 266.91 354C264.243 356.333 261.577 360 258.91 365C256.577 369.667 254.41 376.167 252.41 384.5L201.41 370.5C203.077 361.167 205.743 351.333 209.41 341C213.077 330.667 217.91 321.167 223.91 312.5C230.243 303.833 238.077 296.667 247.41 291C256.743 285.333 267.91 282.5 280.91 282.5C290.91 282.5 300.243 284.5 308.91 288.5C317.91 292.5 326.41 296.833 334.41 301.5C342.743 306.167 350.577 310.5 357.91 314.5C365.577 318.5 373.077 320.5 380.41 320.5C383.077 320.5 385.744 320.167 388.41 319.5C391.41 318.833 394.244 317.333 396.91 315C399.577 312.333 402.077 308.667 404.41 304C407.077 299 409.41 292.333 411.41 284L462.41 298C460.743 307.333 458.077 317.167 454.41 327.5C450.743 337.833 445.743 347.333 439.41 356C433.077 364.667 425.243 371.833 415.91 377.5C406.91 383.167 395.91 386 382.91 386Z" fill="#D64945"/>
<path d="M1147.26 737.959C1153.96 748.007 1169.55 744.285 1170.99 732.294L1190.26 571.547C1191.18 563.81 1185.14 557 1177.35 557H1050.88C1040.5 557 1034.31 568.573 1040.07 577.212L1147.26 737.959Z" fill="#BC403C"/>
<path d="M1246 125.069C1246 97.3907 1222.65 75.4478 1195.03 77.161L646.029 111.208C620.722 112.777 601 133.759 601 159.115V513.321C601 539.309 621.683 560.577 647.661 561.302L1196.66 576.623C1223.68 577.377 1246 555.676 1246 528.642V125.069Z" fill="#D64945"/>
<path d="M808.783 219C821.45 215.333 837.783 212 857.783 209C877.783 205.667 898.783 204 920.783 204C943.117 204 961.617 207 976.283 213C991.283 218.667 1003.12 226.833 1011.78 237.5C1020.45 248.167 1026.62 260.833 1030.28 275.5C1033.95 290.167 1035.78 306.5 1035.78 324.5V473H961.283V333.5C961.283 309.5 958.117 292.5 951.783 282.5C945.45 272.5 933.617 267.5 916.283 267.5C910.95 267.5 905.283 267.833 899.283 268.5C893.283 268.833 887.95 269.333 883.283 270V473H808.783V219Z" fill="#FFA327"/>
<path d="M853.99 585.75H647.01L750.5 480L853.99 585.75Z" fill="#32B8A3"/>
<path d="M853.99 585.75H647.01L750.5 480L853.99 585.75Z" stroke="#2FB7A1"/>
<path d="M493.75 750.01V956.99L388 853.5L493.75 750.01Z" fill="#3CDBC2"/>
<path d="M493.75 750.01V956.99L388 853.5L493.75 750.01Z" stroke="#2FB7A1"/>
<path d="M806 796.199L692.199 910H692V585H806V796.199Z" fill="#32B8A3"/>
<path d="M692.199 910H483V796H806.199L692.199 910Z" fill="#3CDBC2"/>
</svg>
