<svg width="960" height="848" viewBox="0 0 960 848" fill="none" xmlns="http://www.w3.org/2000/svg">
<rect width="960" height="848" rx="176" fill="#FFA327"/>
<line x1="223.098" y1="352.987" x2="317.098" y2="446.987" stroke="#1E786A" stroke-width="68"/>
<line x1="636" y1="101.528" x2="835.484" y2="101.528" stroke="#2FB7A1" stroke-width="68"/>
<line x1="801.214" y1="268.484" x2="801.214" y2="69" stroke="#2FB7A1" stroke-width="68"/>
<path d="M268.988 447.017L441.002 275" stroke="#259381" stroke-width="68"/>
<line x1="394.042" y1="274.958" x2="535.098" y2="416.015" stroke="#2AA793" stroke-width="68"/>
<path d="M488.001 417.017L781.518 123.5" stroke="#2FB7A1" stroke-width="68"/>
<path d="M633.644 650.739C622.164 637.516 622.864 617.666 635.246 605.283C647.629 592.901 667.479 592.201 680.702 603.681L774.772 685.349C793.233 701.376 794.231 729.695 776.945 746.982C759.658 764.268 731.339 763.27 715.312 744.809L633.644 650.739Z" fill="#2D308B"/>
<path d="M456 137C517.504 137 574.535 156.147 621.46 188.805L575.895 234.37C541.444 213.206 500.897 201 457.5 201C332.408 201 231 302.408 231 427.5C231 552.592 332.408 654 457.5 654C582.592 654 684 552.592 684 427.5C684 394.673 677.016 363.477 664.453 335.316L711 288.77C733.322 329.86 746 376.95 746 427C746 587.163 616.163 717 456 717C295.837 717 166 587.163 166 427C166 266.837 295.837 137 456 137Z" fill="#2D308B"/>
</svg>
