<svg width="968" height="859" viewBox="0 0 968 859" fill="none" xmlns="http://www.w3.org/2000/svg">
<rect x="27" y="355" width="914" height="504" rx="48" fill="#D64945"/>
<rect x="247" y="520" width="474" height="238" rx="34" fill="#A83834"/>
<path d="M242 355C242 421.826 187.826 476 121 476C54.1735 476 0 421.826 0 355H242Z" fill="#2D308B"/>
<path d="M484 355C484 421.826 429.826 476 363 476C296.174 476 242 421.826 242 355H484Z" fill="#FFA327"/>
<path d="M726 355C726 421.826 671.826 476 605 476C538.174 476 484 421.826 484 355H726Z" fill="#2D308B"/>
<path d="M968 355C968 421.826 913.826 476 847 476C780.174 476 726 421.826 726 355H968Z" fill="#FFA327"/>
<path d="M40 0H262L242 355H0L40 0Z" fill="#272A74"/>
<path d="M262 0H484V355H242L262 0Z" fill="#ED9724"/>
<path d="M706 0H484V355H726L706 0Z" fill="#272A74"/>
<path d="M928 0H706L726 355H968L928 0Z" fill="#ED9724"/>
</svg>
