<svg xmlns="http://www.w3.org/2000/svg" xmlns:xlink="http://www.w3.org/1999/xlink" width="500" zoomAndPan="magnify" viewBox="0 0 375 374.999991" height="500" preserveAspectRatio="xMidYMid meet" version="1.0"><path fill="#cfcfcf" d="M 187.5 344.769531 C 100.789062 344.769531 30.230469 274.210938 30.230469 187.5 C 30.230469 100.789062 100.789062 30.230469 187.5 30.230469 C 274.210938 30.230469 344.769531 100.789062 344.769531 187.5 C 344.769531 274.210938 274.210938 344.769531 187.5 344.769531 Z M 187.5 42.480469 C 107.550781 42.480469 42.480469 107.550781 42.480469 187.5 C 42.480469 267.449219 107.550781 332.519531 187.5 332.519531 C 267.449219 332.519531 332.519531 267.449219 332.519531 187.5 C 332.519531 107.550781 267.449219 42.480469 187.5 42.480469 Z M 187.5 42.480469 " fill-opacity="1" fill-rule="nonzero"/><path fill="#cfcfcf" d="M 245.414062 283.039062 C 243.425781 283.039062 241.433594 282.085938 240.242188 280.253906 L 182.328125 190.839844 C 181.691406 189.886719 181.375 188.691406 181.375 187.5 L 181.375 87.984375 C 181.375 84.640625 184.078125 81.855469 187.5 81.855469 C 190.839844 81.855469 193.625 84.5625 193.625 87.984375 L 193.625 185.671875 L 250.582031 273.574219 C 252.414062 276.4375 251.617188 280.175781 248.753906 282.003906 C 247.71875 282.722656 246.605469 283.039062 245.414062 283.039062 Z M 245.414062 283.039062 " fill-opacity="1" fill-rule="nonzero"/><path fill="#cfcfcf" d="M 187.5 63.878906 C 184.160156 63.878906 181.375 61.175781 181.375 57.753906 L 181.375 36.355469 C 181.375 33.011719 184.078125 30.230469 187.5 30.230469 C 190.839844 30.230469 193.625 32.933594 193.625 36.355469 L 193.625 57.753906 C 193.625 61.175781 190.839844 63.878906 187.5 63.878906 Z M 187.5 63.878906 " fill-opacity="1" fill-rule="nonzero"/><path fill="#cfcfcf" d="M 279.222656 101.902344 C 277.628906 101.902344 276.117188 101.265625 274.925781 100.152344 C 272.539062 97.765625 272.539062 93.871094 274.925781 91.484375 L 290.039062 76.367188 C 292.425781 73.980469 296.324219 73.980469 298.710938 76.367188 C 301.097656 78.753906 301.097656 82.652344 298.710938 85.039062 L 283.597656 100.152344 C 282.324219 101.265625 280.8125 101.902344 279.222656 101.902344 Z M 279.222656 101.902344 " fill-opacity="1" fill-rule="nonzero"/><path fill="#cfcfcf" d="M 338.644531 193.625 L 317.246094 193.625 C 313.90625 193.625 311.121094 190.921875 311.121094 187.5 C 311.121094 184.160156 313.824219 181.375 317.246094 181.375 L 338.644531 181.375 C 341.988281 181.375 344.769531 184.078125 344.769531 187.5 C 344.769531 190.839844 341.988281 193.625 338.644531 193.625 Z M 338.644531 193.625 " fill-opacity="1" fill-rule="nonzero"/><path fill="#cfcfcf" d="M 294.414062 300.460938 C 292.824219 300.460938 291.3125 299.90625 290.121094 298.710938 L 275.003906 283.597656 C 272.617188 281.210938 272.617188 277.3125 275.003906 274.925781 C 277.390625 272.539062 281.289062 272.539062 283.675781 274.925781 L 298.789062 290.039062 C 301.175781 292.425781 301.175781 296.324219 298.789062 298.710938 C 297.519531 299.90625 295.925781 300.460938 294.414062 300.460938 Z M 294.414062 300.460938 " fill-opacity="1" fill-rule="nonzero"/><path fill="#cfcfcf" d="M 187.5 344.769531 C 184.160156 344.769531 181.375 342.066406 181.375 338.644531 L 181.375 317.246094 C 181.375 313.90625 184.078125 311.121094 187.5 311.121094 C 190.839844 311.121094 193.625 313.824219 193.625 317.246094 L 193.625 338.644531 C 193.625 341.988281 190.839844 344.769531 187.5 344.769531 Z M 187.5 344.769531 " fill-opacity="1" fill-rule="nonzero"/><path fill="#cfcfcf" d="M 80.585938 300.460938 C 78.992188 300.460938 77.480469 299.90625 76.289062 298.710938 C 73.902344 296.324219 73.902344 292.425781 76.289062 290.039062 L 91.402344 274.925781 C 93.789062 272.539062 97.6875 272.539062 100.074219 274.925781 C 102.460938 277.3125 102.460938 281.210938 100.074219 283.597656 L 84.960938 298.710938 C 83.765625 299.90625 82.175781 300.460938 80.585938 300.460938 Z M 80.585938 300.460938 " fill-opacity="1" fill-rule="nonzero"/><path fill="#cfcfcf" d="M 57.753906 193.625 L 36.355469 193.625 C 33.011719 193.625 30.230469 190.921875 30.230469 187.5 C 30.230469 184.160156 32.933594 181.375 36.355469 181.375 L 57.753906 181.375 C 61.09375 181.375 63.878906 184.078125 63.878906 187.5 C 63.878906 190.839844 61.175781 193.625 57.753906 193.625 Z M 57.753906 193.625 " fill-opacity="1" fill-rule="nonzero"/><path fill="#cfcfcf" d="M 95.777344 101.902344 C 94.1875 101.902344 92.675781 101.265625 91.484375 100.152344 L 76.367188 85.039062 C 73.980469 82.652344 73.980469 78.753906 76.367188 76.367188 C 78.753906 73.980469 82.652344 73.980469 85.039062 76.367188 L 100.152344 91.484375 C 102.539062 93.871094 102.539062 97.765625 100.152344 100.152344 C 98.882812 101.265625 97.289062 101.902344 95.777344 101.902344 Z M 95.777344 101.902344 " fill-opacity="1" fill-rule="nonzero"/><path fill="#cfcfcf" d="M 187.5 375 C 137.382812 375 90.367188 355.511719 54.890625 320.109375 C 19.488281 284.632812 0 237.617188 0 187.5 C 0 137.382812 19.488281 90.367188 54.890625 54.890625 C 90.289062 19.410156 137.382812 0 187.5 0 C 237.617188 0 284.632812 19.488281 320.109375 54.890625 C 355.511719 90.289062 375 137.382812 375 187.5 C 375 237.617188 355.511719 284.632812 320.109375 320.109375 C 284.632812 355.511719 237.617188 375 187.5 375 Z M 187.5 12.25 C 90.847656 12.25 12.25 90.847656 12.25 187.5 C 12.25 284.152344 90.847656 362.75 187.5 362.75 C 284.152344 362.75 362.75 284.152344 362.75 187.5 C 362.75 90.847656 284.152344 12.25 187.5 12.25 Z M 187.5 12.25 " fill-opacity="1" fill-rule="nonzero"/></svg>