<svg xmlns="http://www.w3.org/2000/svg" xmlns:xlink="http://www.w3.org/1999/xlink" width="500" zoomAndPan="magnify" viewBox="0 0 375 374.999991" height="500" preserveAspectRatio="xMidYMid meet" version="1.0"><path fill="#cfcfcf" d="M 187.488281 0 C 84.105469 0 0 84.105469 0 187.488281 C 0 290.871094 84.105469 374.976562 187.488281 374.976562 C 290.871094 374.976562 374.976562 290.871094 374.976562 187.488281 C 374.976562 84.105469 290.871094 0 187.488281 0 Z M 11.253906 187.488281 C 11.253906 153.15625 21.132812 121.09375 38.183594 93.96875 C 28.007812 119.015625 32.402344 129.472656 33.632812 132.078125 C 36.644531 138.441406 39.402344 137.460938 46.679688 146.945312 C 49.515625 150.644531 59.546875 164.023438 61.773438 181.582031 C 63.519531 195.335938 58.332031 194.789062 59.363281 211.515625 C 59.671875 216.535156 60.667969 230.503906 68.3125 245.363281 C 73.578125 255.597656 76.953125 256.453125 80.117188 265.707031 C 82.953125 274.011719 82.222656 279.132812 82.421875 289.921875 C 82.691406 304.226562 83.023438 321.894531 87.761719 332.707031 C 41.589844 300.898438 11.253906 247.671875 11.253906 187.488281 Z M 103.320312 342.289062 C 104.417969 342.097656 105.492188 341.828125 106.492188 341.492188 C 113.984375 338.960938 113.691406 326.125 117.496094 319.859375 C 122.710938 311.273438 131.105469 304.484375 140.886719 301.921875 C 146.628906 300.417969 153.160156 299.984375 157.285156 295.722656 C 163.523438 289.285156 161.160156 277.160156 168.28125 271.714844 C 172.679688 268.355469 179.273438 268.886719 183.421875 265.21875 C 187.4375 261.667969 187.660156 255.210938 185.390625 250.347656 C 182.722656 244.640625 178.78125 241.480469 174.839844 238.375 C 160.351562 226.964844 165.234375 219.800781 148.148438 202.289062 C 139.773438 193.710938 132.03125 188.699219 128.769531 186.699219 C 121.886719 182.484375 116.070312 180.113281 111.984375 178.46875 C 105.949219 176.039062 97.519531 173.164062 87.035156 171.160156 C 86.449219 166.296875 85.867188 161.433594 85.28125 156.570312 C 89.789062 160.191406 94.4375 163.886719 99.953125 165.636719 C 105.46875 167.390625 112.121094 166.789062 116.15625 162.644531 C 120.1875 158.496094 119.964844 150.46875 114.882812 147.703125 C 111.035156 145.609375 108.410156 147.082031 100.367188 146.398438 C 89.625 145.480469 89.074219 140.863281 71.519531 135.414062 C 62.992188 132.769531 61.121094 133.238281 59.363281 130.800781 C 53.601562 122.824219 62.644531 102.554688 71.519531 101.976562 C 80.691406 101.378906 86.421875 122.015625 93.476562 120.429688 C 99.277344 119.125 96.625 104.886719 105.945312 99.023438 C 112.925781 94.636719 117.699219 100.542969 128.765625 98.515625 C 145.363281 95.480469 148.03125 77.542969 161.980469 76.609375 C 168.109375 76.199219 173.484375 79.144531 177.472656 82.214844 C 180.453125 81.917969 185.148438 80.972656 189.65625 77.761719 C 201.445312 69.371094 200.6875 53.503906 200.601562 52.144531 C 197.199219 48.152344 196.054688 42.355469 197.671875 37.367188 C 198.9375 33.46875 201.6875 30.242188 203.472656 26.550781 C 205.253906 22.859375 205.878906 18.019531 203.132812 14.976562 C 200.386719 11.929688 193.8125 13.578125 194.207031 17.660156 C 191.679688 13.09375 184.484375 12.121094 180.832031 15.847656 C 183.957031 20.058594 184.699219 25.402344 182.578125 29.335938 C 179.566406 34.914062 170.941406 37.390625 163.601562 33.058594 C 167.023438 26.21875 170.445312 19.382812 173.871094 12.546875 C 172.679688 12.394531 171.394531 12.25 170.039062 12.117188 C 175.78125 11.550781 181.601562 11.253906 187.488281 11.253906 C 196.609375 11.253906 205.570312 11.953125 214.324219 13.296875 C 211.378906 15.210938 209.15625 18.339844 208.054688 23.058594 C 206.617188 29.21875 208.492188 36.046875 212.867188 40.613281 C 212.566406 43.835938 211.3125 46.964844 209.308594 49.507812 C 212.160156 51.199219 215.144531 52.929688 218.449219 53.179688 C 221.753906 53.429688 225.460938 51.699219 226.335938 48.503906 C 226.800781 46.789062 226.492188 44.722656 227.730469 43.449219 C 229.011719 42.132812 231.164062 42.460938 232.953125 42.882812 C 243.207031 45.3125 253.464844 47.742188 263.71875 50.175781 C 265.515625 50.601562 267.597656 50.972656 269.054688 49.835938 C 270.339844 48.835938 270.632812 47.03125 270.65625 45.40625 C 270.71875 41.320312 269.671875 37.226562 267.65625 33.671875 C 266.640625 31.875 265.378906 30.238281 263.972656 28.734375 C 284.070312 38.457031 302.050781 51.890625 317.027344 68.136719 C 312.332031 66.519531 307.714844 66.902344 303.464844 70.261719 C 298.988281 73.800781 296.675781 79.878906 297.667969 85.496094 C 290.445312 82.394531 281.003906 86.664062 278.5625 94.136719 C 276.121094 101.609375 281.214844 110.628906 288.875 112.394531 C 287.1875 106.75 292.605469 101.238281 298.265625 99.613281 C 303.929688 97.988281 310.03125 98.71875 315.765625 97.371094 C 317.910156 96.867188 320.332031 96.113281 322.183594 97.3125 C 325.011719 99.144531 323.605469 103.96875 320.621094 105.535156 C 317.636719 107.101562 314.050781 106.589844 310.679688 106.515625 C 307.121094 106.4375 303.320312 106.992188 300.632812 109.320312 C 297.945312 111.652344 296.980469 116.199219 299.414062 118.796875 C 296.265625 118.992188 293.121094 119.183594 289.976562 119.378906 C 290.261719 122.363281 290.542969 125.351562 290.828125 128.335938 C 289.070312 128.457031 287.3125 128.582031 285.558594 128.703125 C 282.652344 134.679688 281.398438 141.453125 281.96875 148.074219 C 285.675781 150.769531 290.148438 152.390625 294.722656 152.699219 C 298.417969 141.933594 310.417969 134.71875 321.660156 136.5 C 332.148438 138.160156 340.613281 146.703125 344.617188 156.542969 C 345.769531 159.367188 347 162.707031 349.917969 163.589844 C 352.371094 164.332031 354.96875 162.917969 356.867188 161.191406 C 358.492188 159.71875 359.832031 158 360.921875 156.117188 C 361.226562 157.804688 361.503906 159.5 361.757812 161.203125 C 352.738281 170.582031 345.625 172.355469 340.621094 172.070312 C 329.253906 171.425781 328.253906 160.15625 312.027344 156.742188 C 301.285156 154.476562 297.375 158.5 286.386719 154.40625 C 284.015625 153.523438 280.703125 152.035156 277.945312 153.519531 C 274.753906 155.242188 275.65625 159.140625 273.304688 163.792969 C 269.382812 171.546875 261.941406 170.457031 256.5 177.039062 C 253.824219 180.269531 251.261719 185.800781 252.1875 195.828125 C 249.875 198.101562 244.003906 204.507812 243.605469 213.648438 C 243.09375 225.394531 251.90625 235.121094 259.679688 239.71875 C 272.273438 247.164062 280.679688 241.070312 288.839844 249.089844 C 293.464844 253.636719 295.425781 260.253906 294.355469 266.648438 C 293.027344 274.582031 292.480469 274.738281 284.632812 289.765625 C 276.992188 304.394531 267.078125 304.941406 262.226562 313.332031 C 260.132812 316.957031 258.945312 321.503906 256.417969 326.617188 C 253.828125 331.863281 257.058594 338.144531 262.824219 339.121094 C 266.160156 339.6875 269.5 340.121094 271.984375 340.359375 C 272.972656 340.457031 273.941406 340.480469 274.898438 340.472656 C 249.121094 355.261719 219.273438 363.722656 187.484375 363.722656 C 157.023438 363.722656 128.34375 355.953125 103.320312 342.289062 Z M 103.320312 342.289062 " fill-opacity="1" fill-rule="nonzero"/></svg>