<svg xmlns="http://www.w3.org/2000/svg" xmlns:xlink="http://www.w3.org/1999/xlink" width="500" zoomAndPan="magnify" viewBox="0 0 375 374.999991" height="500" preserveAspectRatio="xMidYMid meet" version="1.0"><defs><filter x="0%" y="0%" width="100%" height="100%" id="0f9f7f8004"><feColorMatrix values="0 0 0 0 1 0 0 0 0 1 0 0 0 0 1 0 0 0 1 0" color-interpolation-filters="sRGB"/></filter><mask id="b3a5af0af8"><g filter="url(#0f9f7f8004)"><rect x="-37.5" width="450" fill="#000000" y="-37.499999" height="449.999989" fill-opacity="0.3"/></g></mask><clipPath id="c2fae03603"><rect x="0" width="375" y="0" height="375"/></clipPath></defs><g mask="url(#b3a5af0af8)"><g transform="matrix(1, 0, 0, 1, 0, 0)"><g clip-path="url(#c2fae03603)"><path fill="#d9d9d9" d="M 23.777344 282.394531 L 16.894531 282.394531 C 17.101562 303.207031 25.613281 322.023438 39.28125 335.691406 C 53.121094 349.53125 72.234375 358.089844 93.355469 358.089844 C 114.472656 358.089844 133.589844 349.53125 147.429688 335.691406 C 161.097656 322.023438 169.609375 303.207031 169.816406 282.394531 L 162.929688 282.394531 C 162.511719 320.46875 131.523438 351.203125 93.355469 351.203125 C 55.183594 351.203125 24.199219 320.464844 23.777344 282.394531 Z M 23.777344 282.394531 " fill-opacity="1" fill-rule="nonzero"/><path fill="#d9d9d9" d="M 84.453125 282.394531 C 84.851562 286.96875 88.679688 290.554688 93.355469 290.5625 C 98.03125 290.554688 101.855469 286.96875 102.257812 282.394531 Z M 84.453125 282.394531 " fill-opacity="1" fill-rule="nonzero"/><path fill="#d9d9d9" d="M 93.355469 317.441406 C 73.832031 317.4375 57.96875 301.816406 57.554688 282.394531 L 50.667969 282.394531 C 50.871094 293.882812 55.597656 304.257812 63.15625 311.816406 C 70.886719 319.546875 81.558594 324.324219 93.355469 324.324219 C 105.148438 324.324219 115.824219 319.546875 123.554688 311.816406 C 131.113281 304.257812 135.835938 293.882812 136.042969 282.394531 L 129.15625 282.394531 C 128.742188 301.816406 112.875 317.4375 93.355469 317.441406 Z M 93.355469 317.441406 " fill-opacity="1" fill-rule="nonzero"/><path fill="#d9d9d9" d="M 169.816406 92.578125 C 169.609375 71.765625 161.097656 52.953125 147.429688 39.28125 C 133.589844 25.441406 114.476562 16.882812 93.355469 16.882812 C 72.234375 16.882812 53.121094 25.441406 39.28125 39.28125 C 25.609375 52.953125 17.101562 71.765625 16.894531 92.578125 L 23.78125 92.578125 C 24.199219 54.503906 55.183594 23.769531 93.355469 23.769531 C 131.527344 23.769531 162.511719 54.507812 162.929688 92.578125 Z M 169.816406 92.578125 " fill-opacity="1" fill-rule="nonzero"/><path fill="#d9d9d9" d="M 152.925781 92.578125 C 152.71875 76.429688 146.105469 61.832031 135.492188 51.21875 C 124.707031 40.433594 109.8125 33.765625 93.355469 33.765625 C 76.894531 33.765625 62.003906 40.433594 51.21875 51.21875 C 40.605469 61.832031 33.992188 76.429688 33.785156 92.578125 L 40.671875 92.578125 C 41.089844 63.832031 64.507812 40.652344 93.355469 40.652344 C 122.203125 40.652344 145.621094 63.832031 146.039062 92.578125 Z M 152.925781 92.578125 " fill-opacity="1" fill-rule="nonzero"/><path fill="#d9d9d9" d="M 93.355469 300.558594 C 83.15625 300.554688 74.84375 292.492188 74.4375 282.394531 L 67.550781 282.394531 C 67.984375 296.296875 79.355469 307.417969 93.355469 307.445312 C 107.359375 307.417969 118.726562 296.296875 119.160156 282.394531 L 112.273438 282.394531 C 111.863281 292.492188 103.554688 300.554688 93.355469 300.558594 Z M 93.355469 300.558594 " fill-opacity="1" fill-rule="nonzero"/><path fill="#d9d9d9" d="M 112.273438 92.578125 L 119.160156 92.578125 C 118.726562 78.675781 107.355469 67.554688 93.355469 67.527344 C 79.351562 67.554688 67.984375 78.675781 67.550781 92.578125 L 74.433594 92.578125 C 74.84375 82.480469 83.152344 74.417969 93.355469 74.417969 C 103.554688 74.417969 111.867188 82.480469 112.273438 92.578125 Z M 112.273438 92.578125 " fill-opacity="1" fill-rule="nonzero"/><path fill="#d9d9d9" d="M 136.042969 92.578125 C 135.835938 81.089844 131.113281 70.714844 123.550781 63.15625 C 115.820312 55.425781 105.152344 50.648438 93.355469 50.648438 C 81.558594 50.648438 70.886719 55.425781 63.15625 63.15625 C 55.597656 70.714844 50.871094 81.09375 50.667969 92.578125 L 57.554688 92.578125 C 57.96875 73.15625 73.832031 57.535156 93.355469 57.53125 C 112.878906 57.535156 128.742188 73.15625 129.15625 92.578125 Z M 136.042969 92.578125 " fill-opacity="1" fill-rule="nonzero"/><path fill="#d9d9d9" d="M 93.355469 334.320312 C 64.507812 334.320312 41.089844 311.140625 40.671875 282.394531 L 33.785156 282.394531 C 33.992188 298.542969 40.601562 313.140625 51.21875 323.753906 C 62.003906 334.539062 76.898438 341.207031 93.351562 341.207031 C 109.8125 341.207031 124.703125 334.539062 135.492188 323.753906 C 146.105469 313.140625 152.71875 298.542969 152.925781 282.394531 L 146.035156 282.394531 C 145.621094 311.140625 122.203125 334.320312 93.355469 334.320312 Z M 93.355469 334.320312 " fill-opacity="1" fill-rule="nonzero"/><path fill="#d9d9d9" d="M 281.617188 102.296875 C 286.296875 102.289062 290.121094 98.707031 290.519531 94.132812 L 281.621094 94.132812 C 281.621094 94.132812 281.621094 94.132812 281.617188 94.132812 L 272.714844 94.132812 C 273.117188 98.707031 276.941406 102.289062 281.617188 102.296875 Z M 281.617188 102.296875 " fill-opacity="1" fill-rule="nonzero"/><path fill="#d9d9d9" d="M 281.617188 112.292969 C 271.417969 112.292969 263.105469 104.230469 262.699219 94.132812 L 255.8125 94.132812 C 256.25 108.03125 267.617188 119.15625 281.617188 119.179688 C 295.621094 119.15625 306.988281 108.03125 307.425781 94.132812 L 300.539062 94.132812 C 300.128906 104.230469 291.816406 112.292969 281.617188 112.292969 Z M 281.617188 112.292969 " fill-opacity="1" fill-rule="nonzero"/><path fill="#d9d9d9" d="M 309.738281 27.34375 C 293.011719 44.070312 282.613281 67.105469 282.402344 92.578125 L 291.335938 92.578125 C 291.335938 92.578125 291.339844 92.578125 291.339844 92.578125 L 299.777344 92.578125 C 299.777344 92.578125 299.777344 92.578125 299.78125 92.578125 C 299.78125 92.578125 299.78125 92.578125 299.785156 92.578125 L 325.101562 92.578125 C 325.101562 92.578125 325.105469 92.578125 325.105469 92.578125 L 358.863281 92.578125 C 358.867188 92.578125 358.867188 92.578125 358.867188 92.578125 C 358.871094 92.578125 358.871094 92.578125 358.871094 92.578125 L 374.972656 92.578125 L 374.972656 0.0078125 C 349.5 0.21875 326.460938 10.617188 309.738281 27.34375 Z M 309.738281 27.34375 " fill-opacity="1" fill-rule="nonzero"/><path fill="#d9d9d9" d="M 281.617188 129.175781 C 262.09375 129.175781 246.230469 113.554688 245.816406 94.132812 L 238.929688 94.132812 C 239.136719 105.617188 243.859375 115.996094 251.417969 123.554688 C 259.148438 131.285156 269.820312 136.0625 281.617188 136.0625 C 293.414062 136.0625 304.085938 131.285156 311.816406 123.554688 C 319.375 115.992188 324.101562 105.617188 324.304688 94.132812 L 317.417969 94.132812 C 317 113.554688 301.140625 129.175781 281.617188 129.175781 Z M 281.617188 129.175781 " fill-opacity="1" fill-rule="nonzero"/><path fill="#d9d9d9" d="M 281.617188 162.9375 C 243.445312 162.9375 212.460938 132.203125 212.042969 94.132812 L 205.15625 94.132812 C 205.363281 114.941406 213.875 133.757812 227.542969 147.429688 C 241.382812 161.269531 260.496094 169.828125 281.617188 169.828125 C 302.738281 169.828125 321.851562 161.269531 335.691406 147.429688 C 349.363281 133.757812 357.875 114.941406 358.078125 94.128906 L 351.191406 94.128906 C 350.773438 132.203125 319.789062 162.9375 281.617188 162.9375 Z M 281.617188 162.9375 " fill-opacity="1" fill-rule="nonzero"/><path fill="#d9d9d9" d="M 253.496094 27.34375 C 236.769531 10.617188 213.734375 0.21875 188.261719 0.0078125 L 188.261719 92.578125 L 280.832031 92.578125 C 280.621094 67.105469 270.222656 44.070312 253.496094 27.34375 Z M 253.496094 27.34375 " fill-opacity="1" fill-rule="nonzero"/><path fill="#d9d9d9" d="M 281.617188 146.058594 C 252.773438 146.054688 229.351562 122.878906 228.9375 94.132812 L 222.046875 94.132812 C 222.253906 110.28125 228.867188 124.875 239.480469 135.492188 C 250.265625 146.277344 265.160156 152.945312 281.617188 152.945312 C 298.074219 152.945312 312.96875 146.277344 323.753906 135.492188 C 334.367188 124.875 340.980469 110.277344 341.1875 94.132812 L 334.300781 94.132812 C 333.882812 122.878906 310.464844 146.054688 281.617188 146.058594 Z M 281.617188 146.058594 " fill-opacity="1" fill-rule="nonzero"/><path fill="#d9d9d9" d="M 324.308594 280.839844 C 324.101562 269.355469 319.375 258.980469 311.816406 251.417969 C 304.085938 243.6875 293.414062 238.910156 281.617188 238.910156 C 269.820312 238.910156 259.148438 243.6875 251.417969 251.417969 C 243.859375 258.980469 239.136719 269.355469 238.929688 280.84375 L 245.816406 280.84375 C 246.230469 261.417969 262.09375 245.796875 281.617188 245.796875 C 301.136719 245.796875 317.003906 261.417969 317.417969 280.839844 Z M 324.308594 280.839844 " fill-opacity="1" fill-rule="nonzero"/><path fill="#d9d9d9" d="M 341.1875 280.839844 C 340.980469 264.691406 334.367188 250.097656 323.753906 239.480469 C 312.96875 228.695312 298.074219 222.027344 281.617188 222.027344 C 265.160156 222.027344 250.265625 228.695312 239.480469 239.480469 C 228.867188 250.097656 222.253906 264.695312 222.050781 280.84375 L 228.933594 280.84375 C 229.351562 252.09375 252.769531 228.914062 281.617188 228.914062 C 310.464844 228.914062 333.882812 252.09375 334.300781 280.84375 L 341.1875 280.84375 Z M 341.1875 280.839844 " fill-opacity="1" fill-rule="nonzero"/><path fill="#d9d9d9" d="M 281.617188 255.792969 C 267.617188 255.816406 256.25 266.941406 255.816406 280.84375 L 262.699219 280.84375 C 263.105469 270.742188 271.417969 262.679688 281.617188 262.679688 C 291.816406 262.679688 300.128906 270.742188 300.535156 280.839844 L 307.417969 280.839844 C 306.988281 266.9375 295.621094 255.816406 281.617188 255.792969 Z M 281.617188 255.792969 " fill-opacity="1" fill-rule="nonzero"/><path fill="#d9d9d9" d="M 368.078125 94.132812 C 367.65625 141.527344 329.113281 179.820312 281.617188 179.820312 C 234.125 179.820312 195.578125 141.527344 195.160156 94.132812 L 188.273438 94.132812 C 188.480469 119.605469 198.878906 142.640625 215.605469 159.367188 C 232.492188 176.25 255.808594 186.695312 281.574219 186.710938 C 281.585938 186.710938 281.601562 186.710938 281.617188 186.710938 C 281.632812 186.710938 281.648438 186.710938 281.664062 186.710938 C 307.425781 186.695312 330.742188 176.253906 347.628906 159.367188 C 364.355469 142.640625 374.753906 119.601562 374.964844 94.128906 L 368.078125 94.128906 Z M 368.078125 94.132812 " fill-opacity="1" fill-rule="nonzero"/><path fill="#d9d9d9" d="M 374.960938 280.839844 C 374.753906 255.367188 364.355469 232.332031 347.628906 215.605469 C 330.742188 198.71875 307.417969 188.273438 281.648438 188.261719 C 281.636719 188.261719 281.628906 188.261719 281.617188 188.261719 C 281.609375 188.261719 281.597656 188.261719 281.585938 188.261719 C 255.816406 188.273438 232.496094 198.71875 215.605469 215.605469 C 198.882812 232.332031 188.480469 255.371094 188.273438 280.84375 L 195.160156 280.84375 C 195.578125 233.445312 234.125 195.152344 281.617188 195.152344 C 329.113281 195.152344 367.65625 233.445312 368.074219 280.839844 Z M 374.960938 280.839844 " fill-opacity="1" fill-rule="nonzero"/><path fill="#d9d9d9" d="M 358.082031 280.839844 C 357.875 260.027344 349.363281 241.214844 335.691406 227.542969 C 321.851562 213.703125 302.738281 205.144531 281.617188 205.144531 C 260.5 205.144531 241.386719 213.703125 227.542969 227.542969 C 213.875 241.214844 205.363281 260.03125 205.15625 280.84375 L 212.042969 280.84375 C 212.460938 242.769531 243.449219 212.035156 281.617188 212.03125 C 319.789062 212.035156 350.773438 242.765625 351.191406 280.839844 Z M 358.082031 280.839844 " fill-opacity="1" fill-rule="nonzero"/><path fill="#d9d9d9" d="M 325.101562 282.394531 C 325.101562 282.394531 325.101562 282.394531 325.097656 282.394531 L 316.667969 282.394531 C 316.664062 282.394531 316.664062 282.394531 316.664062 282.394531 C 316.660156 282.394531 316.660156 282.394531 316.660156 282.394531 L 299.78125 282.394531 C 299.78125 282.394531 299.78125 282.394531 299.777344 282.394531 C 299.777344 282.394531 299.777344 282.394531 299.773438 282.394531 L 291.34375 282.394531 C 291.339844 282.394531 291.339844 282.394531 291.339844 282.394531 C 291.335938 282.394531 291.335938 282.394531 291.335938 282.394531 L 282.402344 282.394531 C 282.613281 307.867188 293.011719 330.902344 309.738281 347.628906 C 326.460938 364.351562 349.496094 374.753906 374.972656 374.964844 L 374.972656 282.394531 L 325.105469 282.394531 C 325.105469 282.394531 325.105469 282.394531 325.101562 282.394531 Z M 325.101562 282.394531 " fill-opacity="1" fill-rule="nonzero"/><path fill="#d9d9d9" d="M 7.664062 280.839844 C 7.664062 280.839844 7.667969 280.84375 7.667969 280.84375 L 41.425781 280.84375 C 41.425781 280.84375 41.429688 280.839844 41.429688 280.839844 C 41.429688 280.839844 41.433594 280.84375 41.433594 280.84375 L 58.308594 280.84375 C 58.308594 280.84375 58.308594 280.839844 58.3125 280.839844 C 58.3125 280.839844 58.3125 280.84375 58.316406 280.84375 L 66.75 280.84375 C 66.75 280.84375 66.75 280.839844 66.753906 280.839844 C 66.753906 280.839844 66.753906 280.84375 66.757812 280.84375 L 83.628906 280.84375 C 83.628906 280.84375 83.632812 280.839844 83.636719 280.839844 C 83.636719 280.839844 83.640625 280.84375 83.640625 280.84375 L 92.566406 280.84375 C 92.359375 255.367188 81.960938 232.332031 65.234375 215.605469 C 48.511719 198.882812 25.472656 188.480469 0 188.273438 L 0 280.84375 L 7.660156 280.84375 C 7.664062 280.84375 7.664062 280.839844 7.664062 280.839844 Z M 7.664062 280.839844 " fill-opacity="1" fill-rule="nonzero"/><path fill="#d9d9d9" d="M 281.617188 272.675781 C 276.941406 272.683594 273.117188 276.265625 272.714844 280.84375 L 281.613281 280.84375 C 281.613281 280.84375 281.617188 280.839844 281.617188 280.839844 L 290.523438 280.839844 C 290.121094 276.265625 286.292969 272.683594 281.617188 272.675781 Z M 281.617188 272.675781 " fill-opacity="1" fill-rule="nonzero"/><path fill="#d9d9d9" d="M 179.046875 94.132812 C 179.046875 94.132812 179.046875 94.132812 179.042969 94.132812 L 162.167969 94.132812 C 162.167969 94.132812 162.164062 94.132812 162.164062 94.132812 C 162.160156 94.132812 162.160156 94.132812 162.15625 94.132812 L 153.726562 94.132812 C 153.726562 94.132812 153.722656 94.132812 153.722656 94.132812 C 153.722656 94.132812 153.71875 94.132812 153.71875 94.132812 L 128.402344 94.132812 C 128.398438 94.132812 128.398438 94.132812 128.398438 94.132812 L 111.523438 94.132812 C 111.519531 94.132812 111.519531 94.132812 111.519531 94.132812 C 111.515625 94.132812 111.515625 94.132812 111.515625 94.132812 L 103.078125 94.132812 C 103.078125 94.132812 103.074219 94.132812 103.074219 94.132812 C 103.074219 94.132812 103.070312 94.132812 103.070312 94.132812 L 94.140625 94.132812 C 94.351562 119.605469 104.75 142.640625 121.472656 159.367188 C 138.199219 176.09375 161.238281 186.492188 186.710938 186.699219 L 186.710938 94.132812 Z M 179.046875 94.132812 " fill-opacity="1" fill-rule="nonzero"/><path fill="#d9d9d9" d="M 93.355469 84.410156 C 88.675781 84.421875 84.851562 88.003906 84.453125 92.578125 L 93.351562 92.578125 C 93.351562 92.578125 93.355469 92.578125 93.355469 92.578125 C 93.355469 92.578125 93.359375 92.578125 93.359375 92.578125 L 102.257812 92.578125 C 101.855469 88.003906 98.03125 84.421875 93.355469 84.410156 Z M 93.355469 84.410156 " fill-opacity="1" fill-rule="nonzero"/><path fill="#d9d9d9" d="M 92.570312 94.132812 L 83.636719 94.132812 C 83.632812 94.132812 83.632812 94.132812 83.632812 94.132812 L 75.195312 94.132812 C 75.195312 94.132812 75.195312 94.132812 75.191406 94.132812 L 32.992188 94.132812 C 32.988281 94.132812 32.988281 94.132812 32.988281 94.132812 C 32.984375 94.132812 32.984375 94.132812 32.984375 94.132812 L 24.550781 94.132812 C 24.550781 94.132812 24.546875 94.132812 24.546875 94.132812 C 24.546875 94.132812 24.542969 94.132812 24.542969 94.132812 L 0 94.132812 L 0 186.699219 C 25.472656 186.492188 48.507812 176.09375 65.234375 159.367188 C 81.960938 142.640625 92.359375 119.605469 92.570312 94.132812 Z M 92.570312 94.132812 " fill-opacity="1" fill-rule="nonzero"/><path fill="#d9d9d9" d="M 93.355469 6.886719 C 140.847656 6.886719 179.394531 45.183594 179.8125 92.578125 L 186.699219 92.578125 C 186.492188 67.105469 176.09375 44.070312 159.367188 27.34375 C 142.46875 10.445312 119.136719 0 93.355469 0 C 67.574219 0 44.238281 10.445312 27.34375 27.34375 C 10.617188 44.070312 0.21875 67.105469 0.0078125 92.578125 L 6.898438 92.578125 C 7.316406 45.183594 45.859375 6.886719 93.355469 6.886719 Z M 93.355469 6.886719 " fill-opacity="1" fill-rule="nonzero"/><path fill="#d9d9d9" d="M 94.140625 280.84375 L 103.070312 280.84375 C 103.070312 280.84375 103.074219 280.839844 103.078125 280.839844 C 103.078125 280.839844 103.082031 280.84375 103.085938 280.84375 L 119.953125 280.84375 C 119.957031 280.84375 119.957031 280.839844 119.957031 280.839844 C 119.960938 280.839844 119.960938 280.84375 119.960938 280.84375 L 128.394531 280.84375 C 128.398438 280.84375 128.398438 280.839844 128.398438 280.839844 C 128.402344 280.839844 128.402344 280.84375 128.402344 280.84375 L 145.277344 280.84375 C 145.28125 280.84375 145.28125 280.839844 145.28125 280.839844 C 145.285156 280.839844 145.285156 280.84375 145.285156 280.84375 L 179.042969 280.84375 C 179.046875 280.84375 179.046875 280.839844 179.046875 280.839844 C 179.050781 280.839844 179.050781 280.84375 179.050781 280.84375 L 186.710938 280.84375 L 186.710938 188.273438 C 161.238281 188.480469 138.203125 198.882812 121.476562 215.605469 C 104.75 232.332031 94.347656 255.367188 94.140625 280.84375 Z M 94.140625 280.84375 " fill-opacity="1" fill-rule="nonzero"/><path fill="#d9d9d9" d="M 271.898438 282.394531 C 271.894531 282.394531 271.894531 282.394531 271.890625 282.394531 L 263.464844 282.394531 C 263.460938 282.394531 263.457031 282.394531 263.457031 282.394531 C 263.453125 282.394531 263.449219 282.394531 263.449219 282.394531 L 255.019531 282.394531 C 255.015625 282.394531 255.015625 282.394531 255.015625 282.394531 C 255.011719 282.394531 255.011719 282.394531 255.011719 282.394531 L 246.578125 282.394531 C 246.578125 282.394531 246.574219 282.394531 246.570312 282.394531 C 246.570312 282.394531 246.566406 282.394531 246.5625 282.394531 L 238.140625 282.394531 C 238.136719 282.394531 238.132812 282.394531 238.132812 282.394531 C 238.128906 282.394531 238.125 282.394531 238.125 282.394531 L 221.253906 282.394531 C 221.25 282.394531 221.25 282.394531 221.25 282.394531 C 221.246094 282.394531 221.246094 282.394531 221.246094 282.394531 L 212.8125 282.394531 C 212.8125 282.394531 212.8125 282.394531 212.808594 282.394531 C 212.808594 282.394531 212.808594 282.394531 212.804688 282.394531 L 204.375 282.394531 C 204.371094 282.394531 204.371094 282.394531 204.371094 282.394531 C 204.367188 282.394531 204.367188 282.394531 204.367188 282.394531 L 188.265625 282.394531 L 188.265625 374.964844 C 213.734375 374.753906 236.773438 364.355469 253.496094 347.628906 C 270.222656 330.902344 280.625 307.867188 280.832031 282.394531 L 271.90625 282.394531 C 271.902344 282.394531 271.898438 282.394531 271.898438 282.394531 Z M 271.898438 282.394531 " fill-opacity="1" fill-rule="nonzero"/><path fill="#d9d9d9" d="M 93.355469 368.085938 C 45.859375 368.085938 7.316406 329.789062 6.898438 282.394531 L 0.0117188 282.394531 C 0.21875 307.867188 10.617188 330.902344 27.34375 347.628906 C 44.238281 364.523438 67.574219 374.972656 93.355469 374.972656 C 119.136719 374.972656 142.46875 364.523438 159.367188 347.628906 C 176.089844 330.902344 186.492188 307.867188 186.699219 282.394531 L 179.8125 282.394531 C 179.394531 329.789062 140.847656 368.085938 93.355469 368.085938 Z M 93.355469 368.085938 " fill-opacity="1" fill-rule="nonzero"/></g></g></g></svg>