<svg xmlns="http://www.w3.org/2000/svg" xmlns:xlink="http://www.w3.org/1999/xlink" width="400" zoomAndPan="magnify" viewBox="0 0 300 74.999997" height="100" preserveAspectRatio="xMidYMid meet" version="1.0"><defs><clipPath id="253f7e2c85"><path d="M 261 37 L 299.25 37 L 299.25 75 L 261 75 Z M 261 37 " clip-rule="nonzero"/></clipPath><clipPath id="43c5b6103a"><path d="M 261 0 L 299.25 0 L 299.25 38 L 261 38 Z M 261 0 " clip-rule="nonzero"/></clipPath></defs><path fill="#2d308b" d="M 75.050781 37.398438 C 75.050781 58.167969 58.214844 75 37.449219 75 C 37.449219 54.234375 54.28125 37.398438 75.050781 37.398438 Z M 75.050781 37.398438 " fill-opacity="1" fill-rule="nonzero"/><path fill="#d64945" d="M 18.847656 0 C 19.464844 0 20.078125 0.03125 20.691406 0.0898438 C 21.304688 0.152344 21.914062 0.242188 22.515625 0.359375 C 23.121094 0.480469 23.71875 0.628906 24.304688 0.808594 C 24.894531 0.988281 25.476562 1.195312 26.042969 1.429688 C 26.613281 1.667969 27.167969 1.929688 27.710938 2.21875 C 28.253906 2.511719 28.78125 2.828125 29.292969 3.167969 C 29.804688 3.511719 30.300781 3.875 30.777344 4.265625 C 31.25 4.65625 31.707031 5.070312 32.144531 5.507812 C 32.578125 5.941406 32.992188 6.398438 33.382812 6.875 C 33.773438 7.347656 34.136719 7.84375 34.480469 8.355469 C 34.824219 8.867188 35.140625 9.394531 35.429688 9.9375 C 35.71875 10.480469 35.980469 11.035156 36.21875 11.605469 C 36.453125 12.175781 36.660156 12.753906 36.839844 13.34375 C 37.019531 13.933594 37.167969 14.527344 37.289062 15.132812 C 37.40625 15.734375 37.5 16.34375 37.558594 16.957031 C 37.617188 17.570312 37.648438 18.183594 37.648438 18.800781 C 37.648438 19.414062 37.617188 20.03125 37.558594 20.644531 C 37.5 21.253906 37.40625 21.863281 37.289062 22.46875 C 37.167969 23.070312 37.019531 23.667969 36.839844 24.257812 C 36.660156 24.847656 36.453125 25.425781 36.21875 25.996094 C 35.980469 26.5625 35.71875 27.121094 35.429688 27.664062 C 35.140625 28.207031 34.824219 28.734375 34.480469 29.246094 C 34.136719 29.757812 33.773438 30.25 33.382812 30.726562 C 32.992188 31.203125 32.578125 31.660156 32.144531 32.09375 C 31.707031 32.527344 31.25 32.941406 30.777344 33.332031 C 30.300781 33.722656 29.804688 34.089844 29.292969 34.433594 C 28.78125 34.773438 28.253906 35.089844 27.710938 35.378906 C 27.167969 35.671875 26.613281 35.933594 26.042969 36.167969 C 25.476562 36.40625 24.894531 36.613281 24.304688 36.789062 C 23.71875 36.96875 23.121094 37.117188 22.515625 37.238281 C 21.914062 37.359375 21.304688 37.449219 20.691406 37.507812 C 20.078125 37.570312 19.464844 37.601562 18.847656 37.601562 C 18.234375 37.601562 17.617188 37.570312 17.007812 37.507812 C 16.394531 37.449219 15.785156 37.359375 15.179688 37.238281 C 14.578125 37.117188 13.980469 36.96875 13.390625 36.789062 C 12.800781 36.613281 12.222656 36.40625 11.65625 36.167969 C 11.085938 35.933594 10.53125 35.671875 9.988281 35.378906 C 9.445312 35.089844 8.917969 34.773438 8.402344 34.433594 C 7.890625 34.089844 7.398438 33.722656 6.921875 33.332031 C 6.445312 32.941406 5.992188 32.527344 5.554688 32.09375 C 5.121094 31.660156 4.707031 31.203125 4.316406 30.726562 C 3.925781 30.25 3.558594 29.757812 3.21875 29.246094 C 2.875 28.734375 2.558594 28.207031 2.269531 27.664062 C 1.976562 27.121094 1.714844 26.5625 1.480469 25.996094 C 1.246094 25.425781 1.039062 24.847656 0.859375 24.257812 C 0.679688 23.667969 0.53125 23.070312 0.410156 22.46875 C 0.289062 21.863281 0.199219 21.253906 0.140625 20.644531 C 0.078125 20.03125 0.0507812 19.414062 0.0507812 18.800781 C 0.0507812 18.183594 0.078125 17.570312 0.140625 16.957031 C 0.199219 16.34375 0.289062 15.734375 0.410156 15.132812 C 0.53125 14.527344 0.679688 13.933594 0.859375 13.34375 C 1.039062 12.753906 1.246094 12.175781 1.480469 11.605469 C 1.714844 11.035156 1.976562 10.480469 2.269531 9.9375 C 2.558594 9.394531 2.875 8.867188 3.21875 8.355469 C 3.558594 7.84375 3.925781 7.347656 4.316406 6.875 C 4.707031 6.398438 5.121094 5.941406 5.554688 5.507812 C 5.992188 5.070312 6.445312 4.65625 6.921875 4.265625 C 7.398438 3.875 7.890625 3.511719 8.402344 3.167969 C 8.917969 2.828125 9.445312 2.511719 9.988281 2.21875 C 10.53125 1.929688 11.085938 1.667969 11.65625 1.429688 C 12.222656 1.195312 12.800781 0.988281 13.390625 0.808594 C 13.980469 0.628906 14.578125 0.480469 15.179688 0.359375 C 15.785156 0.242188 16.394531 0.152344 17.007812 0.0898438 C 17.617188 0.03125 18.234375 0 18.847656 0 Z M 18.847656 0 " fill-opacity="1" fill-rule="nonzero"/><path fill="#2fb7a1" d="M 37.449219 0 L 37.449219 37.601562 L 75.050781 37.601562 C 75.050781 16.832031 58.214844 0 37.449219 0 Z M 37.449219 0 " fill-opacity="1" fill-rule="nonzero"/><path fill="#2fb7a1" d="M 0.0507812 37.398438 L 37.648438 37.398438 C 37.648438 58.167969 20.816406 75 0.0507812 75 Z M 0.0507812 37.398438 " fill-opacity="1" fill-rule="nonzero"/><path fill="#2fb7a1" d="M 131.046875 37.398438 C 131.664062 37.398438 132.277344 37.429688 132.890625 37.492188 C 133.503906 37.550781 134.113281 37.640625 134.714844 37.761719 C 135.320312 37.882812 135.917969 38.03125 136.503906 38.210938 C 137.09375 38.386719 137.671875 38.59375 138.242188 38.832031 C 138.8125 39.066406 139.367188 39.328125 139.910156 39.621094 C 140.453125 39.910156 140.980469 40.226562 141.492188 40.566406 C 142.003906 40.910156 142.5 41.277344 142.976562 41.667969 C 143.449219 42.058594 143.90625 42.472656 144.34375 42.90625 C 144.777344 43.339844 145.191406 43.796875 145.582031 44.273438 C 145.972656 44.75 146.335938 45.242188 146.679688 45.753906 C 147.023438 46.265625 147.339844 46.792969 147.628906 47.335938 C 147.917969 47.878906 148.179688 48.4375 148.417969 49.003906 C 148.652344 49.574219 148.859375 50.152344 149.039062 50.742188 C 149.21875 51.332031 149.367188 51.929688 149.488281 52.53125 C 149.605469 53.136719 149.699219 53.746094 149.757812 54.355469 C 149.816406 54.96875 149.847656 55.585938 149.847656 56.199219 C 149.847656 56.816406 149.816406 57.429688 149.757812 58.042969 C 149.699219 58.65625 149.605469 59.261719 149.488281 59.867188 C 149.367188 60.472656 149.21875 61.066406 149.039062 61.65625 C 148.859375 62.246094 148.652344 62.824219 148.417969 63.394531 C 148.179688 63.964844 147.917969 64.519531 147.628906 65.0625 C 147.339844 65.605469 147.023438 66.132812 146.679688 66.644531 C 146.335938 67.15625 145.972656 67.652344 145.582031 68.125 C 145.191406 68.601562 144.777344 69.058594 144.34375 69.492188 C 143.90625 69.929688 143.449219 70.34375 142.976562 70.734375 C 142.5 71.125 142.003906 71.488281 141.492188 71.832031 C 140.980469 72.171875 140.453125 72.488281 139.910156 72.78125 C 139.367188 73.070312 138.8125 73.332031 138.242188 73.570312 C 137.671875 73.804688 137.09375 74.011719 136.503906 74.191406 C 135.917969 74.371094 135.320312 74.519531 134.714844 74.640625 C 134.113281 74.757812 133.503906 74.847656 132.890625 74.910156 C 132.277344 74.96875 131.664062 75 131.046875 75 C 130.433594 75 129.816406 74.96875 129.207031 74.910156 C 128.59375 74.847656 127.984375 74.757812 127.378906 74.640625 C 126.777344 74.519531 126.179688 74.371094 125.589844 74.191406 C 125 74.011719 124.421875 73.804688 123.855469 73.570312 C 123.285156 73.332031 122.730469 73.070312 122.1875 72.78125 C 121.644531 72.488281 121.117188 72.171875 120.601562 71.832031 C 120.089844 71.488281 119.597656 71.125 119.121094 70.734375 C 118.644531 70.34375 118.191406 69.929688 117.753906 69.492188 C 117.320312 69.058594 116.90625 68.601562 116.515625 68.125 C 116.125 67.652344 115.757812 67.15625 115.417969 66.644531 C 115.074219 66.132812 114.757812 65.605469 114.46875 65.0625 C 114.175781 64.519531 113.914062 63.964844 113.679688 63.394531 C 113.445312 62.824219 113.234375 62.246094 113.058594 61.65625 C 112.878906 61.066406 112.730469 60.472656 112.609375 59.867188 C 112.488281 59.261719 112.398438 58.65625 112.339844 58.042969 C 112.277344 57.429688 112.25 56.816406 112.246094 56.199219 C 112.25 55.585938 112.277344 54.96875 112.339844 54.355469 C 112.398438 53.746094 112.488281 53.136719 112.609375 52.53125 C 112.730469 51.929688 112.878906 51.332031 113.058594 50.742188 C 113.234375 50.152344 113.445312 49.574219 113.679688 49.003906 C 113.914062 48.4375 114.175781 47.878906 114.46875 47.335938 C 114.757812 46.792969 115.074219 46.265625 115.417969 45.753906 C 115.757812 45.242188 116.125 44.75 116.515625 44.273438 C 116.90625 43.796875 117.320312 43.339844 117.753906 42.90625 C 118.191406 42.472656 118.644531 42.058594 119.121094 41.667969 C 119.597656 41.277344 120.089844 40.910156 120.601562 40.566406 C 121.117188 40.226562 121.644531 39.910156 122.1875 39.621094 C 122.730469 39.328125 123.285156 39.066406 123.855469 38.832031 C 124.421875 38.59375 125 38.386719 125.589844 38.210938 C 126.179688 38.03125 126.777344 37.882812 127.378906 37.761719 C 127.984375 37.640625 128.59375 37.550781 129.207031 37.492188 C 129.816406 37.429688 130.433594 37.398438 131.046875 37.398438 Z M 131.046875 37.398438 " fill-opacity="1" fill-rule="nonzero"/><path fill="#ffa327" d="M 149.648438 37.398438 C 170.414062 37.398438 187.246094 54.234375 187.246094 75 L 149.648438 75 Z M 149.648438 37.398438 " fill-opacity="1" fill-rule="nonzero"/><path fill="#2fb7a1" d="M 205.847656 37.398438 C 206.464844 37.398438 207.078125 37.429688 207.691406 37.492188 C 208.304688 37.550781 208.910156 37.640625 209.515625 37.761719 C 210.121094 37.882812 210.714844 38.03125 211.304688 38.210938 C 211.894531 38.386719 212.472656 38.59375 213.042969 38.832031 C 213.609375 39.066406 214.167969 39.328125 214.710938 39.621094 C 215.253906 39.910156 215.78125 40.226562 216.292969 40.566406 C 216.804688 40.910156 217.296875 41.277344 217.773438 41.667969 C 218.25 42.058594 218.707031 42.472656 219.140625 42.90625 C 219.578125 43.339844 219.988281 43.796875 220.378906 44.273438 C 220.769531 44.75 221.136719 45.242188 221.480469 45.753906 C 221.820312 46.265625 222.136719 46.792969 222.429688 47.335938 C 222.71875 47.878906 222.980469 48.4375 223.214844 49.003906 C 223.453125 49.574219 223.660156 50.152344 223.839844 50.742188 C 224.015625 51.332031 224.167969 51.929688 224.285156 52.53125 C 224.40625 53.136719 224.496094 53.746094 224.558594 54.355469 C 224.617188 54.96875 224.648438 55.585938 224.648438 56.199219 C 224.648438 56.816406 224.617188 57.429688 224.558594 58.042969 C 224.496094 58.65625 224.40625 59.261719 224.285156 59.867188 C 224.167969 60.472656 224.015625 61.066406 223.839844 61.65625 C 223.660156 62.246094 223.453125 62.824219 223.214844 63.394531 C 222.980469 63.964844 222.71875 64.519531 222.429688 65.0625 C 222.136719 65.605469 221.820312 66.132812 221.480469 66.644531 C 221.136719 67.15625 220.769531 67.652344 220.378906 68.125 C 219.988281 68.601562 219.578125 69.058594 219.140625 69.492188 C 218.707031 69.929688 218.25 70.34375 217.773438 70.734375 C 217.296875 71.125 216.804688 71.488281 216.292969 71.832031 C 215.78125 72.171875 215.253906 72.488281 214.710938 72.78125 C 214.167969 73.070312 213.609375 73.332031 213.042969 73.570312 C 212.472656 73.804688 211.894531 74.011719 211.304688 74.191406 C 210.714844 74.371094 210.121094 74.519531 209.515625 74.640625 C 208.910156 74.757812 208.304688 74.847656 207.691406 74.910156 C 207.078125 74.96875 206.464844 75 205.847656 75 C 205.230469 75 204.617188 74.96875 204.003906 74.910156 C 203.390625 74.847656 202.785156 74.757812 202.179688 74.640625 C 201.574219 74.519531 200.980469 74.371094 200.390625 74.191406 C 199.800781 74.011719 199.222656 73.804688 198.652344 73.570312 C 198.085938 73.332031 197.527344 73.070312 196.984375 72.78125 C 196.441406 72.488281 195.914062 72.171875 195.402344 71.832031 C 194.890625 71.488281 194.398438 71.125 193.921875 70.734375 C 193.445312 70.34375 192.988281 69.929688 192.554688 69.492188 C 192.117188 69.058594 191.707031 68.601562 191.316406 68.125 C 190.925781 67.652344 190.558594 67.15625 190.214844 66.644531 C 189.875 66.132812 189.558594 65.605469 189.265625 65.0625 C 188.976562 64.519531 188.714844 63.964844 188.480469 63.394531 C 188.242188 62.824219 188.035156 62.246094 187.855469 61.65625 C 187.679688 61.066406 187.527344 60.472656 187.410156 59.867188 C 187.289062 59.261719 187.199219 58.65625 187.136719 58.042969 C 187.078125 57.429688 187.046875 56.816406 187.046875 56.199219 C 187.046875 55.585938 187.078125 54.96875 187.136719 54.355469 C 187.199219 53.746094 187.289062 53.136719 187.410156 52.53125 C 187.527344 51.929688 187.679688 51.332031 187.855469 50.742188 C 188.035156 50.152344 188.242188 49.574219 188.480469 49.003906 C 188.714844 48.4375 188.976562 47.878906 189.265625 47.335938 C 189.558594 46.792969 189.875 46.265625 190.214844 45.753906 C 190.558594 45.242188 190.925781 44.75 191.316406 44.273438 C 191.707031 43.796875 192.117188 43.339844 192.554688 42.90625 C 192.988281 42.472656 193.445312 42.058594 193.921875 41.667969 C 194.398438 41.277344 194.890625 40.910156 195.402344 40.566406 C 195.914062 40.226562 196.441406 39.910156 196.984375 39.621094 C 197.527344 39.328125 198.085938 39.066406 198.652344 38.832031 C 199.222656 38.59375 199.800781 38.386719 200.390625 38.210938 C 200.980469 38.03125 201.574219 37.882812 202.179688 37.761719 C 202.785156 37.640625 203.390625 37.550781 204.003906 37.492188 C 204.617188 37.429688 205.230469 37.398438 205.847656 37.398438 Z M 205.847656 37.398438 " fill-opacity="1" fill-rule="nonzero"/><path fill="#2d308b" d="M 224.445312 37.398438 C 245.214844 37.398438 262.046875 54.234375 262.046875 75 L 224.445312 75 Z M 224.445312 37.398438 " fill-opacity="1" fill-rule="nonzero"/><g clip-path="url(#253f7e2c85)"><path fill="#d64945" d="M 299.445312 37.398438 L 299.445312 75 L 261.847656 75 Z M 299.445312 37.398438 " fill-opacity="1" fill-rule="nonzero"/></g><path fill="#ffa327" d="M 112.449219 0 C 112.449219 20.765625 95.613281 37.601562 74.847656 37.601562 C 74.847656 16.832031 91.683594 0 112.449219 0 Z M 112.449219 0 " fill-opacity="1" fill-rule="nonzero"/><path fill="#2fb7a1" d="M 187.246094 37.601562 L 149.648438 37.601562 L 149.648438 0 Z M 187.246094 37.601562 " fill-opacity="1" fill-rule="nonzero"/><path fill="#d64945" d="M 187.046875 0 L 224.648438 0 L 224.648438 37.601562 C 203.882812 37.601562 187.046875 20.765625 187.046875 0 Z M 187.046875 0 " fill-opacity="1" fill-rule="nonzero"/><path fill="#2fb7a1" d="M 224.445312 0 L 262.046875 0 C 262.046875 20.765625 245.214844 37.601562 224.445312 37.601562 Z M 224.445312 0 " fill-opacity="1" fill-rule="nonzero"/><g clip-path="url(#43c5b6103a)"><path fill="#ffa327" d="M 280.648438 0 C 281.261719 0 281.878906 0.03125 282.488281 0.0898438 C 283.101562 0.152344 283.710938 0.242188 284.316406 0.359375 C 284.917969 0.480469 285.515625 0.628906 286.105469 0.808594 C 286.695312 0.988281 287.273438 1.195312 287.839844 1.429688 C 288.410156 1.667969 288.964844 1.929688 289.507812 2.21875 C 290.050781 2.511719 290.578125 2.828125 291.09375 3.167969 C 291.605469 3.511719 292.097656 3.875 292.574219 4.265625 C 293.050781 4.65625 293.503906 5.070312 293.941406 5.507812 C 294.375 5.941406 294.789062 6.398438 295.179688 6.875 C 295.570312 7.347656 295.9375 7.84375 296.277344 8.355469 C 296.621094 8.867188 296.9375 9.394531 297.226562 9.9375 C 297.515625 10.480469 297.78125 11.035156 298.015625 11.605469 C 298.25 12.175781 298.457031 12.753906 298.636719 13.34375 C 298.816406 13.933594 298.964844 14.527344 299.085938 15.132812 C 299.207031 15.734375 299.296875 16.34375 299.355469 16.957031 C 299.417969 17.570312 299.445312 18.183594 299.445312 18.800781 C 299.445312 19.414062 299.417969 20.03125 299.355469 20.644531 C 299.296875 21.253906 299.207031 21.863281 299.085938 22.46875 C 298.964844 23.070312 298.816406 23.667969 298.636719 24.257812 C 298.457031 24.847656 298.25 25.425781 298.015625 25.996094 C 297.78125 26.5625 297.515625 27.121094 297.226562 27.664062 C 296.9375 28.207031 296.621094 28.734375 296.277344 29.246094 C 295.9375 29.757812 295.570312 30.25 295.179688 30.726562 C 294.789062 31.203125 294.375 31.660156 293.941406 32.09375 C 293.503906 32.527344 293.050781 32.941406 292.574219 33.332031 C 292.097656 33.722656 291.605469 34.089844 291.09375 34.433594 C 290.578125 34.773438 290.050781 35.089844 289.507812 35.378906 C 288.964844 35.671875 288.410156 35.933594 287.839844 36.167969 C 287.273438 36.40625 286.695312 36.613281 286.105469 36.789062 C 285.515625 36.96875 284.917969 37.117188 284.316406 37.238281 C 283.710938 37.359375 283.101562 37.449219 282.488281 37.507812 C 281.878906 37.570312 281.261719 37.601562 280.648438 37.601562 C 280.03125 37.601562 279.417969 37.570312 278.804688 37.507812 C 278.191406 37.449219 277.582031 37.359375 276.980469 37.238281 C 276.375 37.117188 275.777344 36.96875 275.191406 36.789062 C 274.601562 36.613281 274.019531 36.40625 273.453125 36.167969 C 272.882812 35.933594 272.328125 35.671875 271.785156 35.378906 C 271.242188 35.089844 270.714844 34.773438 270.203125 34.433594 C 269.691406 34.089844 269.195312 33.722656 268.71875 33.332031 C 268.246094 32.941406 267.789062 32.527344 267.351562 32.09375 C 266.917969 31.660156 266.503906 31.203125 266.113281 30.726562 C 265.722656 30.25 265.355469 29.757812 265.015625 29.246094 C 264.671875 28.734375 264.355469 28.207031 264.066406 27.664062 C 263.777344 27.121094 263.511719 26.5625 263.277344 25.996094 C 263.042969 25.425781 262.835938 24.847656 262.65625 24.257812 C 262.476562 23.667969 262.328125 23.070312 262.207031 22.46875 C 262.089844 21.863281 261.996094 21.253906 261.9375 20.644531 C 261.878906 20.03125 261.847656 19.414062 261.847656 18.800781 C 261.847656 18.183594 261.878906 17.570312 261.9375 16.957031 C 261.996094 16.34375 262.089844 15.734375 262.207031 15.132812 C 262.328125 14.527344 262.476562 13.933594 262.65625 13.34375 C 262.835938 12.753906 263.042969 12.175781 263.277344 11.605469 C 263.511719 11.035156 263.777344 10.480469 264.066406 9.9375 C 264.355469 9.394531 264.671875 8.867188 265.015625 8.355469 C 265.355469 7.84375 265.722656 7.347656 266.113281 6.875 C 266.503906 6.398438 266.917969 5.941406 267.351562 5.507812 C 267.789062 5.070312 268.246094 4.65625 268.71875 4.265625 C 269.195312 3.875 269.691406 3.511719 270.203125 3.167969 C 270.714844 2.828125 271.242188 2.511719 271.785156 2.21875 C 272.328125 1.929688 272.882812 1.667969 273.453125 1.429688 C 274.019531 1.195312 274.601562 0.988281 275.191406 0.808594 C 275.777344 0.628906 276.375 0.480469 276.980469 0.359375 C 277.582031 0.242188 278.191406 0.152344 278.804688 0.0898438 C 279.417969 0.03125 280.03125 0 280.648438 0 Z M 280.648438 0 " fill-opacity="1" fill-rule="nonzero"/></g><path fill="#d64945" d="M 74.847656 75 L 74.847656 37.398438 L 112.449219 37.398438 Z M 74.847656 75 " fill-opacity="1" fill-rule="nonzero"/><path fill="#2d308b" d="M 112.246094 0 L 149.847656 0 L 112.246094 37.601562 Z M 112.246094 0 " fill-opacity="1" fill-rule="nonzero"/></svg>