<svg xmlns="http://www.w3.org/2000/svg" xmlns:xlink="http://www.w3.org/1999/xlink" width="475" zoomAndPan="magnify" viewBox="0 0 356.25 187.499995" height="250" preserveAspectRatio="xMidYMid meet" version="1.0"><defs><clipPath id="750d19560a"><path d="M 0.101562 2.890625 L 355.402344 2.890625 L 355.402344 186.898438 L 0.101562 186.898438 Z M 0.101562 2.890625 " clip-rule="nonzero"/></clipPath><clipPath id="e34adf707c"><path d="M 0.101562 53 L 335 53 L 335 186.898438 L 0.101562 186.898438 Z M 0.101562 53 " clip-rule="nonzero"/></clipPath><clipPath id="dc8e9b2c7c"><path d="M 23 79 L 302 79 L 302 186.898438 L 23 186.898438 Z M 23 79 " clip-rule="nonzero"/></clipPath><clipPath id="c9de7a260d"><path d="M 23 2.890625 L 335 2.890625 L 335 186.898438 L 23 186.898438 Z M 23 2.890625 " clip-rule="nonzero"/></clipPath><clipPath id="4c0a25b2da"><path d="M 0.101562 70 L 355.402344 70 L 355.402344 186.898438 L 0.101562 186.898438 Z M 0.101562 70 " clip-rule="nonzero"/></clipPath></defs><g clip-path="url(#750d19560a)"><path fill="#2fb7a1" d="M 355.25 70.867188 L 355.25 186.894531 L 272.878906 186.894531 L 272.878906 158.78125 C 272.878906 158.777344 272.878906 158.773438 272.878906 158.773438 L 272.878906 130.488281 L 301.097656 130.488281 L 301.097656 70.867188 L 308.089844 70.867188 L 308.089844 62.675781 L 320.058594 62.675781 L 320.058594 27.714844 L 322.484375 27.714844 L 322.484375 62.675781 L 334.453125 62.675781 L 334.453125 70.867188 Z M 244.660156 98.121094 L 244.660156 53.703125 L 216.425781 53.703125 L 216.425781 44 L 212.675781 44 L 214.34375 43.988281 L 210.992188 2.890625 L 207.917969 44 L 206.71875 44 L 206.71875 137.027344 L 186.972656 137.027344 L 186.949219 137.003906 L 186.949219 115.703125 L 166.226562 94.378906 L 166.226562 94.96875 L 141.464844 94.96875 L 141.464844 109.386719 L 129.84375 109.386719 L 129.84375 109.320312 L 123.625 109.320312 L 116.15625 96.195312 L 111.984375 88.859375 L 100.339844 109.320312 L 91.046875 109.320312 L 91.046875 97.023438 L 46.082031 97.023438 L 46.082031 142.214844 L 23.738281 142.214844 L 23.738281 139.925781 C 23.738281 139.878906 23.738281 139.828125 23.738281 139.78125 L 23.152344 139.78125 L 23.152344 139.765625 C 23.347656 139.769531 23.542969 139.78125 23.738281 139.78125 L 23.738281 116.289062 C 23.738281 116.238281 23.738281 116.191406 23.738281 116.140625 L 0.25 116.140625 L 0.25 186.878906 L 23.152344 186.878906 L 23.152344 186.871094 C 23.347656 186.875 23.542969 186.886719 23.738281 186.886719 L 23.738281 186.894531 L 46.078125 186.894531 L 46.078125 186.917969 L 186.949219 186.917969 L 186.949219 186.894531 L 272.878906 186.894531 C 272.878906 186.894531 272.878906 158.742188 272.878906 158.738281 C 272.878906 158.738281 272.878906 158.671875 272.878906 158.671875 L 272.878906 102.238281 L 244.660156 102.238281 Z M 244.660156 98.121094 " fill-opacity="1" fill-rule="nonzero"/></g><g clip-path="url(#e34adf707c)"><path fill="#2d308b" d="M 23.152344 186.871094 L 23.152344 186.878906 L 0.25 186.878906 L 0.25 163.394531 C 0.25 176.171875 10.449219 186.558594 23.152344 186.871094 Z M 96.316406 155.070312 L 91.046875 148.121094 L 91.042969 148.125 L 91.042969 167.503906 L 105.753906 167.503906 Z M 0.25 139.925781 L 0.25 163.25 L 20.960938 163.25 C 9.296875 161.871094 0.25 151.960938 0.25 139.925781 Z M 91.042969 141.984375 L 46.082031 97.023438 L 46.082031 121.5625 C 57.410156 121.5625 66.601562 130.6875 66.726562 141.984375 Z M 91.042969 167.503906 L 91.042969 186.894531 L 105.75 186.894531 L 96.316406 174.453125 Z M 0.25 116.289062 L 0.25 139.78125 L 23.152344 139.78125 L 23.152344 139.765625 C 10.449219 139.453125 0.25 129.066406 0.25 116.289062 Z M 334.453125 62.675781 L 334.453125 70.867188 L 334.09375 70.867188 L 334.09375 186.894531 L 301.097656 186.894531 L 301.097656 70.867188 L 308.089844 70.867188 L 308.089844 62.675781 Z M 313.980469 146.570312 L 307.546875 146.570312 L 307.546875 160.382812 L 313.980469 160.382812 Z M 327.640625 146.570312 L 321.207031 146.570312 L 321.207031 160.382812 L 327.640625 160.382812 Z M 334.09375 114.933594 L 301.097656 114.933594 L 301.097656 130.453125 L 334.09375 130.453125 Z M 334.09375 83.898438 L 301.097656 83.898438 L 301.097656 99.414062 L 334.09375 99.414062 Z M 216.214844 137.027344 L 216.214844 114.089844 L 206.71875 114.089844 L 206.71875 98.121094 L 216.214844 98.121094 L 216.214844 69.671875 L 206.71875 69.671875 L 206.71875 53.703125 L 216.425781 53.703125 L 216.425781 69.671875 L 244.660156 69.671875 L 244.660156 98.121094 L 216.425781 98.121094 L 216.425781 114.089844 L 244.660156 114.089844 L 244.660156 142.539062 L 216.425781 142.539062 L 216.425781 137.027344 Z M 234.269531 132.519531 L 239.832031 132.519531 L 239.832031 124.109375 L 234.269531 124.109375 Z M 222.414062 132.519531 L 227.976562 132.519531 L 227.976562 124.109375 L 222.414062 124.109375 Z M 233.582031 88.253906 L 239.148438 88.253906 L 239.148438 79.84375 L 233.582031 79.84375 Z M 221.726562 88.253906 L 227.292969 88.253906 L 227.292969 79.84375 L 221.726562 79.84375 Z M 244.660156 158.671875 L 244.875 158.671875 L 244.875 158.738281 L 244.660156 158.738281 L 244.660156 186.894531 L 216.425781 186.894531 L 216.425781 158.445312 L 244.660156 158.445312 Z M 227.503906 167.328125 L 221.9375 167.328125 L 221.9375 175.738281 L 227.503906 175.738281 Z M 239.359375 167.328125 L 233.796875 167.328125 L 233.796875 175.738281 L 239.359375 175.738281 Z M 123.625 109.320312 L 129.84375 109.320312 L 129.84375 156.730469 C 120.617188 156.730469 113.136719 164.210938 113.136719 173.4375 L 113.136719 186.917969 L 105.75 186.917969 L 105.75 172.210938 C 105.75 158.921875 116.511719 148.144531 129.792969 148.121094 C 129.808594 148.121094 129.824219 148.117188 129.839844 148.117188 L 91.046875 148.117188 L 91.046875 109.320312 Z M 103.402344 119.503906 L 96.640625 119.503906 L 96.640625 126.265625 L 103.402344 126.265625 Z M 115.363281 119.503906 L 108.601562 119.503906 L 108.601562 126.265625 L 115.363281 126.265625 Z M 126.539062 119.503906 L 119.773438 119.503906 L 119.773438 126.265625 L 126.539062 126.265625 Z M 186.949219 115.703125 L 166.25 115.703125 L 186.949219 137.003906 Z M 186.949219 115.703125 " fill-opacity="1" fill-rule="nonzero"/></g><g clip-path="url(#dc8e9b2c7c)"><path fill="#ffa327" d="M 227.292969 88.253906 L 221.726562 88.253906 L 221.726562 79.84375 L 227.292969 79.84375 Z M 239.148438 79.84375 L 233.582031 79.84375 L 233.582031 88.253906 L 239.148438 88.253906 Z M 227.976562 124.109375 L 222.414062 124.109375 L 222.414062 132.519531 L 227.976562 132.519531 Z M 239.832031 124.109375 L 234.269531 124.109375 L 234.269531 132.519531 L 239.832031 132.519531 Z M 221.9375 175.738281 L 227.503906 175.738281 L 227.503906 167.328125 L 221.9375 167.328125 Z M 233.796875 175.738281 L 239.359375 175.738281 L 239.359375 167.328125 L 233.796875 167.328125 Z M 186.949219 115.703125 L 166.226562 94.378906 L 166.273438 115.703125 Z M 166.296875 137.027344 L 186.972656 137.027344 L 186.949219 137.003906 L 166.25 115.703125 Z M 66.726562 141.984375 C 66.601562 130.6875 57.410156 121.5625 46.082031 121.5625 C 46.082031 121.5625 46.082031 121.5625 46.078125 121.5625 L 46.078125 142.214844 L 66.730469 142.214844 C 66.730469 142.136719 66.726562 142.0625 66.726562 141.984375 Z M 103.402344 119.503906 L 96.640625 119.503906 L 96.640625 126.265625 L 103.402344 126.265625 Z M 108.601562 126.265625 L 115.363281 126.265625 L 115.363281 119.503906 L 108.601562 119.503906 Z M 126.539062 119.503906 L 119.773438 119.503906 L 119.773438 126.265625 L 126.539062 126.265625 Z M 244.660156 130.453125 C 244.660156 146.035156 257.292969 158.671875 272.878906 158.671875 C 272.878906 143.085938 260.246094 130.453125 244.660156 130.453125 Z M 272.878906 158.773438 C 272.878906 158.773438 272.878906 158.777344 272.878906 158.78125 C 272.882812 174.308594 285.515625 186.894531 301.097656 186.894531 C 301.097656 171.363281 288.464844 158.773438 272.878906 158.773438 Z M 23.738281 164.554688 L 23.738281 186.894531 L 46.078125 186.894531 L 46.078125 164.554688 Z M 23.738281 164.554688 " fill-opacity="1" fill-rule="nonzero"/></g><g clip-path="url(#c9de7a260d)"><path fill="#d64945" d="M 113.066406 186.988281 L 113.066406 173.4375 C 113.066406 164.1875 120.59375 156.660156 129.84375 156.660156 L 129.914062 156.660156 L 129.914062 186.988281 Z M 272.808594 186.964844 L 272.808594 161.554688 C 271.382812 175.804688 259.300781 186.964844 244.664062 186.964844 L 244.589844 186.964844 L 244.589844 186.894531 C 244.589844 172.019531 256.179688 159.796875 270.820312 158.742188 L 244.589844 158.742188 L 244.589844 130.382812 L 272.949219 130.382812 L 272.949219 155.871094 C 274.371094 141.621094 286.414062 130.453125 301.023438 130.417969 L 301.023438 114.863281 L 334.164062 114.863281 L 334.164062 130.523438 L 301.167969 130.523438 C 301.148438 145.414062 289.566406 157.644531 274.9375 158.703125 L 301.167969 158.703125 L 301.167969 186.894531 L 301.097656 186.894531 L 301.097656 186.964844 Z M 272.953125 158.84375 C 272.988281 174.253906 285.5625 186.785156 301.023438 186.824219 C 300.988281 171.414062 288.414062 158.882812 272.953125 158.84375 Z M 244.734375 130.523438 C 244.769531 145.988281 257.34375 158.5625 272.808594 158.597656 C 272.769531 143.136719 260.195312 130.5625 244.734375 130.523438 Z M 186.878906 186.964844 L 186.878906 136.957031 L 216.496094 136.957031 L 216.496094 186.964844 Z M 211.8125 154.8125 L 211.8125 146.234375 L 205.519531 146.234375 L 205.519531 154.8125 Z M 198.152344 154.8125 L 198.152344 146.234375 L 191.859375 146.234375 L 191.859375 154.8125 Z M 23.667969 164.625 L 23.667969 142.140625 L 46.152344 142.140625 L 46.152344 164.625 Z M 91.046875 117.742188 C 79.621094 117.742188 70.324219 108.445312 70.324219 97.023438 L 70.324219 96.953125 L 91.117188 96.949219 L 91.117188 117.742188 Z M 301.023438 99.488281 L 301.023438 83.828125 L 334.164062 83.828125 L 334.164062 99.488281 Z M 319.988281 62.746094 L 319.988281 49.582031 L 322.554688 49.582031 L 322.554688 62.746094 Z M 319.988281 44.214844 L 319.988281 27.644531 L 322.554688 27.644531 L 322.554688 44.214844 Z M 210.921875 2.886719 L 211.0625 2.882812 L 214.417969 44.058594 L 207.835938 44.105469 Z M 210.921875 2.886719 " fill-opacity="1" fill-rule="nonzero"/></g><g clip-path="url(#4c0a25b2da)"><path fill="#24180b" d="M 334.023438 186.964844 L 334.023438 70.796875 L 355.320312 70.796875 L 355.320312 186.964844 Z M 166.203125 186.964844 L 166.203125 136.957031 L 187.019531 136.957031 L 187.019531 186.964844 Z M 23.738281 186.957031 C 23.605469 186.957031 23.476562 186.953125 23.34375 186.949219 L 23.148438 186.941406 C 10.269531 186.625 0.179688 176.28125 0.179688 163.394531 L 0.179688 163.179688 L 19.941406 163.179688 C 8.605469 161.34375 0.179688 151.523438 0.179688 139.925781 L 0.179688 139.710938 L 21.191406 139.710938 C 9.261719 138.453125 0.179688 128.515625 0.179688 116.289062 L 0.179688 116.078125 L 0.25 116.070312 L 23.804688 116.070312 L 23.808594 116.136719 C 23.808594 116.1875 23.808594 116.238281 23.808594 116.289062 L 23.808594 186.957031 Z M 148.667969 168.390625 L 148.667969 158.519531 L 155.246094 158.519531 L 155.246094 168.390625 Z M 134.957031 168.390625 L 134.957031 158.519531 L 141.535156 158.519531 L 141.535156 168.390625 Z M 78.960938 165.160156 L 78.960938 151.207031 L 85.535156 151.207031 L 85.535156 165.160156 Z M 65.246094 165.160156 L 65.246094 151.207031 L 71.824219 151.207031 L 71.824219 165.160156 Z M 51.585938 165.160156 L 51.585938 151.207031 L 58.164062 151.207031 L 58.164062 165.160156 Z M 321.136719 160.453125 L 321.136719 146.5 L 327.714844 146.5 L 327.714844 160.453125 Z M 307.476562 160.453125 L 307.476562 146.5 L 314.050781 146.5 L 314.050781 160.453125 Z M 205.378906 154.953125 L 205.378906 146.09375 L 211.953125 146.09375 L 211.953125 154.953125 Z M 191.71875 154.953125 L 191.71875 146.09375 L 198.292969 146.09375 L 198.292969 154.953125 Z M 148.667969 150.199219 L 148.667969 140.328125 L 155.246094 140.328125 L 155.246094 150.199219 Z M 134.957031 150.199219 L 134.957031 140.328125 L 141.535156 140.328125 L 141.535156 150.199219 Z M 148.667969 131.085938 L 148.667969 121.214844 L 155.246094 121.214844 L 155.246094 131.085938 Z M 134.957031 131.085938 L 134.957031 121.214844 L 141.535156 121.214844 L 141.535156 131.085938 Z M 111.914062 109.390625 L 111.914062 88.59375 L 123.75 109.390625 Z M 111.914062 109.390625 " fill-opacity="1" fill-rule="nonzero"/></g></svg>