<svg xmlns="http://www.w3.org/2000/svg" xmlns:xlink="http://www.w3.org/1999/xlink" width="500" zoomAndPan="magnify" viewBox="0 0 375 374.999991" height="500" preserveAspectRatio="xMidYMid meet" version="1.0"><defs><clipPath id="1a233d138b"><path d="M 0 2.25 L 375 2.25 L 375 375 L 0 375 Z M 0 2.25 " clip-rule="nonzero"/></clipPath></defs><g clip-path="url(#1a233d138b)"><path fill="#2d308b" d="M 187.5 2.363281 C 184.429688 2.367188 181.363281 2.445312 178.296875 2.597656 C 175.230469 2.753906 172.167969 2.980469 169.113281 3.285156 C 166.058594 3.589844 163.015625 3.96875 159.976562 4.421875 C 156.941406 4.875 153.917969 5.402344 150.90625 6.003906 C 147.898438 6.605469 144.902344 7.28125 141.925781 8.027344 C 138.949219 8.777344 135.992188 9.597656 133.054688 10.492188 C 130.117188 11.382812 127.203125 12.347656 124.316406 13.386719 C 121.425781 14.421875 118.5625 15.527344 115.726562 16.703125 C 112.890625 17.878906 110.085938 19.125 107.3125 20.4375 C 104.535156 21.753906 101.796875 23.132812 99.089844 24.582031 C 96.382812 26.03125 93.710938 27.542969 91.082031 29.125 C 88.449219 30.703125 85.855469 32.347656 83.304688 34.050781 C 80.75 35.757812 78.242188 37.527344 75.777344 39.355469 C 73.3125 41.183594 70.894531 43.074219 68.519531 45.019531 C 66.148438 46.96875 63.824219 48.972656 61.550781 51.035156 C 59.273438 53.097656 57.050781 55.214844 54.882812 57.382812 C 52.710938 59.554688 50.59375 61.777344 48.53125 64.050781 C 46.46875 66.328125 44.464844 68.652344 42.519531 71.023438 C 40.570312 73.394531 38.679688 75.816406 36.851562 78.28125 C 35.023438 80.746094 33.253906 83.253906 31.546875 85.808594 C 29.84375 88.359375 28.199219 90.949219 26.621094 93.582031 C 25.042969 96.214844 23.527344 98.886719 22.078125 101.59375 C 20.632812 104.300781 19.25 107.039062 17.9375 109.816406 C 16.621094 112.589844 15.375 115.394531 14.199219 118.230469 C 13.023438 121.066406 11.917969 123.929688 10.882812 126.816406 C 9.84375 129.707031 8.878906 132.621094 7.988281 135.558594 C 7.09375 138.496094 6.273438 141.453125 5.523438 144.429688 C 4.777344 147.40625 4.101562 150.402344 3.5 153.410156 C 2.898438 156.421875 2.371094 159.445312 1.917969 162.480469 C 1.464844 165.519531 1.085938 168.5625 0.78125 171.617188 C 0.480469 174.671875 0.25 177.734375 0.0976562 180.800781 C -0.0585938 183.867188 -0.136719 186.933594 -0.140625 190.003906 C 10.167969 438.933594 364.867188 438.859375 375.140625 190.003906 C 375.136719 186.933594 375.058594 183.863281 374.902344 180.796875 C 374.75 177.730469 374.519531 174.671875 374.21875 171.617188 C 373.914062 168.5625 373.535156 165.515625 373.082031 162.480469 C 372.628906 159.445312 372.101562 156.421875 371.5 153.410156 C 370.898438 150.398438 370.222656 147.40625 369.476562 144.429688 C 368.726562 141.453125 367.90625 138.496094 367.011719 135.558594 C 366.117188 132.621094 365.15625 129.707031 364.117188 126.816406 C 363.082031 123.925781 361.976562 121.0625 360.800781 118.230469 C 359.625 115.394531 358.378906 112.589844 357.0625 109.8125 C 355.75 107.039062 354.367188 104.296875 352.921875 101.59375 C 351.472656 98.886719 349.957031 96.214844 348.378906 93.582031 C 346.800781 90.949219 345.15625 88.359375 343.449219 85.804688 C 341.746094 83.253906 339.976562 80.746094 338.148438 78.28125 C 336.320312 75.816406 334.429688 73.394531 332.480469 71.023438 C 330.535156 68.648438 328.527344 66.328125 326.46875 64.050781 C 324.40625 61.777344 322.289062 59.554688 320.117188 57.382812 C 317.949219 55.214844 315.726562 53.097656 313.449219 51.035156 C 311.175781 48.972656 308.851562 46.96875 306.480469 45.019531 C 304.105469 43.074219 301.6875 41.183594 299.222656 39.355469 C 296.757812 37.527344 294.25 35.757812 291.695312 34.050781 C 289.144531 32.34375 286.550781 30.703125 283.917969 29.125 C 281.285156 27.542969 278.617188 26.03125 275.910156 24.582031 C 273.203125 23.132812 270.460938 21.753906 267.6875 20.4375 C 264.914062 19.125 262.109375 17.878906 259.273438 16.703125 C 256.4375 15.527344 253.574219 14.421875 250.683594 13.386719 C 247.796875 12.347656 244.882812 11.382812 241.945312 10.492188 C 239.007812 9.597656 236.050781 8.777344 233.074219 8.027344 C 230.097656 7.28125 227.101562 6.605469 224.089844 6.003906 C 221.082031 5.402344 218.058594 4.875 215.023438 4.421875 C 211.984375 3.96875 208.941406 3.589844 205.886719 3.285156 C 202.832031 2.980469 199.769531 2.753906 196.703125 2.597656 C 193.636719 2.445312 190.570312 2.367188 187.5 2.363281 Z M 81.121094 107.214844 L 293.878906 107.214844 C 294.335938 107.214844 294.777344 107.28125 295.210938 107.421875 C 295.640625 107.558594 296.042969 107.761719 296.414062 108.023438 C 296.78125 108.285156 297.101562 108.597656 297.375 108.960938 C 297.648438 109.324219 297.859375 109.722656 298.007812 110.152344 C 298.15625 110.578125 298.234375 111.019531 298.246094 111.472656 C 298.257812 111.925781 298.199219 112.371094 298.070312 112.808594 C 297.945312 113.242188 297.753906 113.648438 297.5 114.023438 C 297.246094 114.402344 296.9375 114.730469 296.582031 115.011719 L 191.167969 198.046875 C 190.640625 198.449219 190.0625 198.757812 189.433594 198.96875 C 188.808594 199.179688 188.164062 199.289062 187.5 199.289062 C 186.835938 199.289062 186.191406 199.179688 185.5625 198.96875 C 184.9375 198.757812 184.359375 198.449219 183.832031 198.046875 L 78.417969 115.011719 C 78.0625 114.730469 77.753906 114.402344 77.5 114.023438 C 77.246094 113.648438 77.054688 113.242188 76.929688 112.808594 C 76.800781 112.371094 76.742188 111.929688 76.753906 111.472656 C 76.765625 111.019531 76.84375 110.578125 76.992188 110.152344 C 77.140625 109.722656 77.351562 109.324219 77.625 108.960938 C 77.898438 108.597656 78.21875 108.285156 78.585938 108.023438 C 78.957031 107.761719 79.359375 107.558594 79.789062 107.421875 C 80.222656 107.28125 80.664062 107.214844 81.121094 107.214844 Z M 317.597656 262.316406 C 317.597656 263.003906 317.53125 263.6875 317.394531 264.363281 C 317.261719 265.035156 317.0625 265.691406 316.800781 266.328125 C 316.539062 266.960938 316.214844 267.566406 315.832031 268.136719 C 315.449219 268.710938 315.015625 269.238281 314.53125 269.726562 C 314.042969 270.210938 313.515625 270.644531 312.941406 271.027344 C 312.371094 271.410156 311.765625 271.730469 311.132812 271.996094 C 310.496094 272.257812 309.839844 272.457031 309.167969 272.589844 C 308.492188 272.726562 307.8125 272.792969 307.121094 272.792969 L 67.878906 272.792969 C 67.1875 272.792969 66.507812 272.726562 65.832031 272.589844 C 65.160156 272.457031 64.503906 272.257812 63.867188 271.996094 C 63.234375 271.730469 62.628906 271.410156 62.058594 271.027344 C 61.484375 270.644531 60.957031 270.210938 60.46875 269.726562 C 59.984375 269.238281 59.550781 268.710938 59.167969 268.136719 C 58.785156 267.566406 58.460938 266.960938 58.199219 266.328125 C 57.9375 265.691406 57.738281 265.035156 57.601562 264.363281 C 57.46875 263.6875 57.402344 263.003906 57.402344 262.316406 L 57.402344 122.476562 C 57.402344 121.640625 57.625 120.867188 58.066406 120.160156 C 58.511719 119.453125 59.109375 118.914062 59.863281 118.550781 C 60.613281 118.183594 61.40625 118.046875 62.238281 118.136719 C 63.070312 118.226562 63.8125 118.53125 64.46875 119.046875 L 176.5 207.269531 C 177.273438 207.898438 178.09375 208.453125 178.960938 208.941406 C 179.824219 209.425781 180.726562 209.835938 181.664062 210.167969 C 182.601562 210.5 183.558594 210.753906 184.539062 210.921875 C 185.519531 211.089844 186.507812 211.175781 187.5 211.175781 C 188.496094 211.175781 189.480469 211.089844 190.460938 210.921875 C 191.441406 210.753906 192.398438 210.5 193.335938 210.167969 C 194.273438 209.835938 195.175781 209.425781 196.042969 208.941406 C 196.910156 208.453125 197.726562 207.898438 198.5 207.269531 L 310.53125 119.046875 C 311.1875 118.53125 311.929688 118.226562 312.761719 118.136719 C 313.59375 118.046875 314.386719 118.183594 315.136719 118.550781 C 315.890625 118.914062 316.488281 119.453125 316.933594 120.160156 C 317.375 120.867188 317.597656 121.640625 317.597656 122.476562 Z M 317.597656 262.316406 " fill-opacity="1" fill-rule="nonzero"/></g></svg>