<svg xmlns="http://www.w3.org/2000/svg" xmlns:xlink="http://www.w3.org/1999/xlink" width="500" zoomAndPan="magnify" viewBox="0 0 375 374.999991" height="500" preserveAspectRatio="xMidYMid meet" version="1.0"><path fill="#d64945" d="M 187.5 374.777344 C 84.050781 374.777344 0.222656 290.949219 0.222656 187.5 C 0.222656 84.050781 84.050781 0.222656 187.5 0.222656 C 290.949219 0.222656 374.777344 84.097656 374.777344 187.5 C 374.777344 290.949219 290.949219 374.777344 187.5 374.777344 Z M 187.5 374.777344 " fill-opacity="1" fill-rule="nonzero"/><path fill="#d64945" d="M 187.5 375 C 162.175781 375 137.617188 370.0625 114.492188 360.273438 C 92.179688 350.84375 72.109375 337.328125 54.910156 320.089844 C 37.671875 302.847656 24.15625 282.820312 14.726562 260.507812 C 4.9375 237.382812 0 212.824219 0 187.5 C 0 162.175781 4.9375 137.617188 14.726562 114.492188 C 24.15625 92.179688 37.671875 72.109375 54.910156 54.910156 C 72.152344 37.671875 92.179688 24.15625 114.492188 14.726562 C 137.617188 4.9375 162.175781 0 187.5 0 C 212.824219 0 237.382812 4.9375 260.507812 14.726562 C 282.820312 24.15625 302.890625 37.671875 320.089844 54.910156 C 337.328125 72.152344 350.84375 92.179688 360.273438 114.492188 C 370.0625 137.617188 375 162.175781 375 187.5 C 375 212.824219 370.0625 237.382812 360.273438 260.507812 C 350.84375 282.820312 337.328125 302.890625 320.089844 320.089844 C 302.847656 337.328125 282.820312 350.84375 260.507812 360.273438 C 237.382812 370.0625 212.824219 375 187.5 375 Z M 187.5 0.449219 C 84.367188 0.449219 0.449219 84.367188 0.449219 187.5 C 0.449219 290.632812 84.367188 374.550781 187.5 374.550781 C 290.632812 374.550781 374.550781 290.632812 374.550781 187.5 C 374.550781 84.367188 290.632812 0.449219 187.5 0.449219 Z M 187.5 0.449219 " fill-opacity="1" fill-rule="nonzero"/><path fill="#ffffff" d="M 301.230469 242.320312 C 301.230469 240.4375 301.003906 238.460938 300.511719 236.621094 C 298.132812 228.222656 291.53125 223.507812 282.417969 222.96875 C 274.605469 222.523438 266.746094 221.894531 259.023438 220.679688 C 253.007812 219.738281 247.125 217.71875 241.15625 216.324219 C 235.183594 214.976562 229.796875 216.144531 224.855469 219.960938 C 216.59375 226.382812 208.242188 232.625 199.847656 238.863281 C 199.308594 239.269531 198.1875 239.269531 197.558594 239 C 195.3125 237.878906 193.15625 236.53125 191.003906 235.316406 C 166.847656 221.535156 148.796875 201.914062 135.957031 177.351562 C 135.640625 176.8125 135.6875 175.691406 136.046875 175.242188 C 142.285156 166.890625 148.527344 158.496094 154.949219 150.277344 C 158.855469 145.25 160.335938 139.816406 158.765625 133.664062 C 157.730469 129.667969 156.519531 125.671875 155.53125 121.675781 C 153.105469 111.753906 152.300781 101.695312 151.984375 91.503906 C 151.804688 85.578125 149.335938 80.640625 144.441406 77.363281 C 142.644531 76.148438 140.535156 75.429688 138.425781 74.667969 C 138.425781 74.667969 138.425781 74.667969 138.378906 74.667969 C 138.199219 74.621094 138.019531 74.53125 137.886719 74.488281 C 137.078125 74.21875 135.640625 73.769531 134.652344 73.769531 C 120.332031 73.769531 106.050781 73.769531 91.730469 73.769531 C 91.011719 73.769531 89.484375 73.859375 88.09375 74.171875 C 83.871094 75.339844 80.054688 77.226562 77.585938 81.042969 C 76.417969 82.882812 75.609375 84.949219 74.800781 87.015625 C 74.800781 87.015625 73.679688 90.425781 73.679688 92.582031 C 73.679688 94.691406 73.949219 103.222656 74.398438 108.296875 C 74.710938 111.621094 75.027344 114.941406 75.429688 118.265625 C 77.765625 138.109375 83.0625 157.148438 91.101562 175.421875 C 107.488281 212.6875 132.589844 242.859375 166.308594 265.625 C 201.195312 289.152344 239.851562 300.871094 281.878906 301.320312 C 293.238281 301.453125 301.230469 293.550781 301.230469 282.148438 C 301.320312 268.859375 301.320312 255.613281 301.230469 242.320312 Z M 301.230469 242.320312 " fill-opacity="1" fill-rule="nonzero"/></svg>