<svg xmlns="http://www.w3.org/2000/svg" xmlns:xlink="http://www.w3.org/1999/xlink" width="500" zoomAndPan="magnify" viewBox="0 0 375 374.999991" height="500" preserveAspectRatio="xMidYMid meet" version="1.0"><path fill="#ffa327" d="M 188.433594 0.695312 C 85.402344 0.695312 1.867188 77.25 1.867188 171.714844 C 1.867188 208.777344 14.859375 242.984375 36.746094 271.011719 L 3.050781 352.332031 C -0.230469 360.273438 3.535156 369.351562 11.464844 372.644531 C 15.441406 374.285156 19.691406 374.179688 23.367188 372.644531 L 122.574219 331.558594 C 143.0625 338.667969 165.207031 342.738281 188.433594 342.738281 C 291.496094 342.738281 375 266.136719 375 171.714844 C 375 77.25 291.496094 0.695312 188.433594 0.695312 Z M 110.695312 195.039062 C 97.804688 195.039062 87.375 184.59375 87.375 171.714844 C 87.375 158.8125 97.804688 148.394531 110.695312 148.394531 C 123.574219 148.394531 134.015625 158.8125 134.015625 171.714844 C 134.015625 184.59375 123.574219 195.039062 110.695312 195.039062 Z M 188.433594 195.039062 C 175.542969 195.039062 165.113281 184.59375 165.113281 171.714844 C 165.113281 158.8125 175.542969 148.394531 188.433594 148.394531 C 201.3125 148.394531 211.753906 158.8125 211.753906 171.714844 C 211.753906 184.59375 201.3125 195.039062 188.433594 195.039062 Z M 266.171875 195.039062 C 253.277344 195.039062 242.851562 184.59375 242.851562 171.714844 C 242.851562 158.8125 253.277344 148.394531 266.171875 148.394531 C 279.042969 148.394531 289.492188 158.8125 289.492188 171.714844 C 289.492188 184.59375 279.042969 195.039062 266.171875 195.039062 Z M 266.171875 195.039062 " fill-opacity="1" fill-rule="nonzero"/></svg>