<svg xmlns="http://www.w3.org/2000/svg" xmlns:xlink="http://www.w3.org/1999/xlink" width="500" zoomAndPan="magnify" viewBox="0 0 375 374.999991" height="500" preserveAspectRatio="xMidYMid meet" version="1.0"><path fill="#2fb7a1" d="M 305.703125 187.476562 C 305.703125 189.410156 305.65625 191.34375 305.5625 193.273438 C 305.46875 195.207031 305.324219 197.132812 305.136719 199.058594 C 304.945312 200.984375 304.710938 202.902344 304.425781 204.816406 C 304.140625 206.726562 303.8125 208.632812 303.433594 210.53125 C 303.058594 212.425781 302.632812 214.3125 302.164062 216.191406 C 301.691406 218.066406 301.175781 219.929688 300.617188 221.78125 C 300.054688 223.632812 299.449219 225.46875 298.796875 227.289062 C 298.144531 229.109375 297.449219 230.914062 296.707031 232.699219 C 295.96875 234.488281 295.183594 236.253906 294.359375 238.003906 C 293.53125 239.75 292.660156 241.480469 291.75 243.183594 C 290.839844 244.890625 289.886719 246.574219 288.890625 248.230469 C 287.898438 249.890625 286.863281 251.523438 285.789062 253.132812 C 284.714844 254.738281 283.601562 256.320312 282.449219 257.875 C 281.296875 259.429688 280.105469 260.953125 278.878906 262.445312 C 277.652344 263.941406 276.390625 265.40625 275.089844 266.839844 C 273.792969 268.273438 272.457031 269.671875 271.089844 271.039062 C 269.722656 272.40625 268.324219 273.742188 266.890625 275.039062 C 265.457031 276.339844 263.992188 277.601562 262.496094 278.828125 C 261.003906 280.054688 259.476562 281.246094 257.925781 282.398438 C 256.371094 283.550781 254.789062 284.664062 253.183594 285.738281 C 251.574219 286.8125 249.941406 287.847656 248.28125 288.839844 C 246.621094 289.835938 244.941406 290.789062 243.234375 291.699219 C 241.527344 292.613281 239.800781 293.480469 238.054688 294.308594 C 236.304688 295.136719 234.539062 295.917969 232.75 296.660156 C 230.964844 297.398438 229.160156 298.09375 227.339844 298.746094 C 225.519531 299.398438 223.683594 300.003906 221.832031 300.566406 C 219.980469 301.128906 218.117188 301.644531 216.242188 302.113281 C 214.363281 302.582031 212.476562 303.007812 210.582031 303.382812 C 208.683594 303.761719 206.777344 304.089844 204.867188 304.375 C 202.953125 304.660156 201.035156 304.894531 199.109375 305.085938 C 197.183594 305.273438 195.253906 305.417969 193.324219 305.511719 C 191.390625 305.605469 189.460938 305.65625 187.523438 305.65625 C 185.589844 305.65625 183.65625 305.605469 181.726562 305.511719 C 179.792969 305.417969 177.867188 305.273438 175.941406 305.085938 C 174.015625 304.894531 172.097656 304.660156 170.183594 304.375 C 168.269531 304.089844 166.367188 303.761719 164.46875 303.382812 C 162.574219 303.007812 160.6875 302.582031 158.808594 302.113281 C 156.933594 301.644531 155.070312 301.128906 153.21875 300.566406 C 151.367188 300.003906 149.53125 299.398438 147.710938 298.746094 C 145.890625 298.09375 144.085938 297.398438 142.300781 296.660156 C 140.511719 295.917969 138.746094 295.136719 136.996094 294.308594 C 135.25 293.480469 133.519531 292.613281 131.816406 291.699219 C 130.109375 290.789062 128.425781 289.835938 126.769531 288.839844 C 125.109375 287.847656 123.476562 286.8125 121.867188 285.738281 C 120.261719 284.664062 118.679688 283.550781 117.125 282.398438 C 115.570312 281.246094 114.046875 280.054688 112.554688 278.828125 C 111.058594 277.601562 109.59375 276.339844 108.160156 275.039062 C 106.726562 273.742188 105.328125 272.40625 103.960938 271.039062 C 102.59375 269.671875 101.257812 268.273438 99.960938 266.839844 C 98.660156 265.40625 97.398438 263.941406 96.171875 262.445312 C 94.945312 260.953125 93.753906 259.429688 92.601562 257.875 C 91.449219 256.320312 90.335938 254.738281 89.261719 253.132812 C 88.1875 251.523438 87.152344 249.890625 86.160156 248.230469 C 85.164062 246.574219 84.210938 244.890625 83.300781 243.183594 C 82.386719 241.480469 81.519531 239.75 80.691406 238.003906 C 79.863281 236.253906 79.082031 234.488281 78.339844 232.699219 C 77.601562 230.914062 76.90625 229.109375 76.253906 227.289062 C 75.601562 225.46875 74.996094 223.632812 74.433594 221.78125 C 73.871094 219.929688 73.355469 218.066406 72.886719 216.191406 C 72.417969 214.3125 71.992188 212.425781 71.617188 210.53125 C 71.238281 208.632812 70.910156 206.726562 70.625 204.816406 C 70.339844 202.902344 70.105469 200.984375 69.914062 199.058594 C 69.726562 197.132812 69.582031 195.207031 69.488281 193.273438 C 69.394531 191.34375 69.34375 189.410156 69.34375 187.476562 C 69.34375 185.539062 69.394531 183.609375 69.488281 181.675781 C 69.582031 179.746094 69.726562 177.816406 69.914062 175.890625 C 70.105469 173.964844 70.339844 172.046875 70.625 170.132812 C 70.910156 168.222656 71.238281 166.316406 71.617188 164.417969 C 71.992188 162.523438 72.417969 160.636719 72.886719 158.757812 C 73.355469 156.882812 73.871094 155.019531 74.433594 153.167969 C 74.996094 151.316406 75.601562 149.480469 76.253906 147.660156 C 76.90625 145.839844 77.601562 144.035156 78.339844 142.25 C 79.082031 140.460938 79.863281 138.695312 80.691406 136.945312 C 81.519531 135.199219 82.386719 133.472656 83.300781 131.765625 C 84.210938 130.058594 85.164062 128.378906 86.160156 126.71875 C 87.152344 125.058594 88.1875 123.425781 89.261719 121.816406 C 90.335938 120.210938 91.449219 118.628906 92.601562 117.074219 C 93.753906 115.523438 94.945312 113.996094 96.171875 112.503906 C 97.398438 111.007812 98.660156 109.542969 99.960938 108.109375 C 101.257812 106.675781 102.59375 105.277344 103.960938 103.910156 C 105.328125 102.542969 106.726562 101.207031 108.160156 99.910156 C 109.59375 98.609375 111.058594 97.347656 112.554688 96.121094 C 114.046875 94.894531 115.570312 93.703125 117.125 92.550781 C 118.679688 91.398438 120.261719 90.285156 121.867188 89.210938 C 123.476562 88.136719 125.109375 87.101562 126.769531 86.109375 C 128.425781 85.113281 130.109375 84.160156 131.816406 83.25 C 133.519531 82.335938 135.25 81.46875 136.996094 80.640625 C 138.746094 79.816406 140.511719 79.03125 142.300781 78.289062 C 144.085938 77.550781 145.890625 76.855469 147.710938 76.203125 C 149.53125 75.550781 151.367188 74.945312 153.21875 74.382812 C 155.070312 73.824219 156.933594 73.308594 158.808594 72.835938 C 160.6875 72.367188 162.574219 71.941406 164.46875 71.566406 C 166.367188 71.1875 168.269531 70.859375 170.183594 70.574219 C 172.097656 70.289062 174.015625 70.054688 175.941406 69.863281 C 177.867188 69.675781 179.792969 69.53125 181.726562 69.4375 C 183.65625 69.34375 185.589844 69.296875 187.523438 69.296875 C 189.460938 69.296875 191.390625 69.34375 193.324219 69.4375 C 195.253906 69.53125 197.183594 69.675781 199.109375 69.863281 C 201.035156 70.054688 202.953125 70.289062 204.867188 70.574219 C 206.777344 70.859375 208.683594 71.1875 210.582031 71.566406 C 212.476562 71.941406 214.363281 72.367188 216.242188 72.835938 C 218.117188 73.308594 219.980469 73.824219 221.832031 74.382812 C 223.683594 74.945312 225.519531 75.550781 227.339844 76.203125 C 229.160156 76.855469 230.964844 77.550781 232.75 78.289062 C 234.539062 79.03125 236.304688 79.816406 238.054688 80.640625 C 239.800781 81.46875 241.527344 82.335938 243.234375 83.25 C 244.941406 84.160156 246.621094 85.113281 248.28125 86.109375 C 249.941406 87.101562 251.574219 88.136719 253.183594 89.210938 C 254.789062 90.285156 256.371094 91.398438 257.925781 92.550781 C 259.476562 93.703125 261.003906 94.894531 262.496094 96.121094 C 263.992188 97.347656 265.457031 98.609375 266.890625 99.910156 C 268.324219 101.207031 269.722656 102.542969 271.089844 103.910156 C 272.457031 105.277344 273.792969 106.675781 275.089844 108.109375 C 276.390625 109.542969 277.652344 111.007812 278.878906 112.503906 C 280.105469 113.996094 281.296875 115.523438 282.449219 117.074219 C 283.601562 118.628906 284.714844 120.210938 285.789062 121.816406 C 286.863281 123.425781 287.898438 125.058594 288.890625 126.71875 C 289.886719 128.378906 290.839844 130.058594 291.75 131.765625 C 292.660156 133.472656 293.53125 135.199219 294.359375 136.945312 C 295.183594 138.695312 295.96875 140.460938 296.707031 142.25 C 297.449219 144.035156 298.144531 145.839844 298.796875 147.660156 C 299.449219 149.480469 300.054688 151.316406 300.617188 153.167969 C 301.175781 155.019531 301.691406 156.882812 302.164062 158.757812 C 302.632812 160.636719 303.058594 162.523438 303.433594 164.417969 C 303.8125 166.316406 304.140625 168.222656 304.425781 170.132812 C 304.710938 172.046875 304.945312 173.964844 305.136719 175.890625 C 305.324219 177.816406 305.46875 179.746094 305.5625 181.675781 C 305.65625 183.609375 305.703125 185.539062 305.703125 187.476562 Z M 305.703125 187.476562 " fill-opacity="1" fill-rule="nonzero"/><path fill="#ffffff" d="M 252.578125 247.449219 L 245.917969 257.070312 C 245.429688 257.78125 244.886719 258.449219 244.300781 259.078125 C 243.710938 259.710938 243.078125 260.292969 242.40625 260.832031 C 241.730469 261.367188 241.023438 261.855469 240.277344 262.289062 C 239.53125 262.722656 238.757812 263.101562 237.957031 263.421875 C 237.15625 263.742188 236.339844 264.003906 235.5 264.207031 C 234.660156 264.410156 233.8125 264.546875 232.953125 264.625 C 232.09375 264.703125 231.234375 264.71875 230.375 264.671875 C 229.511719 264.621094 228.660156 264.511719 227.816406 264.339844 C 142.210938 246.878906 123.59375 167.394531 119.554688 134.539062 C 119.429688 133.546875 119.390625 132.554688 119.433594 131.558594 C 119.480469 130.5625 119.609375 129.578125 119.820312 128.601562 C 120.03125 127.625 120.324219 126.675781 120.695312 125.75 C 121.066406 124.824219 121.511719 123.9375 122.035156 123.085938 C 122.558594 122.238281 123.148438 121.4375 123.804688 120.6875 C 124.460938 119.933594 125.175781 119.246094 125.949219 118.617188 C 126.722656 117.984375 127.546875 117.425781 128.414062 116.933594 C 129.28125 116.441406 130.1875 116.027344 131.125 115.691406 L 142.726562 111.511719 C 143.355469 111.289062 143.992188 111.097656 144.644531 110.941406 C 145.207031 110.808594 145.777344 110.703125 146.351562 110.625 C 146.925781 110.546875 147.503906 110.5 148.082031 110.476562 C 148.660156 110.457031 149.242188 110.464844 149.820312 110.5 C 150.398438 110.535156 150.972656 110.601562 151.546875 110.691406 C 152.117188 110.785156 152.683594 110.90625 153.246094 111.054688 C 153.804688 111.199219 154.359375 111.375 154.902344 111.578125 C 155.445312 111.78125 155.976562 112.007812 156.496094 112.265625 C 157.019531 112.519531 157.527344 112.796875 158.019531 113.101562 C 158.511719 113.40625 158.988281 113.734375 159.449219 114.085938 C 159.914062 114.4375 160.355469 114.8125 160.78125 115.207031 C 161.203125 115.601562 161.609375 116.015625 161.992188 116.449219 C 162.375 116.882812 162.738281 117.335938 163.078125 117.808594 C 163.417969 118.277344 163.730469 118.761719 164.023438 119.265625 C 164.316406 119.765625 164.582031 120.277344 164.824219 120.804688 C 165.0625 121.332031 165.277344 121.871094 165.464844 122.421875 C 165.65625 122.96875 165.816406 123.523438 165.949219 124.089844 L 170.980469 145.332031 C 171.292969 146.640625 171.449219 147.972656 171.457031 149.320312 C 171.460938 150.667969 171.316406 152 171.019531 153.3125 C 170.722656 154.628906 170.28125 155.890625 169.695312 157.105469 C 169.109375 158.320312 168.390625 159.449219 167.546875 160.5 L 163.78125 165.183594 C 163.226562 165.875 162.726562 166.601562 162.285156 167.367188 C 161.839844 168.132812 161.453125 168.925781 161.128906 169.75 C 160.800781 170.574219 160.539062 171.414062 160.339844 172.277344 C 160.136719 173.140625 160.003906 174.011719 159.933594 174.894531 C 159.863281 175.777344 159.863281 176.660156 159.925781 177.542969 C 159.988281 178.425781 160.113281 179.300781 160.308594 180.164062 C 160.5 181.027344 160.757812 181.871094 161.078125 182.699219 C 161.398438 183.523438 161.777344 184.320312 162.214844 185.089844 C 170.039062 198.878906 182.089844 208.824219 190.996094 214.824219 C 191.78125 215.351562 192.605469 215.8125 193.464844 216.207031 C 194.324219 216.601562 195.210938 216.925781 196.121094 217.179688 C 197.035156 217.433594 197.960938 217.609375 198.902344 217.714844 C 199.84375 217.820312 200.785156 217.847656 201.730469 217.800781 C 202.675781 217.75 203.613281 217.628906 204.539062 217.429688 C 205.464844 217.230469 206.367188 216.960938 207.25 216.617188 C 208.132812 216.273438 208.980469 215.863281 209.796875 215.382812 C 210.613281 214.902344 211.386719 214.359375 212.113281 213.757812 C 212.847656 213.152344 213.628906 212.605469 214.449219 212.125 C 215.269531 211.644531 216.125 211.234375 217.015625 210.890625 C 217.902344 210.546875 218.8125 210.277344 219.746094 210.082031 C 220.675781 209.886719 221.617188 209.765625 222.570312 209.722656 C 223.519531 209.679688 224.46875 209.710938 225.414062 209.820312 C 226.359375 209.929688 227.292969 210.113281 228.207031 210.371094 C 229.125 210.632812 230.011719 210.960938 230.875 211.363281 C 231.738281 211.769531 232.5625 212.238281 233.351562 212.773438 L 247.988281 222.738281 L 248.101562 222.816406 C 248.578125 223.144531 249.035156 223.496094 249.476562 223.871094 C 249.921875 224.25 250.34375 224.644531 250.746094 225.0625 C 251.148438 225.476562 251.53125 225.914062 251.890625 226.367188 C 252.25 226.820312 252.589844 227.292969 252.902344 227.78125 C 253.21875 228.265625 253.507812 228.769531 253.769531 229.285156 C 254.035156 229.800781 254.273438 230.328125 254.488281 230.867188 C 254.699219 231.40625 254.886719 231.957031 255.046875 232.511719 C 255.207031 233.070312 255.335938 233.632812 255.441406 234.203125 C 255.542969 234.777344 255.621094 235.351562 255.667969 235.925781 C 255.714844 236.503906 255.734375 237.085938 255.722656 237.664062 C 255.714844 238.242188 255.675781 238.820312 255.609375 239.398438 C 255.542969 239.972656 255.449219 240.546875 255.324219 241.113281 C 255.203125 241.679688 255.054688 242.238281 254.875 242.789062 C 254.699219 243.34375 254.492188 243.882812 254.261719 244.414062 C 254.03125 244.949219 253.777344 245.46875 253.496094 245.972656 C 253.210938 246.480469 252.90625 246.972656 252.578125 247.449219 Z M 252.578125 247.449219 " fill-opacity="1" fill-rule="nonzero"/><path fill="#2fb7a1" d="M 187.523438 0 C 83.984375 0 0.0507812 83.933594 0.0507812 187.476562 C 0.0390625 195.640625 0.558594 203.777344 1.613281 211.875 C 2.667969 219.972656 4.25 227.96875 6.355469 235.859375 C 8.460938 243.75 11.070312 251.472656 14.191406 259.019531 C 17.308594 266.570312 20.90625 273.882812 24.988281 280.957031 C 26.585938 283.742188 27.648438 286.71875 28.171875 289.886719 C 28.695312 293.058594 28.648438 296.21875 28.03125 299.367188 L 19.90625 341.164062 C 17.316406 354.492188 30.222656 365.5625 43 360.980469 L 74.539062 349.664062 C 76.332031 349.019531 78.175781 348.570312 80.0625 348.320312 C 81.953125 348.066406 83.847656 348.019531 85.746094 348.171875 C 87.644531 348.328125 89.507812 348.679688 91.332031 349.230469 C 93.15625 349.78125 94.902344 350.519531 96.566406 351.445312 C 103.496094 355.296875 110.636719 358.691406 117.996094 361.628906 C 125.355469 364.570312 132.871094 367.03125 140.542969 369.015625 C 148.214844 370.996094 155.984375 372.484375 163.84375 373.476562 C 171.707031 374.472656 179.601562 374.960938 187.523438 374.949219 C 291.066406 374.949219 375 291.015625 375 187.476562 C 375 84.09375 290.90625 0 187.523438 0 Z M 187.523438 338.527344 C 104.101562 338.527344 36.472656 270.898438 36.472656 187.476562 C 36.472656 104.019531 104.070312 36.421875 187.527344 36.421875 C 270.953125 36.421875 338.578125 104.050781 338.578125 187.472656 C 338.578125 270.929688 270.980469 338.527344 187.523438 338.527344 Z M 187.523438 338.527344 " fill-opacity="1" fill-rule="nonzero"/></svg>