<?xml version="1.0" encoding="UTF-8" standalone="no"?>
<!DOCTYPE svg PUBLIC "-//W3C//DTD SVG 1.1//EN" "http://www.w3.org/Graphics/SVG/1.1/DTD/svg11.dtd">
<svg width="100%" height="100%" viewBox="0 0 5000 5000" version="1.1" xmlns="http://www.w3.org/2000/svg" xmlns:xlink="http://www.w3.org/1999/xlink" xml:space="preserve" xmlns:serif="http://www.serif.com/" style="fill-rule:evenodd;clip-rule:evenodd;stroke-linejoin:round;stroke-miterlimit:2;">
    <g transform="matrix(-3.430954,0,0,-4.135516,17725.541517,21401.291234)">
        <path d="M3709.039,2500C4376.326,2500 4918.078,3041.752 4918.078,3709.039C4918.078,4376.326 4376.326,4918.078 3709.039,4918.078C3041.752,4918.078 2500,4376.326 2500,3709.039C2500,3041.752 3041.752,2500 3709.039,2500ZM3709.039,2502.583C3043.297,2502.583 2503.114,3043.297 2503.114,3709.039C2503.114,4374.78 3043.297,4915.494 3709.039,4915.494C4374.78,4915.494 4914.964,4374.78 4914.964,3709.039C4914.964,3043.297 4374.78,2502.583 3709.039,2502.583Z" style="fill:rgb(145,145,145);fill-opacity:0.16;"/>
    </g>
    <g transform="matrix(-2.401668,0,0,-2.894862,13907.879062,16799.653864)">
        <path d="M3709.039,2500C4376.326,2500 4918.078,3041.752 4918.078,3709.039C4918.078,4376.326 4376.326,4918.078 3709.039,4918.078C3041.752,4918.078 2500,4376.326 2500,3709.039C2500,3041.752 3041.752,2500 3709.039,2500ZM3709.039,2503.691C3043.96,2503.691 2504.448,3043.96 2504.448,3709.039C2504.448,4374.118 3043.96,4914.387 3709.039,4914.387C4374.118,4914.387 4913.629,4374.118 4913.629,3709.039C4913.629,3043.96 4374.118,2503.691 3709.039,2503.691Z" style="fill:rgb(145,145,145);fill-opacity:0.16;"/>
    </g>
    <g transform="matrix(-3.259406,0,0,-3.928741,17089.264441,20634.351672)">
        <path d="M3709.039,2500C4376.326,2500 4918.078,3041.752 4918.078,3709.039C4918.078,4376.326 4376.326,4918.078 3709.039,4918.078C3041.752,4918.078 2500,4376.326 2500,3709.039C2500,3041.752 3041.752,2500 3709.039,2500ZM3709.039,2502.719C3043.379,2502.719 2503.278,3043.379 2503.278,3709.039C2503.278,4374.699 3043.379,4915.358 3709.039,4915.358C4374.699,4915.358 4914.8,4374.699 4914.8,3709.039C4914.8,3043.379 4374.699,2502.719 3709.039,2502.719Z" style="fill:rgb(145,145,145);fill-opacity:0.16;"/>
    </g>
    <g transform="matrix(-2.161501,0,0,-2.605375,13017.091156,15725.938477)">
        <path d="M3709.039,2500C4376.326,2500 4918.078,3041.752 4918.078,3709.039C4918.078,4376.326 4376.326,4918.078 3709.039,4918.078C3041.752,4918.078 2500,4376.326 2500,3709.039C2500,3041.752 3041.752,2500 3709.039,2500ZM3709.039,2504.101C3044.205,2504.101 2504.943,3044.205 2504.943,3709.039C2504.943,4373.873 3044.205,4913.977 3709.039,4913.977C4373.873,4913.977 4913.135,4373.873 4913.135,3709.039C4913.135,3044.205 4373.873,2504.101 3709.039,2504.101Z" style="fill:rgb(145,145,145);fill-opacity:0.16;"/>
    </g>
    <g transform="matrix(-3.087859,0,0,-3.721965,16452.987365,19867.412111)">
        <path d="M3709.039,2500C4376.326,2500 4918.078,3041.752 4918.078,3709.039C4918.078,4376.326 4376.326,4918.078 3709.039,4918.078C3041.752,4918.078 2500,4376.326 2500,3709.039C2500,3041.752 3041.752,2500 3709.039,2500ZM3709.039,2502.87C3043.469,2502.87 2503.46,3043.469 2503.46,3709.039C2503.46,4374.609 3043.469,4915.207 3709.039,4915.207C4374.609,4915.207 4914.618,4374.609 4914.618,3709.039C4914.618,3043.469 4374.609,2502.87 3709.039,2502.87Z" style="fill:rgb(145,145,145);fill-opacity:0.16;"/>
    </g>
    <g transform="matrix(-3.473841,0,0,-4.18721,17832.758829,21530.526124)">
        <path d="M3709.039,2500C4376.326,2500 4918.078,3041.752 4918.078,3709.039C4918.078,4376.326 4376.326,4918.078 3709.039,4918.078C3041.752,4918.078 2500,4376.326 2500,3709.039C2500,3041.752 3041.752,2500 3709.039,2500ZM3709.039,2502.552C3043.278,2502.552 2503.075,3043.278 2503.075,3709.039C2503.075,4374.799 3043.278,4915.526 3709.039,4915.526C4374.799,4915.526 4915.002,4374.799 4915.002,3709.039C4915.002,3043.278 4374.799,2502.552 3709.039,2502.552Z" style="fill:rgb(145,145,145);fill-opacity:0.16;"/>
    </g>
    <g transform="matrix(-3.300149,0,0,-3.97785,17188.528289,20753.999818)">
        <path d="M3709.039,2500C4376.326,2500 4918.078,3041.752 4918.078,3709.039C4918.078,4376.326 4376.326,4918.078 3709.039,4918.078C3041.752,4918.078 2500,4376.326 2500,3709.039C2500,3041.752 3041.752,2500 3709.039,2500ZM3709.039,2502.686C3043.359,2502.686 2503.237,3043.359 2503.237,3709.039C2503.237,4374.719 3043.359,4915.392 3709.039,4915.392C4374.719,4915.392 4914.84,4374.719 4914.84,3709.039C4914.84,3043.359 4374.719,2502.686 3709.039,2502.686Z" style="fill:rgb(145,145,145);fill-opacity:0.16;"/>
    </g>
    <g transform="matrix(-3.126457,0,0,-3.768489,16544.29775,19977.473512)">
        <path d="M3709.039,2500C4376.326,2500 4918.078,3041.752 4918.078,3709.039C4918.078,4376.326 4376.326,4918.078 3709.039,4918.078C3041.752,4918.078 2500,4376.326 2500,3709.039C2500,3041.752 3041.752,2500 3709.039,2500ZM3709.039,2502.835C3043.448,2502.835 2503.417,3043.448 2503.417,3709.039C2503.417,4374.63 3043.448,4915.243 3709.039,4915.243C4374.63,4915.243 4914.66,4374.63 4914.66,3709.039C4914.66,3043.448 4374.63,2502.835 3709.039,2502.835Z" style="fill:rgb(145,145,145);fill-opacity:0.16;"/>
    </g>
    <g transform="matrix(-4.108673,0,0,-4.952409,20301.323049,24506.021601)">
        <path d="M3709.039,2500C4376.326,2500 4918.078,3041.752 4918.078,3709.039C4918.078,4376.326 4376.326,4918.078 3709.039,4918.078C3041.752,4918.078 2500,4376.326 2500,3709.039C2500,3041.752 3041.752,2500 3709.039,2500ZM3709.039,2502.157C3043.042,2502.157 2502.6,3043.042 2502.6,3709.039C2502.6,4375.035 3043.042,4915.92 3709.039,4915.92C4375.035,4915.92 4915.477,4375.035 4915.477,3709.039C4915.477,3043.042 4375.035,2502.157 3709.039,2502.157Z" style="fill:rgb(145,145,145);fill-opacity:0.16;"/>
    </g>
    <g transform="matrix(-3.90324,0,0,-4.704788,19539.361613,23587.587805)">
        <path d="M3709.039,2500C4376.326,2500 4918.078,3041.752 4918.078,3709.039C4918.078,4376.326 4376.326,4918.078 3709.039,4918.078C3041.752,4918.078 2500,4376.326 2500,3709.039C2500,3041.752 3041.752,2500 3709.039,2500ZM3709.039,2502.271C3043.11,2502.271 2502.737,3043.11 2502.737,3709.039C2502.737,4374.967 3043.11,4915.807 3709.039,4915.807C4374.967,4915.807 4915.34,4374.967 4915.34,3709.039C4915.34,3043.11 4374.967,2502.271 3709.039,2502.271Z" style="fill:rgb(145,145,145);fill-opacity:0.16;"/>
    </g>
    <g transform="matrix(-3.697806,0,0,-4.457168,18777.400176,22669.154009)">
        <path d="M3709.039,2500C4376.326,2500 4918.078,3041.752 4918.078,3709.039C4918.078,4376.326 4376.326,4918.078 3709.039,4918.078C3041.752,4918.078 2500,4376.326 2500,3709.039C2500,3041.752 3041.752,2500 3709.039,2500ZM3709.039,2502.397C3043.186,2502.397 2502.889,3043.186 2502.889,3709.039C2502.889,4374.892 3043.186,4915.681 3709.039,4915.681C4374.892,4915.681 4915.188,4374.892 4915.188,3709.039C4915.188,3043.186 4374.892,2502.397 3709.039,2502.397Z" style="fill:rgb(145,145,145);fill-opacity:0.16;"/>
    </g>
    <g transform="matrix(-4.160032,0,0,-5.014314,20429.719089,24660.784371)">
        <path d="M3709.039,2500C4376.326,2500 4918.078,3041.752 4918.078,3709.039C4918.078,4376.326 4376.326,4918.078 3709.039,4918.078C3041.752,4918.078 2500,4376.326 2500,3709.039C2500,3041.752 3041.752,2500 3709.039,2500ZM3709.039,2502.131C3043.027,2502.131 2502.568,3043.027 2502.568,3709.039C2502.568,4375.051 3043.027,4915.947 3709.039,4915.947C4375.051,4915.947 4915.509,4375.051 4915.509,3709.039C4915.509,3043.027 4375.051,2502.131 3709.039,2502.131Z" style="fill:rgb(145,145,145);fill-opacity:0.16;"/>
    </g>
    <g transform="matrix(-3.95203,0,0,-4.763598,19658.233135,23730.870153)">
        <path d="M3709.039,2500C4376.326,2500 4918.078,3041.752 4918.078,3709.039C4918.078,4376.326 4376.326,4918.078 3709.039,4918.078C3041.752,4918.078 2500,4376.326 2500,3709.039C2500,3041.752 3041.752,2500 3709.039,2500ZM3709.039,2502.243C3043.094,2502.243 2502.703,3043.094 2502.703,3709.039C2502.703,4374.984 3043.094,4915.835 3709.039,4915.835C4374.984,4915.835 4915.374,4374.984 4915.374,3709.039C4915.374,3043.094 4374.984,2502.243 3709.039,2502.243Z" style="fill:rgb(145,145,145);fill-opacity:0.16;"/>
    </g>
    <g transform="matrix(-3.744029,0,0,-4.512882,18886.74718,22800.955934)">
        <path d="M3709.039,2500C4376.326,2500 4918.078,3041.752 4918.078,3709.039C4918.078,4376.326 4376.326,4918.078 3709.039,4918.078C3041.752,4918.078 2500,4376.326 2500,3709.039C2500,3041.752 3041.752,2500 3709.039,2500ZM3709.039,2502.367C3043.168,2502.367 2502.854,3043.168 2502.854,3709.039C2502.854,4374.91 3043.168,4915.71 3709.039,4915.71C4374.91,4915.71 4915.224,4374.91 4915.224,3709.039C4915.224,3043.168 4374.91,2502.367 3709.039,2502.367Z" style="fill:rgb(145,145,145);fill-opacity:0.16;"/>
    </g>
    <g transform="matrix(-1.343154,0,0,-1.618978,9981.812146,12067.350667)">
        <path d="M3709.039,2500C4376.326,2500 4918.078,3041.752 4918.078,3709.039C4918.078,4376.326 4376.326,4918.078 3709.039,4918.078C3041.752,4918.078 2500,4376.326 2500,3709.039C2500,3041.752 3041.752,2500 3709.039,2500ZM3709.039,2506.599C3045.699,2506.599 2507.954,3045.699 2507.954,3709.039C2507.954,4372.379 3045.699,4911.479 3709.039,4911.479C4372.379,4911.479 4910.123,4372.379 4910.123,3709.039C4910.123,3045.699 4372.379,2506.599 3709.039,2506.599Z" style="fill:rgb(145,145,145);fill-opacity:0.16;"/>
    </g>
    <g transform="matrix(-2.281584,0,0,-2.750118,13462.485109,16262.796171)">
        <path d="M3709.039,2500C4376.326,2500 4918.078,3041.752 4918.078,3709.039C4918.078,4376.326 4376.326,4918.078 3709.039,4918.078C3041.752,4918.078 2500,4376.326 2500,3709.039C2500,3041.752 3041.752,2500 3709.039,2500ZM3709.039,2503.885C3044.076,2503.885 2504.683,3044.076 2504.683,3709.039C2504.683,4374.002 3044.076,4914.193 3709.039,4914.193C4374.002,4914.193 4913.395,4374.002 4913.395,3709.039C4913.395,3044.076 4374.002,2503.885 3709.039,2503.885Z" style="fill:rgb(145,145,145);fill-opacity:0.16;"/>
    </g>
    <g transform="matrix(-1.659263,0,0,-2,9148.156567,11062.5)">
        <path d="M0,5000L0,0L5000,0L5000,2500L2500,2500L2500,5000L0,5000Z" style="fill:white;"/>
    </g>
</svg>
