<?xml version="1.0" encoding="UTF-8" standalone="no"?><!DOCTYPE svg PUBLIC "-//W3C//DTD SVG 1.1//EN" "http://www.w3.org/Graphics/SVG/1.1/DTD/svg11.dtd"><svg width="100%" height="100%" viewBox="0 0 1000 1000" version="1.1" xmlns="http://www.w3.org/2000/svg" xmlns:xlink="http://www.w3.org/1999/xlink" xml:space="preserve" xmlns:serif="http://www.serif.com/" style="fill-rule:evenodd;clip-rule:evenodd;stroke-linejoin:round;stroke-miterlimit:2;"><rect id="logo-small" x="0" y="0" width="1000" height="1000" style="fill:none;"/><path d="M914.289,0c0,0 91.053,224.535 -11.321,411.719c-102.374,187.184 -359.657,266.589 -359.657,266.589c0,0 -91.053,-224.535 11.321,-411.719c102.374,-187.184 359.657,-266.589 359.657,-266.589Z" style="fill:#ffa327;"/><path d="M914.289,969.89c0,0 91.053,-224.535 -11.321,-411.719c-102.374,-187.184 -359.657,-266.589 -359.657,-266.589c0,0 -91.053,224.535 11.321,411.719c102.374,187.184 359.657,266.589 359.657,266.589Z" style="fill:#ffa327;"/><path d="M85.744,9.974c0,0 -91.046,222.226 11.32,407.485c102.366,185.259 359.628,263.848 359.628,263.848c0,0 91.046,-222.226 -11.32,-407.485c-102.366,-185.259 -359.628,-263.848 -359.628,-263.848Z" style="fill:#d64945;"/><path d="M85.744,969.89c0,0 -91.046,-222.226 11.32,-407.485c102.366,-185.259 359.628,-263.848 359.628,-263.848c0,0 91.046,222.226 -11.32,407.485c-102.366,185.259 -359.628,263.848 -359.628,263.848Z" style="fill:#d64945;"/></svg>