<?xml version="1.0" encoding="UTF-8" standalone="no"?><!DOCTYPE svg PUBLIC "-//W3C//DTD SVG 1.1//EN" "http://www.w3.org/Graphics/SVG/1.1/DTD/svg11.dtd"><svg width="100%" height="100%" viewBox="0 0 2406 685" version="1.1" xmlns="http://www.w3.org/2000/svg" xmlns:xlink="http://www.w3.org/1999/xlink" xml:space="preserve" xmlns:serif="http://www.serif.com/" style="fill-rule:evenodd;clip-rule:evenodd;stroke-linejoin:round;stroke-miterlimit:2;"><rect id="Logo-light" serif:id="Logo light" x="0" y="0" width="2405.477" height="684.283" style="fill:none;"/><path d="M275.878,17.636c0,0 46.498,149.194 -5.781,273.57c-52.279,124.376 -183.665,177.137 -183.665,177.137c0,0 -46.498,-149.194 5.781,-273.57c52.279,-124.376 183.665,-177.137 183.665,-177.137Z" style="fill:#ffa327;"/><path d="M2129.599,17.887c0,0 -46.498,149.194 5.781,273.57c52.279,124.376 183.665,177.137 183.665,177.137c0,0 46.498,-149.194 -5.781,-273.57c-52.279,-124.376 -183.665,-177.137 -183.665,-177.137Z" style="fill:#d64945;"/><path d="M275.878,662.086c0,0 46.498,-149.194 -5.781,-273.57c-52.279,-124.376 -183.665,-177.137 -183.665,-177.137c0,0 -46.498,149.194 5.781,273.57c52.279,124.376 183.665,177.137 183.665,177.137Z" style="fill:#ffa327;"/><path d="M2129.599,662.337c0,0 -46.498,-149.194 5.781,-273.57c52.279,-124.376 183.665,-177.137 183.665,-177.137c0,0 46.498,149.194 -5.781,273.57c-52.279,124.376 -183.665,177.137 -183.665,177.137Z" style="fill:#d64945;"/><g transform="matrix(402.653426,0,0,402.653426,2109.312672,360.970277)"></g><text x="282.071px" y="360.97px" style="font-family:'Ubuntu-Bold', 'Ubuntu', sans-serif;font-weight:700;font-size:402.653px;fill:#fcfcff;">C<tspan x="518.832px 731.835px 942.826px 1088.586px 1246.829px 1442.921px 1515.399px 1786.787px 1878.995px 1982.074px " y="360.97px 360.97px 360.97px 360.97px 360.97px 360.97px 360.97px 360.97px 360.97px 360.97px ">herry Hill</tspan></text><g transform="matrix(0.996427,0,-0,1,-8.888319,-0)"><g transform="matrix(343.837265,0,0,343.837265,488.905934,628.024298)"><path d="M0.206,-0l-0.198,-0.525l0.068,0l0.18,0.487l-0.031,-0l0.186,-0.487l0.061,0l0.183,0.487l-0.031,-0l0.183,-0.487l0.065,0l-0.198,0.525l-0.067,-0l-0.176,-0.458l0.021,0l-0.178,0.458l-0.067,-0Z" style="fill:#fcfcff;fill-rule:nonzero;"/></g><g transform="matrix(343.837265,0,0,343.837265,785.981331,628.024298)"><path d="M0.322,0.005c-0.055,0 -0.103,-0.011 -0.144,-0.034c-0.042,-0.023 -0.074,-0.055 -0.097,-0.095c-0.023,-0.04 -0.035,-0.087 -0.035,-0.138c0,-0.052 0.011,-0.098 0.033,-0.138c0.022,-0.04 0.053,-0.072 0.092,-0.095c0.039,-0.023 0.083,-0.034 0.132,-0.034c0.049,0 0.093,0.011 0.131,0.034c0.038,0.022 0.069,0.054 0.091,0.094c0.022,0.04 0.033,0.087 0.033,0.14c0,0.003 -0,0.006 -0,0.01c-0,0.004 -0,0.008 -0.001,0.011l-0.457,0l-0,-0.053l0.419,0l-0.028,0.021c0,-0.038 -0.008,-0.071 -0.024,-0.101c-0.016,-0.03 -0.038,-0.053 -0.067,-0.07c-0.028,-0.017 -0.06,-0.025 -0.097,-0.025c-0.036,0 -0.069,0.008 -0.097,0.025c-0.028,0.017 -0.051,0.04 -0.067,0.07c-0.016,0.03 -0.024,0.064 -0.024,0.102l0,0.012c0,0.039 0.009,0.074 0.026,0.105c0.018,0.03 0.042,0.054 0.074,0.071c0.031,0.017 0.068,0.026 0.108,0.026c0.032,0 0.062,-0.006 0.09,-0.017c0.028,-0.011 0.051,-0.029 0.071,-0.052l0.04,0.046c-0.023,0.028 -0.053,0.049 -0.087,0.064c-0.035,0.015 -0.073,0.022 -0.115,0.022Z" style="fill:#fcfcff;fill-rule:nonzero;"/></g><g transform="matrix(343.837265,0,0,343.837265,993.659039,628.024298)"><path d="M0.37,0.005c-0.046,0 -0.087,-0.01 -0.124,-0.031c-0.037,-0.021 -0.066,-0.051 -0.087,-0.091c-0.021,-0.04 -0.032,-0.088 -0.032,-0.145c0,-0.057 0.011,-0.106 0.033,-0.145c0.022,-0.04 0.051,-0.07 0.088,-0.091c0.037,-0.021 0.078,-0.031 0.123,-0.031c0.05,0 0.095,0.011 0.135,0.034c0.04,0.023 0.071,0.054 0.093,0.094c0.023,0.04 0.034,0.087 0.034,0.14c0,0.053 -0.011,0.1 -0.034,0.14c-0.023,0.04 -0.054,0.072 -0.093,0.094c-0.04,0.023 -0.084,0.034 -0.135,0.034Zm-0.271,-0.005l0,-0.742l0.071,0l0,0.372l-0.01,0.106l0.007,0.106l0,0.158l-0.068,-0Zm0.266,-0.058c0.037,0 0.071,-0.009 0.1,-0.026c0.03,-0.017 0.053,-0.041 0.07,-0.072c0.017,-0.031 0.026,-0.067 0.026,-0.107c0,-0.041 -0.009,-0.077 -0.026,-0.108c-0.017,-0.031 -0.041,-0.054 -0.07,-0.071c-0.03,-0.017 -0.063,-0.025 -0.1,-0.025c-0.037,0 -0.071,0.008 -0.1,0.025c-0.03,0.017 -0.053,0.041 -0.07,0.071c-0.017,0.031 -0.026,0.067 -0.026,0.108c0,0.041 0.009,0.076 0.026,0.107c0.017,0.031 0.041,0.055 0.07,0.072c0.03,0.017 0.063,0.026 0.1,0.026Z" style="fill:#fcfcff;fill-rule:nonzero;"/></g><g transform="matrix(343.837265,0,0,343.837265,1226.780705,628.024298)"></g><g transform="matrix(343.837265,0,0,343.837265,1316.866068,628.024298)"><path d="M0.308,0.005c-0.05,0 -0.095,-0.011 -0.135,-0.034c-0.04,-0.023 -0.071,-0.054 -0.094,-0.094c-0.023,-0.04 -0.034,-0.087 -0.034,-0.14c0,-0.053 0.011,-0.1 0.034,-0.14c0.023,-0.04 0.054,-0.071 0.094,-0.094c0.04,-0.023 0.085,-0.034 0.135,-0.034c0.045,0 0.086,0.01 0.123,0.031c0.037,0.021 0.066,0.051 0.087,0.091c0.022,0.04 0.032,0.088 0.032,0.145c0,0.057 -0.011,0.105 -0.032,0.145c-0.021,0.04 -0.05,0.07 -0.087,0.091c-0.037,0.021 -0.078,0.031 -0.124,0.031Zm0.005,-0.063c0.037,0 0.071,-0.009 0.1,-0.026c0.03,-0.017 0.053,-0.041 0.07,-0.072c0.017,-0.031 0.026,-0.067 0.026,-0.107c0,-0.041 -0.009,-0.077 -0.026,-0.108c-0.017,-0.031 -0.041,-0.054 -0.07,-0.071c-0.03,-0.017 -0.063,-0.025 -0.1,-0.025c-0.037,0 -0.07,0.008 -0.1,0.025c-0.029,0.017 -0.053,0.041 -0.07,0.071c-0.017,0.031 -0.026,0.067 -0.026,0.108c0,0.041 0.009,0.076 0.026,0.107c0.017,0.031 0.041,0.055 0.07,0.072c0.029,0.017 0.063,0.026 0.1,0.026Zm0.198,0.058l0,-0.158l0.007,-0.106l-0.01,-0.106l0,-0.372l0.071,0l0,0.742l-0.068,-0Z" style="fill:#fcfcff;fill-rule:nonzero;"/></g><g transform="matrix(343.837265,0,0,343.837265,1549.987734,628.024298)"><path d="M0.322,0.005c-0.055,0 -0.103,-0.011 -0.144,-0.034c-0.042,-0.023 -0.074,-0.055 -0.097,-0.095c-0.023,-0.04 -0.035,-0.087 -0.035,-0.138c0,-0.052 0.011,-0.098 0.033,-0.138c0.022,-0.04 0.053,-0.072 0.092,-0.095c0.039,-0.023 0.083,-0.034 0.132,-0.034c0.049,0 0.093,0.011 0.131,0.034c0.038,0.022 0.069,0.054 0.091,0.094c0.022,0.04 0.033,0.087 0.033,0.14c0,0.003 -0,0.006 -0,0.01c-0,0.004 -0,0.008 -0.001,0.011l-0.457,0l-0,-0.053l0.419,0l-0.028,0.021c0,-0.038 -0.008,-0.071 -0.024,-0.101c-0.016,-0.03 -0.038,-0.053 -0.067,-0.07c-0.028,-0.017 -0.06,-0.025 -0.097,-0.025c-0.036,0 -0.069,0.008 -0.097,0.025c-0.028,0.017 -0.051,0.04 -0.067,0.07c-0.016,0.03 -0.024,0.064 -0.024,0.102l0,0.012c0,0.039 0.009,0.074 0.026,0.105c0.018,0.03 0.042,0.054 0.074,0.071c0.031,0.017 0.068,0.026 0.108,0.026c0.032,0 0.062,-0.006 0.09,-0.017c0.028,-0.011 0.051,-0.029 0.071,-0.052l0.04,0.046c-0.023,0.028 -0.053,0.049 -0.087,0.064c-0.035,0.015 -0.073,0.022 -0.115,0.022Z" style="fill:#fcfcff;fill-rule:nonzero;"/></g><g transform="matrix(343.837265,0,0,343.837265,1754.22707,628.024298)"><path d="M0.234,-0l-0.233,-0.525l0.075,0l0.214,0.487l-0.035,-0l0.217,-0.487l0.071,0l-0.234,0.525l-0.073,-0Z" style="fill:#fcfcff;fill-rule:nonzero;"/></g><g transform="matrix(343.837265,0,0,343.837265,1940.586867,628.024298)"></g></g></svg>