<?xml version="1.0" encoding="UTF-8" standalone="no"?><!DOCTYPE svg PUBLIC "-//W3C//DTD SVG 1.1//EN" "http://www.w3.org/Graphics/SVG/1.1/DTD/svg11.dtd"><svg width="100%" height="100%" viewBox="0 0 2406 685" version="1.1" xmlns="http://www.w3.org/2000/svg" xmlns:xlink="http://www.w3.org/1999/xlink" xml:space="preserve" xmlns:serif="http://www.serif.com/" style="fill-rule:evenodd;clip-rule:evenodd;stroke-linejoin:round;stroke-miterlimit:2;"><rect id="Logo-Final-" serif:id="Logo Final?" x="0" y="0" width="2405.477" height="684.283" style="fill:none;"/><g><path d="M302.182,52.691l-92.088,0c-0.008,12.1 -0.255,24.199 -0.263,36.299c-0.001,2.253 6.609,50.743 2.115,96.993c-8.1,83.364 -46.95,120.839 -120.439,138.739c-21.244,5.175 -47.794,9.249 -82.246,11.577c-1.848,0.125 -1.846,0.134 -2.008,0.133c-3.63,-0.016 -3.619,-0.158 -7.254,-0.174l-0,11.49c2.421,0.06 4.845,0.042 7.266,0.102c4.822,0.119 49.223,3.962 93.819,-1.295c129.895,-15.313 184.084,-97.6 200.6,-252.739c0.129,-1.207 0.497,-4.772 0.497,-4.784c0.077,-12.114 -0.077,-24.228 0,-36.342Z" style="fill:#ffa327;"/><path d="M210.094,631.592l92.088,0c-0.077,-12.114 0.077,-24.228 -0,-36.342c-0.005,-0.817 -1.177,-10.946 -1.287,-11.897c-17.522,-151.487 -72.584,-231.269 -201.525,-245.824c-43.948,-4.961 -87.48,-1.211 -92.105,-1.097c-2.421,0.06 -4.845,0.042 -7.266,0.102l0,11.49c2.419,-0.011 4.835,-0.163 7.254,-0.174c1.119,-0.005 10.921,0.787 11.87,0.864c118.2,9.554 169.462,43.1 187.239,115.741c9.721,39.723 8.054,87.034 3.707,128.577c-0.213,2.039 -0.239,2.033 -0.239,2.26c0.011,18.152 0.251,18.147 0.263,36.299Z" style="fill:#ffa327;"/></g><g><path d="M2195.383,52.691l-92.088,0c0.077,12.114 -0.077,24.228 0,36.342c0.005,0.817 1.177,10.946 1.287,11.897c17.522,151.487 72.584,231.269 201.525,245.824c43.948,4.961 87.48,1.211 92.105,1.097c2.421,-0.06 4.845,-0.042 7.266,-0.102l-0,-11.49c-2.419,0.011 -4.835,0.163 -7.254,0.174c-1.119,0.005 -10.921,-0.787 -11.87,-0.864c-118.2,-9.554 -169.462,-43.1 -187.239,-115.741c-9.721,-39.723 -8.054,-87.034 -3.707,-128.577c0.213,-2.039 0.239,-2.033 0.239,-2.26c-0.011,-18.152 -0.251,-18.147 -0.263,-36.299Z" style="fill:#2d308b;"/><path d="M2103.295,631.592l92.088,0c0.008,-12.1 0.255,-24.199 0.263,-36.299c0.001,-2.253 -6.609,-50.743 -2.115,-96.993c8.1,-83.364 46.95,-120.839 120.439,-138.739c21.244,-5.175 47.794,-9.249 82.246,-11.577c1.848,-0.125 1.846,-0.134 2.008,-0.133c3.635,0.016 3.624,0.158 7.254,0.174l0,-11.49c-2.421,-0.06 -4.845,-0.042 -7.266,-0.102c-4.822,-0.119 -49.223,-3.962 -93.819,1.295c-129.895,15.313 -184.084,97.6 -200.6,252.739c-0.129,1.207 -0.497,4.772 -0.497,4.784c-0.077,12.114 0.077,24.228 -0,36.342Z" style="fill:#2d308b;"/></g><g transform="matrix(402.653426,0,0,402.653426,2109.312672,373.149822)"></g><text x="282.071px" y="373.15px" style="font-family:'Ubuntu-Bold', 'Ubuntu', sans-serif;font-weight:700;font-size:402.653px;fill:#3f3c38;">C<tspan x="518.832px 731.835px 942.826px 1088.586px 1246.829px 1442.921px 1515.399px 1786.787px 1878.995px 1982.074px " y="373.15px 373.15px 373.15px 373.15px 373.15px 373.15px 373.15px 373.15px 373.15px 373.15px ">herry Hill</tspan></text><g transform="matrix(1.009308,0,-0,1.012927,-2529.838265,-2706.043498)"><text x="2938.638px" y="3283.749px" style="font-family:'FunnelDisplay-Light', 'Funnel Display';font-weight:300;font-size:339.449px;fill:#ffa327;">w<tspan x="3240.748px 3463.653px " y="3283.749px 3283.749px ">eb</tspan></text><g transform="matrix(339.449288,0,0,339.449288,4454.278761,3283.74913)"></g><text x="3818.943px" y="3283.749px" style="font-family:'FunnelDisplay-Light', 'Funnel Display';font-weight:300;font-size:339.449px;fill:#2d308b;">d<tspan x="4058.82px 4276.068px " y="3283.749px 3283.749px ">ev</tspan></text></g></svg>